<svg width="199" height="181" viewBox="0 0 199 181" fill="none" xmlns="http://www.w3.org/2000/svg">
<g id="press-play/bro">
<g id="Graphics">
<g id="background-details">
<path id="Vector" d="M198.342 78.0645H118.24C118.17 78.0645 118.102 78.038 118.053 77.9908C118.003 77.9437 117.976 77.8797 117.976 77.813V25.2272C117.976 25.1605 118.003 25.0965 118.053 25.0494C118.102 25.0022 118.17 24.9757 118.24 24.9757H198.342C198.412 24.9757 198.479 25.0022 198.529 25.0494C198.578 25.0965 198.606 25.1605 198.606 25.2272V77.813C198.606 77.8797 198.578 77.9437 198.529 77.9908C198.479 78.038 198.412 78.0645 198.342 78.0645ZM118.504 51.5201C118.504 65.9024 130.163 77.5615 144.545 77.5615H172.036C186.419 77.5615 198.078 65.9024 198.078 51.5201V51.5201C198.078 37.1378 186.419 25.4787 172.036 25.4787H144.545C130.163 25.4787 118.504 37.1378 118.504 51.5201V51.5201Z" fill="#0C0C0C"/>
<path id="Vector_2" d="M190.535 32.807C190.13 32.807 189.734 32.6925 189.397 32.4781C189.06 32.2637 188.797 31.9589 188.642 31.6023C188.487 31.2457 188.447 30.8533 188.526 30.4747C188.605 30.0962 188.8 29.7485 189.087 29.4755C189.373 29.2026 189.738 29.0167 190.136 28.9414C190.533 28.8661 190.945 28.9048 191.32 29.0525C191.694 29.2002 192.014 29.4503 192.239 29.7713C192.464 30.0922 192.585 30.4695 192.585 30.8555C192.585 31.373 192.369 31.8694 191.984 32.2354C191.6 32.6014 191.079 32.807 190.535 32.807ZM-nan -nanL190.535 29.4069C190.235 29.4069 189.941 29.4919 189.69 29.651C189.44 29.8102 189.245 30.0364 189.13 30.3011C189.015 30.5658 188.985 30.8571 189.044 31.1381C189.102 31.4191 189.247 31.6772 189.46 31.8798C189.673 32.0823 189.944 32.2203 190.239 32.2762C190.534 32.3321 190.84 32.3034 191.118 32.1938C191.395 32.0841 191.633 31.8985 191.8 31.6602C191.967 31.422 192.057 31.142 192.057 30.8555C192.057 30.4713 191.896 30.1028 191.611 29.8312C191.326 29.5595 190.939 29.4069 190.535 29.4069L-nan -nanL-nan -nanZ" fill="#0C0C0C"/>
<path id="Vector_3" d="M185.919 30.8554C185.919 31.1917 185.814 31.5204 185.618 31.7999C185.422 32.0795 185.143 32.2974 184.817 32.4261C184.491 32.5548 184.132 32.5884 183.785 32.5228C183.439 32.4572 183.121 32.2953 182.871 32.0576C182.622 31.8198 182.452 31.5169 182.383 31.1871C182.314 30.8573 182.349 30.5155 182.485 30.2049C182.62 29.8942 182.848 29.6287 183.142 29.4419C183.436 29.2551 183.781 29.1554 184.134 29.1554C184.607 29.1554 185.061 29.3345 185.396 29.6533C185.731 29.9721 185.919 30.4046 185.919 30.8554Z" fill="#0C0C0C"/>
<path id="Vector_4" d="M179.518 30.8554C179.518 31.1917 179.414 31.5204 179.218 31.7999C179.021 32.0795 178.743 32.2974 178.416 32.4261C178.09 32.5548 177.731 32.5884 177.385 32.5228C177.039 32.4572 176.721 32.2953 176.471 32.0576C176.221 31.8198 176.051 31.5169 175.983 31.1871C175.914 30.8573 175.949 30.5155 176.084 30.2049C176.219 29.8942 176.448 29.6287 176.742 29.4419C177.035 29.2551 177.38 29.1554 177.733 29.1554C178.207 29.1554 178.661 29.3345 178.996 29.6533C179.33 29.9721 179.518 30.4046 179.518 30.8554Z" fill="#0C0C0C"/>
<path id="Vector_5" d="M174.802 36.8257H142.188C132.063 36.8257 123.854 45.0338 123.854 55.1591C123.854 65.2843 132.063 73.4924 142.188 73.4924H174.802C184.927 73.4924 193.135 65.2843 193.135 55.1591C193.135 45.0338 184.927 36.8257 174.802 36.8257Z" fill="#0C0C0C"/>
<path id="Vector_6" d="M162.149 66.7954C162.149 66.794 162.148 66.7929 162.146 66.7929H162.07C158.4 66.7164 154.908 65.272 152.344 62.7699C149.78 60.2678 148.35 56.9078 148.359 53.4119C148.369 49.9161 149.818 46.5633 152.396 44.0741C154.973 41.585 158.473 40.1581 162.144 40.1001H162.228C164.069 40.1051 165.89 40.4552 167.589 41.1307C169.288 41.8061 170.83 42.7935 172.128 44.0366C173.426 45.2796 174.454 46.754 175.153 48.3754C175.853 49.9969 176.21 51.7337 176.205 53.4867C176.2 55.2397 175.832 56.9746 175.123 58.5923C174.414 60.2099 173.377 61.6787 172.072 62.9148C170.766 64.1508 169.218 65.1299 167.516 65.7962C165.814 66.4622 163.991 66.8025 162.151 66.7979C162.15 66.7979 162.149 66.7968 162.149 66.7954V66.7954ZM162.149 40.598C158.618 40.6547 155.251 42.0281 152.771 44.423C150.292 46.818 148.897 50.0436 148.888 53.4069C148.878 56.7703 150.254 60.0031 152.719 62.411C155.185 64.8189 158.544 66.2097 162.075 66.2849H162.154C163.925 66.2895 165.68 65.9618 167.319 65.3205C168.957 64.6792 170.447 63.7369 171.703 62.5473C172.959 61.3577 173.956 59.9442 174.639 58.3874C175.321 56.8306 175.675 55.1611 175.68 53.4741C175.685 51.7872 175.34 50.1158 174.667 48.5555C173.994 46.9952 173.004 45.5765 171.755 44.3804C170.506 43.1843 169.022 42.2342 167.387 41.5843C165.752 40.9345 163.999 40.5976 162.228 40.593L162.149 40.598Z" fill="white"/>
<path id="Vector_7" d="M159.269 47.5542L159.2 59.7865L168.617 53.6754L159.269 47.5542Z" fill="white"/>
<g id="background-details_2">
<path id="Vector_8" d="M75.9477 28.7429H10.892C10.822 28.7429 10.7548 28.7164 10.7053 28.6693C10.6558 28.6221 10.6279 28.5581 10.6279 28.4914V19.111C10.6279 19.0443 10.6558 18.9803 10.7053 18.9332C10.7548 18.886 10.822 18.8595 10.892 18.8595H75.9477C76.0174 18.8608 76.0837 18.8877 76.133 18.9346C76.1822 18.9815 76.2105 19.0447 76.2118 19.111V28.4965C76.2104 28.5623 76.182 28.625 76.1326 28.671C76.0833 28.7171 76.0169 28.7429 75.9477 28.7429ZM11.1561 23.8012C11.1561 26.2527 13.1434 28.2399 15.5948 28.2399H71.2449C73.6964 28.2399 75.6837 26.2527 75.6837 23.8012V23.8012C75.6837 21.3498 73.6964 19.3625 71.2449 19.3625H15.5948C13.1434 19.3625 11.1561 21.3498 11.1561 23.8012V23.8012Z" fill="#0C0C0C"/>
<path id="Vector_9" d="M-nan -nanL18.7395 23.8038C18.7405 24.1604 18.6304 24.5092 18.423 24.8061C18.2157 25.103 17.9204 25.3345 17.5747 25.4714C17.229 25.6083 16.8484 25.6444 16.4812 25.5751C16.1139 25.5058 15.7765 25.3342 15.5118 25.0821C15.247 24.8299 15.0669 24.5086 14.9941 24.1589C14.9213 23.8091 14.9592 23.4467 15.1029 23.1174C15.2467 22.7882 15.4899 22.507 15.8016 22.3096C16.1133 22.1121 16.4796 22.0072 16.854 22.0082C17.3541 22.0082 17.8336 22.1974 18.1872 22.5341C18.5408 22.8709 18.7395 23.3276 18.7395 23.8038L-nan -nanL-nan -nanZ" fill="#0C0C0C"/>
<path id="Vector_10" d="M27.0805 23.8038C27.0805 24.1587 26.97 24.5057 26.7631 24.8009C26.5561 25.096 26.262 25.3262 25.9178 25.4622C25.5735 25.5983 25.1947 25.6341 24.8291 25.5653C24.4635 25.4964 24.1276 25.3259 23.8637 25.0753C23.5998 24.8246 23.4198 24.5052 23.3464 24.1572C23.2731 23.8092 23.3097 23.4483 23.4516 23.1201C23.5935 22.7919 23.8343 22.5112 24.1437 22.3132C24.453 22.1153 24.8171 22.0092 25.1897 22.0082C25.4378 22.0075 25.6835 22.0535 25.9129 22.1434C26.1422 22.2334 26.3507 22.3655 26.5264 22.5323C26.702 22.6991 26.8414 22.8973 26.9364 23.1155C27.0315 23.3337 27.0805 23.5676 27.0805 23.8038Z" fill="#0C0C0C"/>
<path id="Vector_11" d="M-nan -nanL35.4221 23.8038C35.4231 24.1604 35.313 24.5092 35.1056 24.8061C34.8983 25.103 34.603 25.3345 34.2573 25.4714C33.9116 25.6083 33.531 25.6444 33.1638 25.5751C32.7965 25.5058 32.4591 25.3342 32.1944 25.0821C31.9297 24.8299 31.7495 24.5086 31.6767 24.1589C31.6039 23.8091 31.6418 23.4467 31.7856 23.1174C31.9293 22.7882 32.1725 22.507 32.4842 22.3096C32.7959 22.1121 33.1622 22.0072 33.5366 22.0082C34.0367 22.0082 34.5162 22.1974 34.8698 22.5341C35.2234 22.8709 35.4221 23.3276 35.4221 23.8038L-nan -nanL-nan -nanZ" fill="#0C0C0C"/>
<path id="Vector_12" d="M78.2238 17.1287H73.8139C73.7438 17.1287 73.6767 17.1022 73.6271 17.0551C73.5776 17.008 73.5498 16.9441 73.5498 16.8775C73.5498 16.8109 73.5776 16.747 73.6271 16.6999C73.6767 16.6528 73.7438 16.6263 73.8139 16.6263H78.2238C78.2938 16.6263 78.361 16.6528 78.4105 16.6999C78.4601 16.747 78.4879 16.8109 78.4879 16.8775C78.4879 16.9441 78.4601 17.008 78.4105 17.0551C78.361 17.1022 78.2938 17.1287 78.2238 17.1287Z" fill="#0C0C0C"/>
<path id="Vector_13" d="M21.8978 32.1927H4.88126C4.81122 32.1927 4.74405 32.1662 4.69453 32.1191C4.64501 32.072 4.61719 32.0081 4.61719 31.9415C4.61719 31.8749 4.64501 31.811 4.69453 31.7639C4.74405 31.7168 4.81122 31.6903 4.88126 31.6903H21.8978C21.9678 31.6903 22.035 31.7168 22.0845 31.7639C22.134 31.811 22.1619 31.8749 22.1619 31.9415C22.1619 32.0081 22.134 32.072 22.0845 32.1191C22.035 32.1662 21.9678 32.1927 21.8978 32.1927Z" fill="#0C0C0C"/>
</g>
</g>
</g>
<g id="Character">
<g id="character">
<path id="Vector_14" d="M127.553 170.737C131.756 170.737 134.881 163.608 134.635 159.412V159.412C134.37 154.896 130.303 155.318 125.83 155.992C109.878 158.398 97.7405 156.527 89.7364 154.157C84.1971 152.517 78.014 151.555 77.0586 157.253V157.253C76.2496 162.077 79.2483 170.737 84.1397 170.737H127.553Z" fill="black" fill-opacity="0.44"/>
<path id="Vector_15" d="M135.3 170.986C135.3 170.988 135.299 170.989 135.297 170.989H74.7862C74.7478 170.989 74.7099 170.981 74.6752 170.965C74.6405 170.949 74.6099 170.926 74.5856 170.898C74.5616 170.87 74.5441 170.838 74.5341 170.803C74.524 170.769 74.5218 170.733 74.5275 170.697C76.4063 159.567 77.9167 150.528 78.1087 149.379C78.1228 149.295 78.1288 149.206 78.1832 149.141V149.141C78.2109 149.107 78.2468 149.081 78.2878 149.064C78.3287 149.047 78.3736 149.04 78.418 149.045C78.4624 149.049 78.5049 149.065 78.5413 149.089C78.742 149.225 98.5207 162.368 134.275 154.119C134.312 154.11 134.351 154.109 134.388 154.116C134.426 154.123 134.461 154.138 134.492 154.159C134.524 154.181 134.55 154.21 134.568 154.243V154.243C134.598 154.297 134.6 154.397 134.604 154.458C134.656 155.355 135.031 161.759 135.564 170.717C135.566 170.751 135.56 170.785 135.547 170.817C135.535 170.849 135.515 170.878 135.491 170.903C135.466 170.928 135.437 170.948 135.404 170.962C135.372 170.975 135.337 170.983 135.303 170.984C135.301 170.984 135.3 170.985 135.3 170.986V170.986ZM75.0926 170.486H127.549C131.611 170.486 134.682 164.484 134.443 160.429V160.429C134.187 156.071 130.218 155.585 125.9 156.231C110.765 158.494 98.9962 156.907 90.9405 154.707C84.7494 153.016 77.443 156.564 76.3778 162.893C75.9824 165.242 75.5517 167.799 75.0987 170.48C75.0982 170.483 75.0956 170.486 75.0926 170.486V170.486Z" fill="black" fill-opacity="0.44"/>
<g id="Group" opacity="0.6">
<path id="Vector_16" d="M127.552 170.737C131.755 170.737 134.88 163.608 134.634 159.412V159.412C134.369 154.896 130.302 155.318 125.829 155.992C109.878 158.398 97.7395 156.526 89.7354 154.157C84.1961 152.517 78.013 151.555 77.0576 157.253V157.253C76.2486 162.077 79.2473 170.737 84.1387 170.737H127.552Z" fill="white"/>
<path id="Vector_17" d="M135.3 170.986C135.3 170.988 135.299 170.989 135.297 170.989H74.7862C74.7478 170.989 74.7099 170.981 74.6752 170.965C74.6405 170.949 74.6099 170.926 74.5856 170.898C74.5616 170.87 74.5441 170.838 74.5341 170.803C74.524 170.769 74.5218 170.733 74.5275 170.697C76.4063 159.567 77.9167 150.528 78.1087 149.379C78.1228 149.295 78.1288 149.206 78.1832 149.141V149.141C78.2109 149.107 78.2468 149.081 78.2878 149.064C78.3287 149.047 78.3736 149.04 78.418 149.045C78.4624 149.049 78.5049 149.065 78.5413 149.089C78.742 149.225 98.5207 162.368 134.275 154.119C134.312 154.11 134.351 154.109 134.388 154.116C134.426 154.123 134.461 154.138 134.492 154.159C134.524 154.181 134.55 154.21 134.568 154.243V154.243C134.598 154.297 134.6 154.397 134.604 154.458C134.656 155.355 135.031 161.759 135.564 170.717C135.566 170.751 135.56 170.785 135.547 170.817C135.535 170.849 135.515 170.878 135.491 170.903C135.466 170.928 135.437 170.948 135.404 170.962C135.372 170.975 135.337 170.983 135.303 170.984C135.301 170.984 135.3 170.985 135.3 170.986V170.986ZM75.0926 170.486H127.549C131.611 170.486 134.682 164.484 134.443 160.429V160.429C134.187 156.071 130.218 155.585 125.9 156.231C110.765 158.494 98.9962 156.907 90.9405 154.707C84.7494 153.016 77.443 156.564 76.3778 162.893C75.9824 165.242 75.5517 167.799 75.0987 170.48C75.0982 170.483 75.0956 170.486 75.0926 170.486V170.486Z" fill="black" fill-opacity="0.44"/>
</g>
<path id="Vector_18" d="M31.3153 76.133C31.2625 77.6972 30.2009 79.1056 30.1639 80.6597C30.1322 82.1184 30.9984 83.4462 31.2941 84.8746C31.611 86.4137 31.2941 87.9931 31.5001 89.5372C31.6453 90.5333 31.9313 91.5062 32.3504 92.4293C32.6551 93.1572 33.1583 93.7945 33.8081 94.2752C34.8643 95.0196 36.3695 94.9894 37.6423 94.9894C38.9585 95.0607 40.2613 94.7062 41.3393 93.9835C41.4811 93.8614 41.6182 93.7347 41.7503 93.6039C42.9778 92.3879 43.9829 90.8078 44.1648 89.0896V89.0896C44.1575 88.6 44.0498 88.1165 43.8479 87.6662C42.7917 85.1966 40.151 83.4361 39.7073 80.8106C39.5172 79.689 39.7602 78.5473 39.8658 77.4206C39.9714 76.2939 39.9028 75.0617 39.1845 74.1513C37.9962 72.6424 35.2129 72.3255 33.375 72.3305C30.6921 72.3355 31.3839 74.267 31.3153 76.133Z" fill="white"/>
<path id="Vector_19" d="M37.3313 95.236C37.3313 95.2415 37.3268 95.246 37.3212 95.246C36.088 95.2458 34.7247 95.2089 33.6819 94.4865C32.9924 93.9793 32.458 93.3054 32.1344 92.535C31.7058 91.5913 31.4144 90.5963 31.2683 89.5775C31.1833 88.8546 31.1586 88.1263 31.1943 87.3996C31.2404 86.5743 31.1961 85.7467 31.0623 84.93C30.9282 84.3819 30.7517 83.8439 30.5342 83.3205C30.1278 82.5396 29.9138 81.6807 29.9083 80.8092C29.9028 79.9376 30.106 79.0763 30.5025 78.2908C30.8069 77.6005 30.9958 76.869 31.0623 76.123L-nan -nanL-nan -nanL31.0623 76.123C31.0623 75.781 31.0623 75.4339 31.0623 75.117C31.0253 74.1513 30.9884 73.241 31.5904 72.6575C31.837 72.4504 32.1252 72.2932 32.4375 72.1955C32.7498 72.0978 33.0798 72.0616 33.4072 72.0891C35.1078 72.0891 38.1129 72.3255 39.4385 74.0105C40.0829 74.8253 40.3152 75.9168 40.1726 77.4508C40.1462 77.7325 40.1145 78.0142 40.0776 78.2908C39.9344 79.1137 39.9113 79.9516 40.0089 80.7805C40.2519 82.214 41.1814 83.3759 42.169 84.6031C42.9624 85.5064 43.6233 86.5081 44.1337 87.5807C44.3475 88.0582 44.4623 88.5706 44.4717 89.0896C44.3778 89.9875 44.0571 90.8504 43.5369 91.6045C43.0536 92.5712 42.3773 93.439 41.5458 94.1596C40.4244 94.9243 39.0621 95.3005 37.6851 95.2259H37.3413C37.3358 95.2259 37.3313 95.2304 37.3313 95.236V95.236ZM31.5984 76.1456C31.6004 76.1424 31.6053 76.1441 31.605 76.1478C31.5353 76.9398 31.338 77.7169 31.0201 78.4518C30.6421 79.1816 30.4481 79.9854 30.4536 80.7992C30.4591 81.613 30.6639 82.4143 31.0517 83.1395C31.2714 83.6879 31.4479 84.2511 31.5799 84.8244C31.7244 85.6755 31.7722 86.5389 31.7225 87.3996C31.6873 88.1011 31.7102 88.8041 31.7911 89.5021C31.9325 90.474 32.2114 91.4232 32.6203 92.3237C32.9046 93.0127 33.379 93.6157 33.9935 94.0691C34.9547 94.733 36.3172 94.733 37.5161 94.733H37.6693C38.9277 94.8065 40.1746 94.4675 41.2025 93.7723C41.3468 93.6464 41.486 93.5158 41.6198 93.3806C42.7833 92.2061 43.74 90.7121 43.9277 89.0695V89.0695C43.9188 88.6125 43.8166 88.1615 43.6266 87.7417C43.1355 86.7109 42.4975 85.7495 41.7306 84.8848C40.7536 83.6575 39.7396 82.3699 39.4702 80.861C39.3661 79.987 39.3892 79.1035 39.5389 78.2355C39.5706 77.9588 39.6075 77.6822 39.6287 77.4056C39.7607 76.0023 39.56 75.0215 39.0002 74.3123C37.7696 72.748 34.6642 72.6072 33.3914 72.5921C33.1352 72.5676 32.8765 72.5914 32.63 72.6622C32.3835 72.733 32.1541 72.8493 31.9548 73.0046C31.5271 73.4321 31.5535 74.2016 31.5904 75.0969C31.5904 75.4392 31.6213 75.7912 31.5917 76.1433C31.5914 76.1471 31.5964 76.1488 31.5984 76.1456V76.1456Z" fill="black" fill-opacity="0.44"/>
<path id="Vector_20" d="M34.7441 94.7129L35.294 98.8689C35.9443 103.785 39.783 107.455 44.3049 105.42V105.42C47.2128 104.111 48.5519 100.145 47.1782 97.2671L43.7647 90.1157" fill="white"/>
<path id="Vector_21" d="M36.5659 108.288C36.5272 108.295 36.4876 108.3 36.4493 108.292C36.4156 108.285 36.3834 108.272 36.3546 108.253C36.3242 108.233 36.2986 108.206 36.2794 108.176C36.2603 108.146 36.2482 108.112 36.2437 108.077L34.4797 94.743C34.4707 94.677 34.4896 94.6103 34.5322 94.5575C34.5747 94.5047 34.6375 94.4701 34.7068 94.4614C34.7417 94.4564 34.7772 94.4583 34.8112 94.4669C34.8452 94.4755 34.8771 94.4906 34.9048 94.5113C34.9325 94.5321 34.9554 94.5579 34.9722 94.5874C34.989 94.6169 34.9994 94.6493 35.0026 94.6827L35.5734 98.9951C36.1891 103.646 40.3775 106.98 44.6254 104.987V104.987C47.4002 103.686 48.2677 100.158 46.9468 97.3925L43.5214 90.2213C43.494 90.1597 43.4924 90.0904 43.517 90.0278C43.5415 89.9651 43.5904 89.9137 43.6535 89.8843C43.7172 89.8571 43.7897 89.855 43.855 89.8786C43.9203 89.9022 43.9732 89.9494 44.002 90.01L49.6636 101.86C49.6821 101.902 49.6889 101.947 49.6834 101.992C49.6778 102.037 49.6601 102.08 49.6319 102.117C46.6691 105.889 36.9567 108.193 36.5659 108.288V108.288Z" fill="black" fill-opacity="0.44"/>
<path id="Vector_22" d="M49.8714 103.438C51.6739 103.112 53.4699 104.039 54.2492 105.697V105.697C55.2476 107.82 57.8376 108.651 59.885 107.505L87.776 91.8876C88.3884 91.5446 88.9271 91.0842 89.3612 90.5326L89.6235 90.1994C92.0044 87.1742 96.7538 87.7932 98.2799 91.3275V91.3275C98.8445 92.6353 98.8342 94.1201 98.2514 95.4199L93.9012 105.122C91.6475 110.148 88.0534 114.492 83.3198 117.31C78.7019 120.058 73.9419 122.587 69.057 124.886C65.5097 126.607 61.8693 128.149 58.151 129.504C54.5967 130.771 50.8944 131.636 47.2292 132.567C46.9804 132.654 46.7069 132.654 46.4581 132.567C46.2944 132.486 46.2257 132.295 46.0778 132.179C44.3074 130.822 40.7754 122.375 38.3788 115.108C36.7095 110.046 40.0655 105.206 45.3106 104.26L49.8714 103.438Z" fill="black" fill-opacity="0.44"/>
<path id="Vector_23" d="M134.785 79.0847C138.173 77.4114 142.272 78.4059 144.517 81.4453L155.722 96.6191C157.54 99.081 158.586 101.984 158.739 104.99C158.891 107.997 158.143 110.982 156.583 113.599C152.189 120.98 145.803 131.296 140.857 137.748C138.563 140.739 139.335 144.898 138.558 148.586V148.586V148.586C138.15 150.523 136.219 152.5 137.252 154.188L138.206 155.747C139.198 157.367 138.836 159.451 137.218 160.447C130.497 164.583 111.793 173.038 86.8016 159.142C79.8918 155.3 77.379 146.874 79.6479 139.301L82.963 128.235C83.3862 126.822 82.8452 125.298 81.626 124.469V124.469C80.3929 123.63 79.8551 122.082 80.3024 120.659L93.7103 78.0071C95.1577 73.4025 99.2065 70.1009 104.008 69.6095L108.669 69.1326C111.291 68.8642 113.772 70.3707 114.744 72.8211L116.44 77.097C117.28 79.2152 120.058 79.7043 121.571 78.0003V78.0003C122.787 76.6313 124.924 76.6293 126.142 77.996L127.195 79.177C128.532 80.677 130.706 81.0996 132.507 80.2098L134.785 79.0847Z" fill="black" fill-opacity="0.44"/>
<path id="Vector_24" d="M-nan -nanL139.509 106.553C139.454 106.553 139.4 106.537 139.355 106.506C139.311 106.475 139.278 106.432 139.261 106.382C139.239 106.318 139.243 106.249 139.274 106.189C139.305 106.129 139.359 106.083 139.424 106.06C144.009 104.551 148.271 103.892 154.133 103.711C154.203 103.711 154.271 103.736 154.322 103.782C154.373 103.828 154.404 103.891 154.408 103.958C154.408 103.991 154.402 104.023 154.39 104.054C154.377 104.085 154.358 104.113 154.334 104.137C154.31 104.161 154.281 104.18 154.25 104.193C154.218 104.206 154.184 104.213 154.149 104.214C148.339 104.395 144.114 105.069 139.594 106.538C139.567 106.548 139.538 106.553 139.509 106.553L-nan -nanL-nan -nanZ" fill="white"/>
<path id="Vector_25" d="M125.636 155.085C125.587 155.084 125.539 155.07 125.497 155.045C125.456 155.019 125.423 154.984 125.401 154.942C125.379 154.9 125.37 154.853 125.374 154.806C125.378 154.76 125.396 154.715 125.425 154.677C128.07 151.371 131.569 148.772 135.581 147.133C135.645 147.11 135.715 147.111 135.778 147.137C135.841 147.162 135.891 147.21 135.917 147.27C135.944 147.33 135.945 147.397 135.921 147.458C135.897 147.518 135.848 147.568 135.787 147.596C131.861 149.193 128.437 151.732 125.847 154.964C125.825 154.999 125.794 155.028 125.757 155.049C125.72 155.07 125.679 155.082 125.636 155.085Z" fill="white"/>
<path id="Vector_26" d="M-nan -nanL53.5175 120.038C53.4867 120.042 53.4555 120.042 53.4246 120.039C53.4162 120.038 53.4079 120.036 53.4002 120.032C53.342 120.004 53.2963 119.956 53.2714 119.899C53.2449 119.837 53.2442 119.768 53.2693 119.706C54.5311 116.837 55.3597 113.813 55.7304 110.723C55.7381 110.656 55.7733 110.595 55.8283 110.553C55.8833 110.511 55.9535 110.491 56.0235 110.499C56.0936 110.506 56.1577 110.54 56.2017 110.592C56.2458 110.644 56.2662 110.711 56.2585 110.778C55.8789 113.916 55.038 116.987 53.7605 119.902C53.7371 119.944 53.702 119.978 53.6591 120.002C53.6162 120.026 53.5672 120.039 53.5175 120.038L-nan -nanL-nan -nanZ" fill="white"/>
<path id="Vector_27" d="M-nan -nanL59.3279 117.13H59.2963C59.227 117.123 59.1638 117.089 59.1202 117.038C59.0767 116.986 59.0564 116.92 59.0639 116.854C59.298 114.785 58.7513 112.704 57.5217 110.984C57.4822 110.929 57.4667 110.861 57.4785 110.796C57.4903 110.73 57.5286 110.671 57.5851 110.632C57.6138 110.613 57.6462 110.599 57.6804 110.592C57.7146 110.585 57.7499 110.585 57.7843 110.591C57.8187 110.597 57.8515 110.61 57.8808 110.628C57.91 110.646 57.9352 110.67 57.9548 110.697C59.2617 112.523 59.8422 114.733 59.592 116.929C59.5787 116.986 59.5453 117.038 59.4973 117.074C59.4492 117.111 59.3895 117.131 59.3279 117.13L-nan -nanL-nan -nanZ" fill="white"/>
<path id="Vector_28" d="M-nan -nanL90.2188 104.214C90.1913 104.218 90.1632 104.219 90.1356 104.215C90.1312 104.214 90.1269 104.213 90.1227 104.212C90.0928 104.201 90.0651 104.185 90.0413 104.165C90.0157 104.143 89.995 104.117 89.9802 104.087C89.9655 104.058 89.957 104.026 89.9554 103.993C89.9537 103.96 89.9589 103.928 89.9706 103.897C90.6677 101.991 95.2519 91.4536 96.9156 87.6863C96.9282 87.6546 96.9473 87.6257 96.9719 87.6013C96.9965 87.5769 97.0261 87.5574 97.0587 87.5441C97.0914 87.5308 97.1266 87.524 97.1621 87.5239C97.1977 87.5239 97.2329 87.5307 97.2656 87.5439C97.2983 87.5571 97.3279 87.5764 97.3526 87.6008C97.3772 87.6252 97.3965 87.654 97.4092 87.6856C97.4219 87.7172 97.4277 87.751 97.4264 87.7848C97.4251 87.8186 97.4166 87.8518 97.4015 87.8825C95.759 91.5441 91.1483 102.207 90.467 104.063C90.4461 104.109 90.4113 104.148 90.3671 104.175C90.3229 104.201 90.2712 104.215 90.2188 104.214L-nan -nanL-nan -nanZ" fill="white"/>
<path id="Vector_29" d="M123.855 132.194C123.797 132.195 123.739 132.177 123.692 132.144C123.646 132.11 123.612 132.062 123.597 132.008V132.008C122.467 127.982 119.787 124.568 116.144 122.515L94.1635 110.129C94.1046 110.094 94.0623 110.039 94.0457 109.975C94.0292 109.911 94.0397 109.843 94.075 109.787C94.1103 109.73 94.1676 109.689 94.2346 109.672C94.3015 109.655 94.3727 109.664 94.4329 109.696L122.192 125.334C122.251 125.367 122.295 125.421 122.313 125.485V125.485C122.519 126.213 123.591 126.064 123.591 125.308V124.635C123.591 124.576 123.612 124.52 123.649 124.474L135.474 110.587C135.52 110.535 135.584 110.503 135.654 110.496C135.724 110.49 135.794 110.51 135.849 110.552C135.876 110.572 135.899 110.597 135.916 110.626C135.932 110.655 135.943 110.687 135.946 110.72C135.949 110.753 135.946 110.786 135.936 110.818C135.925 110.849 135.909 110.878 135.886 110.904L128.802 119.221C125.78 122.771 124.119 127.281 124.119 131.943V131.943C124.119 132.004 124.095 132.064 124.052 132.11C124.01 132.156 123.951 132.186 123.887 132.194H123.855Z" fill="white"/>
<path id="Vector_30" d="M-nan -nanL125.153 149.547C125.107 149.547 125.061 149.537 125.021 149.517L92.9311 132.416C92.9006 132.4 92.8736 132.379 92.8517 132.353C92.8298 132.327 92.8135 132.297 92.8037 132.266C92.7939 132.234 92.7908 132.201 92.7945 132.168C92.7982 132.135 92.8088 132.103 92.8255 132.074C92.8609 132.015 92.919 131.973 92.9872 131.955C93.0554 131.937 93.1282 131.945 93.1899 131.978L117.079 144.694C122.036 147.333 128.045 147.013 132.694 143.863V143.863C132.752 143.825 132.822 143.81 132.891 143.82C132.96 143.83 133.022 143.866 133.064 143.919C133.084 143.946 133.099 143.976 133.107 144.009C133.114 144.041 133.115 144.075 133.11 144.107C133.104 144.14 133.091 144.171 133.072 144.199C133.054 144.228 133.029 144.252 133.001 144.271L125.306 149.487C125.263 149.521 125.209 149.542 125.153 149.547L-nan -nanL-nan -nanZ" fill="white"/>
<path id="Vector_31" d="M66.5044 102.112C83.0894 102.112 96.5342 89.0642 96.5342 72.9694C96.5342 56.8746 83.0894 43.8271 66.5044 43.8271C49.9194 43.8271 36.4746 56.8746 36.4746 72.9694C36.4746 89.0642 49.9194 102.112 66.5044 102.112Z" fill="black" fill-opacity="0.44"/>
<path id="Vector_32" d="M68.512 98.7468C84.5166 98.7468 97.4908 86.3907 97.4908 71.1487C97.4908 55.9066 84.5166 43.5505 68.512 43.5505C52.5075 43.5505 39.5332 55.9066 39.5332 71.1487C39.5332 86.3907 52.5075 98.7468 68.512 98.7468Z" fill="#494949" fill-opacity="0.63"/>
<path id="Vector_33" d="M-nan -nanL68.4917 98.9982C62.7087 98.9952 57.0564 97.3593 52.2495 94.2973C47.4427 91.2354 43.697 86.8848 41.4861 81.7957C39.2752 76.7066 38.6984 71.1074 39.8285 65.7061C40.9586 60.3048 43.745 55.3439 47.8353 51.4506C51.9256 47.5573 57.1362 44.9063 62.8084 43.833C68.4805 42.7596 74.3594 43.312 79.702 45.4203C85.0445 47.5286 89.6106 51.0982 92.8232 55.6777C96.0357 60.2572 97.7504 65.6411 97.7504 71.1486C97.742 78.5349 94.6562 85.6162 89.1705 90.8377C83.6848 96.0593 76.2476 98.9942 68.4917 98.9982L-nan -nanL-nan -nanZM-nan -nanL68.4917 43.807C62.8129 43.8099 57.2625 45.4165 52.5424 48.4234C47.8223 51.4303 44.1443 55.7026 41.9735 60.7001C39.8028 65.6976 39.2367 71.1959 40.3469 76.4998C41.4571 81.8036 44.1936 86.6749 48.2106 90.4977C52.2276 94.3205 57.3446 96.9231 62.9146 97.9765C68.4847 99.0299 74.2576 98.4867 79.5035 96.4157C84.7494 94.3447 89.2327 90.8388 92.3866 86.3414C95.5405 81.8439 97.2233 76.5568 97.2223 71.1486C97.2125 63.8965 94.1817 56.9444 88.7952 51.8183C83.4087 46.6922 76.1066 43.811 68.4917 43.807L-nan -nanL-nan -nanZ" fill="black" fill-opacity="0.44"/>
<path id="Vector_34" d="M57.0469 60.576L66.0463 84.7288L84.2089 65.5706L57.0469 60.576Z" fill="white"/>
<path id="Vector_35" d="M92.2303 64.5395C92.1951 64.5462 92.1591 64.5511 92.1241 64.5439C92.0836 64.5357 92.0455 64.5186 92.0127 64.4938C91.9659 64.4583 91.9328 64.4089 91.9187 64.3534C91.1359 61.1834 89.6157 58.2212 87.4704 55.6853C85.325 53.1495 82.6092 51.1047 79.5233 49.7018C79.4596 49.6731 79.4104 49.6215 79.3867 49.5583C79.3629 49.4951 79.3665 49.4255 79.3966 49.3648C79.4267 49.3041 79.4809 49.2573 79.5472 49.2347C79.6136 49.212 79.6867 49.2154 79.7504 49.2441C82.9059 50.6817 85.6827 52.775 87.8763 55.3698C90.0699 57.9646 91.6245 60.995 92.4257 64.2377C92.4416 64.3024 92.4299 64.3705 92.3933 64.427C92.3567 64.4835 92.2981 64.524 92.2303 64.5395V64.5395Z" fill="white"/>
<path id="Vector_36" d="M77.0573 48.7415C77.0622 48.7369 77.0581 48.7283 77.0513 48.7288C77.0312 48.7304 77.0109 48.7296 76.9909 48.7263C76.9897 48.7261 76.9886 48.7258 76.9874 48.7255C75.3066 48.1812 73.5649 47.8253 71.7976 47.6648C71.7629 47.6614 71.7292 47.6517 71.6985 47.636C71.6678 47.6203 71.6407 47.599 71.6186 47.5733C71.5965 47.5476 71.58 47.518 71.5699 47.4863C71.5598 47.4545 71.5564 47.4211 71.5599 47.3881C71.5634 47.3551 71.5736 47.323 71.5901 47.2938C71.6066 47.2645 71.629 47.2387 71.6559 47.2176C71.6829 47.1966 71.714 47.1809 71.7473 47.1713C71.7807 47.1617 71.8157 47.1585 71.8504 47.1618C73.5802 47.3208 75.2855 47.664 76.9345 48.185C77.066 48.2265 77.2227 48.2406 77.3061 48.3503V48.3503C77.3477 48.405 77.3648 48.4732 77.3536 48.5399C77.3424 48.6066 77.3038 48.6663 77.2463 48.706C77.1927 48.743 77.1266 48.7596 77.0611 48.7529C77.0554 48.7524 77.0532 48.7455 77.0573 48.7415V48.7415Z" fill="white"/>
<path id="Vector_37" d="M87.8739 106.558C88.9732 107.593 89.2604 109.226 88.513 110.537C87.7169 111.935 86.5927 113.794 85.3336 115.536C82.6877 119.196 78.106 118.268 75.2374 114.779L73.6882 112.895L68.4068 106.467L67.0986 104.928C67.0729 104.898 67.0495 104.866 67.0284 104.833V104.833L61.3826 95.1303L61.1592 94.7455C60.8871 94.2769 60.6848 93.7711 60.5587 93.2442V93.2442L60.1098 91.3731V91.3731C60.0891 91.2844 60.0941 91.1916 60.1242 91.1057L60.1573 91.011L60.887 89.0757C61.1028 88.5034 61.4256 87.9775 61.8383 87.5261L63.0587 86.1913C63.0847 86.1629 63.0991 86.1259 63.0991 86.0874V86.0874C63.0991 86.077 63.1001 86.0666 63.1022 86.0564L63.7804 82.7622V82.7622C63.8274 82.5348 63.9685 82.3379 64.1686 82.2202L65.6337 81.3584C65.6438 81.3525 65.65 81.3499 65.65 81.3382V81.3382C65.65 81.3341 65.6496 81.3229 65.6481 81.319C65.511 80.9687 64.2024 77.3959 65.2327 75.3132C65.4485 74.8444 65.8195 74.4557 66.289 74.2066C66.4131 74.1392 66.5422 74.0807 66.6751 74.0316C66.847 73.9681 66.9902 73.8449 67.1182 73.7137V73.7137C67.2819 73.5377 67.5671 73.4019 67.8998 73.8495C68.0545 74.072 68.1754 74.3141 68.2589 74.5688C68.2889 74.6387 68.3188 74.7153 68.3487 74.7971C68.4075 74.9581 68.4566 75.1243 68.5072 75.288V75.288C68.5336 75.3735 68.5653 75.4691 68.5969 75.5647C68.6603 75.7658 68.729 75.967 68.7976 76.1682C69.1677 77.2639 69.6604 78.6514 70.1362 79.969C71.1238 82.7041 73.3378 84.7931 76.1123 85.6644V85.6644V85.6644C76.4456 85.7659 76.7135 86.0155 76.8384 86.3407L76.8992 86.4993L78.4308 90.4929V90.4929C78.4975 90.6667 78.5449 90.8474 78.5721 91.0316L78.5787 91.0763L79.5441 98.681C79.5482 98.7137 79.5635 98.744 79.5875 98.7668V98.7668L87.8739 106.558V106.558Z" fill="white"/>
<path id="Vector_38" d="M90.2177 108.922C90.2177 108.919 90.2154 108.917 90.2126 108.917C90.1473 108.915 90.0849 108.89 90.0381 108.846C82.6125 102.237 79.375 98.9428 79.3434 98.9126C79.3047 98.8722 79.2807 98.8211 79.2747 98.7668L78.7782 93.9231C78.5738 92.1489 78.1918 90.3973 77.6375 88.6922C77.3709 87.6679 76.8243 86.729 76.0531 85.9711C75.1922 85.2016 74.1042 85.0105 72.9476 84.8042C72.5198 84.7288 72.0762 84.6534 71.6431 84.5427C71.6096 84.5346 71.5781 84.5201 71.5505 84.5001C71.5229 84.4802 71.4998 84.4551 71.4826 84.4265C71.4653 84.3979 71.4543 84.3663 71.4501 84.3336C71.446 84.3008 71.4487 84.2676 71.4583 84.2359C71.4669 84.2038 71.4821 84.1737 71.5029 84.1472C71.5238 84.1208 71.55 84.0985 71.5799 84.0817C71.6098 84.0648 71.6429 84.0538 71.6774 84.0492C71.7118 84.0446 71.7468 84.0465 71.7804 84.0548C72.1924 84.1604 72.6255 84.2359 73.048 84.3113C74.2257 84.5176 75.4404 84.7338 76.4175 85.609C77.2512 86.4271 77.8434 87.4404 78.1339 88.5464C78.7001 90.2859 79.0909 92.0728 79.3011 93.8829V93.8829C79.6189 96.9615 80.9794 99.838 83.2355 101.957C84.9422 103.56 87.3056 105.735 90.3972 108.489C90.4368 108.524 90.4645 108.568 90.4767 108.618C90.4889 108.668 90.485 108.719 90.4656 108.767C90.4461 108.814 90.412 108.855 90.3677 108.884C90.3248 108.911 90.2744 108.926 90.2227 108.927C90.2199 108.927 90.2177 108.925 90.2177 108.922V108.922Z" fill="black" fill-opacity="0.44"/>
<path id="Vector_39" d="M-nan -nanL73.4567 88.7577C73.4047 88.7568 73.3541 88.7416 73.311 88.714C73.2679 88.6863 73.2341 88.6473 73.2137 88.6018C72.6539 87.2991 72.0835 85.921 71.4762 84.3869C71.2596 83.8588 71.0484 83.3206 70.8424 82.7874C69.9815 80.5794 69.258 78.3512 68.545 76.2488C68.4798 76.0626 68.4146 75.8673 68.354 75.6758C68.3476 75.6555 68.3443 75.6344 68.3443 75.6132V75.6132C68.3443 75.5878 68.3396 75.5627 68.331 75.5388C68.3097 75.4796 68.2913 75.4194 68.2757 75.3585L68.0405 74.6694C68.0144 74.5928 67.9846 74.5163 67.9641 74.4381V74.4381C67.9169 74.291 67.8398 74.1543 67.737 74.0357V74.0357C67.7194 74.0156 67.7007 73.9963 67.6788 73.9811C67.6196 73.9398 67.5501 73.9135 67.4767 73.9052V73.9052C67.305 73.8856 67.1379 73.9692 66.986 74.0517C66.9631 74.0641 66.9405 74.0773 66.9184 74.091C66.7661 74.1785 66.6228 74.2796 66.4906 74.3928C66.1451 74.6878 65.8696 75.0496 65.6825 75.4541L65.6297 75.5647C65.054 76.9027 65.3709 78.5323 65.6297 79.7243C65.7285 80.2196 65.8324 80.7148 65.9465 81.2485C65.95 81.2649 65.947 81.2826 65.9519 81.2986V81.2986C66.48 83.6274 67.1507 85.8807 67.7422 87.7769C67.7539 87.8376 67.7417 87.9002 67.708 87.9528C67.6743 88.0055 67.6215 88.0445 67.5596 88.0625C67.4976 88.0805 67.4309 88.0763 67.3721 88.0505C67.3133 88.0247 67.2665 87.9793 67.2405 87.9228C66.6437 86.0165 65.9624 83.7531 65.4343 81.3841C65.3128 80.8812 65.2019 80.343 65.1016 79.8199C64.8586 78.5675 64.5206 76.8524 65.1544 75.3786L65.2125 75.2529C65.4343 74.7854 65.7543 74.366 66.1526 74.0206C66.316 73.8855 66.4929 73.7659 66.6807 73.6635C66.8135 73.586 66.9552 73.5236 67.1032 73.4774C67.2237 73.4365 67.3503 73.4145 67.4782 73.412C67.6031 73.411 67.7269 73.4341 67.8422 73.4799C67.9575 73.5257 68.0618 73.5933 68.1489 73.6786L68.1806 73.7188C68.3268 73.8904 68.4379 74.0866 68.508 74.2973L68.7843 75.1178C68.8077 75.1873 68.817 75.2618 68.8436 75.3301C68.8523 75.3523 68.862 75.374 68.8707 75.3955C68.8795 75.4174 68.883 75.441 68.883 75.4646V75.4646C68.883 75.4876 68.8865 75.5105 68.8935 75.5325C68.9539 75.7226 69.0188 75.9125 69.0837 76.0979C69.7756 78.1903 70.515 80.4134 71.3758 82.6064C71.5818 83.1445 71.793 83.6777 72.0043 84.2058C72.6169 85.7147 73.182 87.108 73.7419 88.4056C73.7547 88.4364 73.7611 88.4692 73.7606 88.5022C73.7602 88.5353 73.7528 88.5679 73.7391 88.5983C73.7254 88.6287 73.7055 88.6562 73.6806 88.6792C73.6557 88.7023 73.6263 88.7204 73.594 88.7326C73.5524 88.7552 73.5041 88.764 73.4567 88.7577L-nan -nanL-nan -nanZ" fill="black" fill-opacity="0.44"/>
<path id="Vector_40" d="M63.7375 89.6731C63.6806 89.6723 63.6254 89.6544 63.5799 89.6218C63.5343 89.5893 63.5008 89.5439 63.484 89.492C63.1324 88.3792 62.9162 87.2316 62.8397 86.0718C62.7349 84.9053 62.9707 83.7338 63.521 82.6868L63.5633 82.6114C63.9919 82.0154 64.6406 81.5952 65.38 81.4344C65.4147 81.4255 65.4509 81.4232 65.4865 81.4276C65.5221 81.432 65.5565 81.443 65.5876 81.4601C65.6188 81.4771 65.6461 81.4998 65.668 81.5269C65.6899 81.554 65.706 81.585 65.7154 81.618C65.7248 81.651 65.7272 81.6855 65.7226 81.7194C65.718 81.7533 65.7064 81.7861 65.6885 81.8157C65.6706 81.8454 65.6467 81.8714 65.6183 81.8923C65.5898 81.9131 65.5573 81.9285 65.5226 81.9374C64.909 82.0656 64.3692 82.4107 64.0122 82.9031L63.9752 82.9635C63.4766 83.9249 63.2665 84.9988 63.3678 86.0668C63.4423 87.1878 63.6532 88.2967 63.9963 89.3713C64.0143 89.436 64.005 89.5048 63.9705 89.5631C63.9484 89.6003 63.9171 89.6313 63.8798 89.6538C63.8376 89.6792 63.7863 89.6798 63.7375 89.6731V89.6731Z" fill="black" fill-opacity="0.44"/>
<path id="Vector_41" d="M79.5489 119.877C79.5098 119.877 79.471 119.869 79.4355 119.853C79.3999 119.837 79.3683 119.815 79.343 119.786L66.8526 105.039L66.8209 104.994C64.7297 101.845 62.8323 98.5839 61.1381 95.226C60.7896 94.5067 60.5149 93.883 60.3037 93.3197C60.1065 92.8271 59.9425 92.3231 59.8125 91.8108C59.8099 91.7874 59.8099 91.7638 59.8125 91.7404C59.8125 91.6046 59.8125 91.4687 59.8442 91.3279V91.3279C59.8993 91.0831 59.9146 90.83 59.9666 90.5845C60.1532 89.7038 60.486 88.8561 60.9533 88.0737C61.4299 87.2229 62.1057 86.488 62.9285 85.926C62.9874 85.8901 63.0588 85.8778 63.1271 85.892C63.1954 85.9061 63.255 85.9455 63.2929 86.0014C63.3123 86.029 63.3257 86.06 63.3322 86.0925C63.3387 86.1251 63.3382 86.1586 63.3308 86.191C63.3234 86.2234 63.3093 86.2541 63.2891 86.2811C63.269 86.3082 63.2433 86.3311 63.2137 86.3485C62.4659 86.871 61.8506 87.5465 61.4128 88.3252C60.9043 89.1638 60.5623 90.0846 60.404 91.0412C60.3811 91.1559 60.3652 91.2718 60.3565 91.3883V91.3883C60.3208 91.6135 60.352 91.8428 60.4153 92.0619C60.5217 92.4296 60.6466 92.7923 60.7896 93.1487C60.9955 93.6969 61.2649 94.3105 61.6082 95.0147C63.2886 98.3379 65.1665 101.567 67.2328 104.687V104.687C67.2615 104.721 67.2842 104.759 67.3129 104.793L79.7443 119.469C79.7881 119.521 79.8088 119.587 79.8019 119.653C79.795 119.718 79.761 119.779 79.7074 119.821C79.6623 119.856 79.6067 119.875 79.5489 119.877Z" fill="black" fill-opacity="0.44"/>
<path id="Vector_42" d="M88.7748 104.369C90.8552 106.065 91.6885 108.946 90.2932 111.239C90.0606 111.621 89.8171 111.997 89.5627 112.367C87.8699 114.911 85.8305 117.522 84.0427 119.686C81.6639 122.566 76.3137 121.389 74.0216 118.44V118.44C71.5491 115.259 73.4708 111.87 76.2697 108.972C77.5656 107.63 78.7866 106.257 79.7183 105.134V105.134C81.8985 102.505 85.8285 101.968 88.4765 104.126L88.7748 104.369Z" fill="white"/>
<path id="Vector_43" d="M79.6458 124.987C79.6422 124.99 79.6375 124.992 79.6326 124.992C79.5691 124.99 79.5082 124.967 79.4607 124.927C75.7056 121.657 70.4824 114.062 70.4084 113.982C70.3884 113.954 70.3747 113.923 70.3684 113.89C70.362 113.857 70.363 113.823 70.3715 113.791C70.3869 113.725 70.4285 113.667 70.4876 113.63C73.1283 112.091 77.3164 107.594 79.5029 104.979C81.6894 102.363 83.3319 100.019 83.3478 99.9992C83.3687 99.9695 83.396 99.9443 83.4279 99.9252C83.4597 99.9062 83.4954 99.8937 83.5326 99.8885C83.5691 99.8835 83.6063 99.8859 83.6417 99.8954C83.6772 99.905 83.7102 99.9214 83.7386 99.9438L92.4211 107.016C92.4612 107.049 92.49 107.094 92.5041 107.143C92.5182 107.192 92.5169 107.244 92.5003 107.292C91.8077 109.121 90.8931 110.866 89.7752 112.493C85.8194 118.443 79.8937 124.836 79.8356 124.896C79.7899 124.945 79.7262 124.976 79.6578 124.981C79.6533 124.982 79.649 124.984 79.6458 124.987V124.987ZM70.9947 113.925C70.9947 113.926 70.9949 113.927 70.9956 113.928C71.2886 114.346 71.9915 115.34 72.9229 116.589C76.3329 121.159 82.7583 121.028 86.2421 116.513C87.3131 115.125 88.3797 113.668 89.3315 112.237C89.5648 111.897 89.789 111.552 90.004 111.202C91.3677 108.982 90.5734 106.179 88.5532 104.533L88.3074 104.333C85.7626 102.26 82.0178 102.767 79.9254 105.295V105.295C77.7713 107.875 73.6908 112.229 70.9973 113.92C70.9956 113.921 70.9947 113.923 70.9947 113.925V113.925Z" fill="black" fill-opacity="0.44"/>
<path id="Vector_44" opacity="0.1" d="M89.9807 105.359C91.3454 106.466 91.9 108.166 90.9718 109.658V109.658C89.6761 111.741 86.687 112.239 84.7978 110.675L81.8389 108.225C80.3257 106.971 80.9215 103.705 82.1058 102.138V102.138C83.3366 100.508 84.9068 101.244 86.4928 102.53L89.9807 105.359Z" fill="black"/>
<path id="Vector_45" d="M31.2863 74.4983C31.2282 73.7439 31.2123 72.8486 31.4764 72.5418C31.7605 72.2511 32.1037 72.0183 32.4851 71.8577C36.1029 70.0621 39.7259 68.2665 43.4651 66.6972C43.6526 66.6195 43.8678 66.5433 44.0721 66.5312C44.3675 66.5137 44.641 66.7283 44.7227 67.0127V67.0127C44.7634 67.1546 44.765 67.304 44.7273 67.4467C44.5462 68.3587 44.0848 69.1989 43.4017 69.8609C42.4767 70.8584 41.3757 71.6942 40.1484 72.3305C39.7286 72.5262 39.3228 72.748 38.9337 72.9945C38.4394 73.3721 37.98 73.7894 37.5605 74.2418C37.2276 74.5617 36.8748 74.8623 36.5042 75.1421" fill="white"/>
<path id="Vector_46" d="M-nan -nanL36.5072 75.3936C36.4673 75.3946 36.4278 75.3865 36.3919 75.3698C36.3561 75.3532 36.325 75.3286 36.3012 75.2981C36.2792 75.2725 36.2627 75.243 36.2529 75.2113C36.2431 75.1796 36.24 75.1463 36.244 75.1135C36.2479 75.0806 36.2587 75.0489 36.2758 75.0201C36.2929 74.9913 36.3159 74.9661 36.3435 74.946C36.7035 74.6727 37.0457 74.3788 37.3681 74.0658C37.4807 73.9585 37.5864 73.8529 37.6849 73.7489C38.0185 73.3982 38.3843 73.0767 38.7782 72.7882C39.0793 72.5904 39.3953 72.4139 39.7235 72.2601L40.0193 72.1092C41.2171 71.487 42.2899 70.668 43.1881 69.6899C43.6882 69.2166 44.0643 68.6415 44.2905 68.0113C44.4293 67.6245 44.6516 67.0785 44.3183 66.8381V66.8381C44.144 66.7123 43.7902 66.8381 43.5578 66.9286C39.8292 68.4928 36.1639 70.3186 32.5937 72.0841C32.244 72.2248 31.9291 72.4339 31.6695 72.6977C31.5797 72.8033 31.4424 73.2007 31.5374 74.4832C31.5399 74.5163 31.5354 74.5494 31.5244 74.5808C31.5134 74.6122 31.496 74.6412 31.4732 74.6662C31.4271 74.7167 31.3619 74.7477 31.2919 74.7523C31.2218 74.757 31.1527 74.735 31.0997 74.6911C31.0467 74.6473 31.0142 74.5852 31.0093 74.5185C30.9248 73.3465 31.0093 72.6876 31.2575 72.3808C31.5653 72.0648 31.9372 71.8115 32.3508 71.6364C35.7172 69.9646 39.1872 68.2434 42.7163 66.7354C43.1318 66.5579 43.5341 66.2957 43.9858 66.2834V66.2834C44.0192 66.2825 44.0525 66.2829 44.0857 66.2845C44.4704 66.3028 44.8384 66.5464 44.9573 66.9127V66.9127C45.0167 67.0957 45.024 67.2903 44.9785 67.4768C44.7967 68.4421 44.3104 69.3316 43.5842 70.0269C42.6391 71.043 41.5149 71.8941 40.2623 72.5418L39.9612 72.6927C39.2295 73.0213 38.581 73.4966 38.0599 74.0859C37.9543 74.1966 37.8434 74.3022 37.7378 74.4078C37.4045 74.7337 37.0518 75.041 36.6815 75.3282C36.6335 75.3692 36.5716 75.3924 36.5072 75.3936L-nan -nanL-nan -nanZ" fill="black" fill-opacity="0.44"/>
<path id="Vector_47" d="M34.4258 74.5336C34.6841 74.4106 34.9526 74.308 35.2285 74.2268C37.8692 73.4673 40.7476 73.6483 43.4147 72.9341C44.7614 72.572 46.0553 71.9785 47.4813 71.9885C47.9038 71.9885 48.4795 72.1545 48.4319 72.6575C48.3844 73.1605 48.02 73.3616 47.7401 73.6634C47.4323 74.0188 47.1006 74.3548 46.7472 74.6694C46.0104 75.2858 45.1693 75.779 44.2597 76.128C42.9225 76.568 41.5425 76.8797 40.1402 77.0585C38.7882 77.305 37.4995 77.7023 36.1739 78.0644C35.8465 78.155 35.5137 78.2355 35.1757 78.3008" fill="white"/>
<path id="Vector_48" d="M35.1878 78.571C35.1806 78.5654 35.1717 78.5625 35.1626 78.5619C35.1071 78.5583 35.0539 78.5384 35.0106 78.5047C34.9636 78.4682 34.9309 78.4177 34.9179 78.3613C34.9109 78.3289 34.9108 78.2956 34.9173 78.2631C34.9239 78.2307 34.9372 78.1998 34.9563 78.1723C34.9754 78.1447 35.0001 78.121 35.0288 78.1025C35.0576 78.084 35.0899 78.0711 35.1238 78.0645C35.4196 78.0092 35.7312 77.9338 36.1009 77.8332L36.9037 77.6118C37.9452 77.2978 39.0029 77.0342 40.0725 76.8222L40.9756 76.6663C42.0578 76.5239 43.1204 76.2692 44.1444 75.9068C45.0263 75.5675 45.8421 75.0898 46.558 74.4934C46.8111 74.2714 47.0476 74.0327 47.2657 73.7792L47.5298 73.4925C47.5826 73.4321 47.6459 73.3718 47.704 73.3165C47.93 73.1429 48.0881 72.9019 48.153 72.6324V72.6324C48.1694 72.4859 48.0334 72.3736 47.898 72.3155C47.762 72.2572 47.6121 72.2308 47.4611 72.2401C46.4809 72.2868 45.5155 72.4873 44.6039 72.8336C44.2289 72.9543 43.8486 73.075 43.4684 73.1756C42.1446 73.4938 40.7947 73.7041 39.4334 73.8043C38.0344 73.9016 36.6482 74.1239 35.2928 74.4683C35.029 74.5436 34.7727 74.6413 34.5271 74.76C34.4647 74.7898 34.3925 74.7949 34.3262 74.7742C34.2599 74.7535 34.2049 74.7086 34.1732 74.6493C34.143 74.589 34.1382 74.5199 34.1598 74.4563C34.1814 74.3927 34.2278 74.3394 34.2894 74.3073C34.5637 74.1793 34.848 74.0717 35.1397 73.9854C36.5226 73.6326 37.9371 73.4036 39.3648 73.3014C40.6972 73.2046 42.0187 73.001 43.3152 72.6928C43.6902 72.5922 44.0546 72.4765 44.4243 72.3558C45.3925 71.993 46.4166 71.784 47.4558 71.7371C47.8294 71.7223 48.1939 71.8489 48.4698 72.0892C48.5447 72.1683 48.6009 72.2617 48.6346 72.3632C48.6683 72.4648 48.6788 72.572 48.6653 72.6777C48.6034 73.0704 48.393 73.4282 48.0737 73.6836L47.91 73.8446L47.6565 74.1262C47.4216 74.3957 47.1693 74.651 46.9013 74.8908C46.1401 75.5266 45.2725 76.0366 44.3345 76.3997C43.2737 76.7717 42.1743 77.0347 41.0548 77.1843L40.1623 77.3402C39.106 77.5364 38.0497 77.8432 37.0251 78.1199L36.2224 78.3412C35.8499 78.4446 35.523 78.5191 35.2219 78.5789C35.2099 78.5812 35.1975 78.5784 35.1878 78.571V78.571Z" fill="black" fill-opacity="0.44"/>
<path id="Vector_49" d="M33.9199 78.0696C34.4577 77.6562 35.0856 77.3623 35.7578 77.2095C37.0314 77.0382 38.3238 77.0382 39.5974 77.2095C41.834 77.3797 44.0821 77.3612 46.3153 77.1542C46.6747 77.0887 47.0438 77.0887 47.4032 77.1542C49.4788 77.7125 46.6797 79.6338 45.898 79.9557C42.819 81.2282 39.1749 81.2886 35.8635 81.2132" fill="white"/>
<path id="Vector_50" d="M37.5154 81.5249C36.9873 81.5249 36.4116 81.5249 35.8676 81.5249C35.8329 81.5242 35.7987 81.517 35.767 81.5038C35.7352 81.4906 35.7065 81.4715 35.6824 81.4477C35.6584 81.4238 35.6395 81.3957 35.6269 81.365C35.6143 81.3342 35.6081 81.3014 35.6088 81.2683C35.6116 81.2021 35.6411 81.1394 35.6914 81.0934C35.7416 81.0475 35.8085 81.0218 35.8782 81.0219C39.2741 81.1024 42.8285 81.0219 45.7913 79.7846C46.4198 79.5281 47.9038 78.4416 47.9038 77.8582C47.9038 77.6872 47.7084 77.5514 47.3493 77.4558C47.028 77.3999 46.6988 77.3999 46.3775 77.4558C44.1217 77.6669 41.8506 77.6871 39.591 77.5162L39.0628 77.4759C37.9803 77.3297 36.8815 77.3297 35.799 77.4759C35.1682 77.6228 34.5788 77.8992 34.072 78.2857C34.0166 78.3263 33.9466 78.3443 33.8773 78.3358C33.808 78.3273 33.7451 78.293 33.7023 78.2404C33.6591 78.1883 33.6393 78.1221 33.6472 78.0561C33.6551 77.9902 33.6901 77.9299 33.7445 77.8884C34.3151 77.4519 34.981 77.1426 35.6933 76.983C36.8252 76.8197 37.9756 76.8095 39.1104 76.9528L39.6068 76.9931C41.8277 77.1608 44.0597 77.1422 46.2772 76.9377C46.672 76.8764 47.0755 76.8883 47.4655 76.973C48.2102 77.1741 48.3897 77.5463 48.4056 77.823C48.4795 78.8289 46.4303 80.0662 45.9867 80.2473C43.4252 81.3086 40.4571 81.5249 37.5154 81.5249Z" fill="black" fill-opacity="0.44"/>
<path id="Vector_51" d="M37.7773 81.4143C37.7773 81.4143 42.1714 86.947 38.9709 92.2232Z" fill="white"/>
<path id="Vector_52" d="M38.9729 92.4747C38.927 92.4749 38.8817 92.4645 38.8409 92.4445C38.7807 92.4099 38.7367 92.3546 38.718 92.29C38.6994 92.2255 38.7074 92.1565 38.7405 92.0975C41.8196 87.0124 37.6103 81.6205 37.5681 81.5702C37.5469 81.5438 37.5314 81.5137 37.5225 81.4816C37.5136 81.4494 37.5114 81.416 37.5161 81.383C37.5207 81.3501 37.5321 81.3184 37.5497 81.2897C37.5672 81.2609 37.5905 81.2358 37.6183 81.2156C37.646 81.1955 37.6776 81.1807 37.7114 81.1722C37.7451 81.1637 37.7802 81.1616 37.8148 81.1661C37.8494 81.1705 37.8827 81.1814 37.9129 81.1981C37.943 81.2148 37.9694 81.237 37.9906 81.2634C38.0328 81.3187 42.4533 86.9671 39.2 92.3288C39.1798 92.3706 39.1479 92.4063 39.1079 92.432C39.0678 92.4577 39.0212 92.4725 38.9729 92.4747Z" fill="black" fill-opacity="0.44"/>
<path id="Vector_53" d="M52.3188 101.714C53.5551 103.638 53.4777 106.104 51.5831 107.384C50.4924 108.121 49.028 108.925 47.1031 109.656C45.0697 110.392 42.9749 110.954 40.8433 111.338C38.413 111.776 36.2279 109.99 35.8629 107.548V107.548C35.3849 104.35 38.2708 101.255 41.3753 100.349C42.0696 100.147 42.8068 99.8944 43.5804 99.5816C43.6252 99.5633 43.67 99.5448 43.7147 99.5262C46.7765 98.2534 50.5259 98.925 52.3188 101.714V101.714Z" fill="white"/>
<path id="Vector_54" d="M36.5073 112.121C36.4438 112.121 36.3824 112.099 36.3347 112.06C36.2869 112.02 36.2563 111.964 36.2485 111.904L34.6324 101.091C34.6256 101.051 34.6288 101.011 34.6416 100.974C34.6545 100.936 34.6767 100.902 34.7064 100.874C34.7377 100.848 34.7747 100.828 34.8149 100.817V100.817C34.895 100.794 34.9779 100.814 35.0607 100.824C35.72 100.899 38.992 101.16 43.4787 99.3503C45.3892 98.5667 47.1986 97.576 48.871 96.3978C48.9011 96.377 48.9354 96.3623 48.9717 96.3545C49.008 96.3467 49.0456 96.3461 49.0822 96.3526C49.1536 96.3688 49.2158 96.4101 49.2565 96.4682L54.5695 104.742C54.5952 104.782 54.6087 104.828 54.6087 104.875C54.6087 104.922 54.5952 104.969 54.5695 105.009C54.4956 105.119 52.7263 107.79 47.202 109.888C43.7775 111.123 40.1816 111.876 36.5284 112.121H36.5073ZM41.1207 100.681C38.1777 101.493 35.6496 104.231 36.1007 107.251V107.251C36.4672 109.703 38.6695 111.492 41.1068 111.034C43.1198 110.656 45.0987 110.118 47.0225 109.425C48.7553 108.765 50.1107 108.043 51.1519 107.367C53.0802 106.115 53.2112 103.572 51.965 101.64V101.64C50.3148 99.0819 46.8843 98.4468 44.0835 99.6402C43.9458 99.6989 43.8076 99.7565 43.6688 99.813C42.7664 100.179 41.9139 100.463 41.1207 100.681Z" fill="black" fill-opacity="0.44"/>
<path id="Vector_55" opacity="0.1" d="M52.5111 102.022C53.6288 103.758 54.9392 104.452 53.4541 105.886V105.886C51.3262 107.94 46.2945 107.354 45.3169 104.562L44.5589 102.398C44.0092 100.828 44.8026 99.1156 46.2659 98.3248V98.3248C47.8295 97.4797 49.8305 97.8595 50.7928 99.3539L52.5111 102.022Z" fill="black"/>
<path id="Vector_56" d="M134.9 51.709C135.081 50.1077 137.07 48.4382 137.915 47.0663V47.0663C139.155 45.0547 140.242 39.6631 137.767 38.8597C137.589 38.802 137.12 38.6275 136.945 38.561V38.561C135.136 37.873 131.41 36.2427 130.869 34.3845L130.154 31.9269C130.096 31.7295 130.059 31.5277 130.031 31.3239C129.845 29.9392 128.826 24.3522 124.538 24.8903C122.794 25.1091 121.312 25.9041 120.127 26.8366C117.651 28.7848 114.89 30.7224 111.742 30.8419L105.993 31.0601C104.617 31.1123 103.508 32.2036 103.434 33.578L103.362 34.8914C103.282 36.3763 100.841 37.2232 100.349 38.6264V38.6264C100.234 38.9553 100.139 39.422 100.092 39.9779C99.5328 46.6279 105.693 52.7721 109.527 58.2338C110.522 59.6509 111.712 61.0304 113.123 62.2172C113.486 62.5221 113.943 62.6876 114.416 62.7139V62.7139C115.748 62.7879 116.75 63.9567 116.619 65.2843L116.309 68.443C116.209 69.458 116.374 70.4982 116.947 71.3415C117.579 72.2695 118.342 73.1126 119.218 73.8457C120.5 74.9192 121.997 75.7349 123.619 76.2438C127.251 77.3147 130.698 73.1439 132.569 70.2897C133.607 68.7074 134.03 66.8357 134.083 64.9443C134.172 61.6807 134.39 56.2199 134.9 51.709Z" fill="white"/>
<path id="Vector_57" d="M115.041 28.9498C111.929 30.3268 111.783 34.6838 115.142 35.2262V35.2262C116.135 35.3865 117.157 35.4307 118.162 35.3475C120.301 35.1704 123.079 36.7791 123.592 38.8627V38.8627V38.8627C124.508 41.9422 126.898 44.7844 127.163 47.986C127.189 48.2889 127.213 48.5925 127.236 48.897C127.379 50.6021 127.458 52.8101 126.751 54.3844C125.972 56.258 124.665 57.8906 122.974 59.1023C121.232 60.3346 119.806 60.7873 117.249 62.3867V62.3867C116.941 62.58 117.507 62.7557 117.868 62.7097C119.176 62.5431 120.444 62.1837 121.627 61.6482C123.193 60.9399 124.553 61.1781 125.26 62.7443C125.79 63.918 126.416 65.4165 126.978 67.0528C127.828 69.53 131.707 70.6294 133.372 68.608V68.608C133.802 68.086 134.03 67.4321 134.024 66.7557C134.002 64.5499 134.007 59.236 134.45 54.6307C134.811 50.8814 138.473 47.4382 139.019 43.7114V43.7114V43.7114C139.612 39.6698 135.343 36.5325 132.799 33.3369C129.526 29.2258 125.122 24.2471 123.566 25.0561C122.327 25.7002 118.597 27.3757 115.041 28.9498Z" fill="#494949" fill-opacity="0.63"/>
<path id="Vector_58" opacity="0.5" d="M115.041 28.9498C111.929 30.3268 111.783 34.6838 115.142 35.2262V35.2262C116.135 35.3865 117.157 35.4307 118.162 35.3475C120.301 35.1704 123.079 36.7791 123.592 38.8627V38.8627V38.8627C124.508 41.9422 126.898 44.7844 127.163 47.986C127.189 48.2889 127.213 48.5925 127.236 48.897C127.379 50.6021 127.458 52.8101 126.751 54.3844C125.972 56.258 124.665 57.8906 122.974 59.1023C121.232 60.3346 119.806 60.7873 117.249 62.3867V62.3867C116.941 62.58 117.507 62.7557 117.868 62.7097C119.176 62.5431 120.444 62.1837 121.627 61.6482C123.193 60.9399 124.553 61.1781 125.26 62.7443C125.79 63.918 126.416 65.4165 126.978 67.0528C127.828 69.53 131.707 70.6294 133.372 68.608V68.608C133.802 68.086 134.03 67.4321 134.024 66.7557C134.002 64.5499 134.007 59.236 134.45 54.6307C134.811 50.8814 138.473 47.4382 139.019 43.7114V43.7114V43.7114C139.612 39.6698 135.343 36.5325 132.799 33.3369C129.526 29.2258 125.122 24.2471 123.566 25.0561C122.327 25.7002 118.597 27.3757 115.041 28.9498Z" fill="white"/>
<path id="Vector_59" d="M104.717 48.2613C104.699 48.2602 104.681 48.2583 104.663 48.2583V48.2583C104.639 48.2583 104.614 48.2556 104.591 48.2503C102.144 47.6929 100.457 45.9267 99.8731 43.2638C99.3133 40.8143 99.815 38.1435 100.597 37.5651C100.729 37.4642 100.884 37.3921 101.049 37.3538C101.214 37.3156 101.386 37.3122 101.553 37.3438C102.73 37.5349 103.887 39.2199 103.934 39.2903C103.973 39.3463 103.987 39.4146 103.972 39.4802C103.958 39.5457 103.917 39.6032 103.858 39.6399C103.829 39.658 103.796 39.6706 103.762 39.6767C103.728 39.6829 103.693 39.6826 103.659 39.6758C103.59 39.6621 103.529 39.623 103.491 39.5669C103.195 39.1293 102.25 37.9675 101.463 37.8367C101.37 37.8213 101.276 37.8246 101.185 37.8463C101.094 37.8679 101.009 37.9075 100.935 37.9625C100.407 38.3447 99.8467 40.7439 100.407 43.1582C100.808 44.9085 101.891 47.1266 104.79 47.7704C104.858 47.786 104.917 47.8264 104.953 47.8829C104.99 47.9395 105.001 48.0075 104.985 48.0722C104.97 48.1332 104.931 48.1865 104.876 48.2211C104.829 48.2509 104.773 48.2649 104.717 48.2613Z" fill="black" fill-opacity="0.44"/>
<path id="Vector_60" d="M140.435 77.5712C140.433 77.5799 140.433 77.5861 140.434 77.5949V77.5949C140.434 77.6157 140.426 77.6357 140.413 77.652C139.261 79.1027 137.987 80.4619 136.604 81.7161L-nan -nanL-nan -nanL136.604 81.7161C136.393 81.9122 136.171 82.1034 135.954 82.2895C133.042 84.8448 129.791 87.0261 126.284 88.7778V88.7778C126.246 88.7998 126.197 88.7769 126.189 88.7332L124.647 79.9023C124.18 77.2237 125.507 74.5929 127.686 72.9666C129.511 71.6043 131.183 70.058 132.669 68.3521L132.838 68.1811C133.203 67.7988 133.826 67.2556 134.016 66.9739V66.9739C134.152 66.774 134.397 65.769 134.345 65.5331L134.122 64.5245L133.955 63.7959C133.932 63.6961 134.033 63.613 134.127 63.6546V63.6546C134.134 63.6578 134.141 63.6616 134.147 63.666C140.422 68.0103 140.574 76.7322 140.435 77.5712Z" fill="white"/>
<path id="Vector_61" d="M-nan -nanL126.196 89.0846C126.155 89.0839 126.115 89.0736 126.079 89.0544C126.042 89.0376 126.009 89.0123 125.984 88.9807C125.96 88.9492 125.943 88.9123 125.937 88.8733L123.592 75.4741C123.587 75.4351 123.591 75.3956 123.604 75.3582C123.617 75.3209 123.638 75.2867 123.666 75.2578V75.2578C123.744 75.1936 123.841 75.1547 123.926 75.0993C126.895 73.1704 129.654 70.964 132.163 68.513L132.755 67.9094C133.539 67.1518 134.272 66.3489 134.952 65.5052C134.972 65.4781 134.998 65.4551 135.027 65.4374C135.057 65.4197 135.089 65.4077 135.124 65.4021C135.158 65.3965 135.193 65.3974 135.227 65.4047C135.261 65.412 135.293 65.4257 135.322 65.4448C135.35 65.464 135.374 65.4883 135.393 65.5163C135.411 65.5444 135.424 65.5757 135.43 65.6084C135.436 65.6411 135.435 65.6745 135.427 65.7069C135.42 65.7392 135.405 65.7698 135.385 65.7969C134.69 66.6579 133.941 67.4776 133.141 68.2514L132.549 68.855C130.966 70.4003 129.285 71.8498 127.516 73.1957C125.528 74.7084 124.425 77.1621 124.855 79.6232V79.6232C125.6 83.894 130.37 86.1023 133.87 83.5437C134.512 83.0741 135.148 82.5956 135.776 82.1083C135.998 81.9373 136.214 81.7562 136.426 81.5802C136.846 81.2302 137.235 80.8908 137.594 80.5623C139.562 78.7583 140.318 76.1407 139.693 73.5451C138.971 70.5468 137.381 66.5417 134.197 63.9359C134.17 63.9144 134.149 63.8882 134.133 63.8588C134.117 63.8294 134.108 63.7973 134.105 63.7643C134.102 63.7314 134.107 63.6983 134.117 63.6669C134.128 63.6355 134.145 63.6064 134.168 63.5813C134.19 63.5562 134.218 63.5356 134.249 63.5206C134.28 63.5056 134.313 63.4966 134.348 63.494C134.382 63.4915 134.417 63.4954 134.45 63.5056C134.483 63.5159 134.514 63.5322 134.54 63.5537C140.145 68.1217 140.921 76.618 140.697 77.6187C140.694 77.633 140.693 77.6385 140.693 77.6531V77.6531C140.693 77.6815 140.686 77.7151 140.672 77.7401C140.016 78.9439 138.719 80.3496 136.795 81.9524C136.584 82.1335 136.357 82.3145 136.135 82.4906C133.063 84.871 129.821 87.0457 126.433 88.9991C126.407 89.0171 126.379 89.0326 126.349 89.045C126.342 89.048 126.335 89.0514 126.328 89.055C126.288 89.0767 126.242 89.087 126.196 89.0846L-nan -nanL-nan -nanZ" fill="black" fill-opacity="0.44"/>
<path id="Vector_62" d="M118.18 72.211C120.17 74.8834 122.435 78.4973 121.034 81.5204V81.5204C119.48 84.8746 115.022 85.3102 113.38 81.9981C112.184 79.5842 111.148 76.8215 110.934 74.2106C110.899 73.7783 110.951 73.3435 111.064 72.9249C111.778 70.3028 112.624 68.5227 114.786 66.85C115.601 66.2192 116.678 66.966 116.505 67.9821V67.9821C116.486 68.0974 116.482 68.2132 116.502 68.3285C116.595 68.8685 116.971 70.5872 118.18 72.211Z" fill="white"/>
<path id="Vector_63" d="M117.665 89.0796C117.647 89.083 117.629 89.0851 117.612 89.0834C117.578 89.0801 117.545 89.0706 117.516 89.0553C117.478 89.036 117.446 89.0081 117.422 88.974C117.364 88.8935 111.364 80.4788 110.641 73.5629C110.635 73.5397 110.635 73.5157 110.641 73.4925C111.982 66.5917 116.487 65.4449 116.677 65.4047C116.746 65.3894 116.818 65.4004 116.878 65.4351C116.938 65.4699 116.982 65.5258 116.999 65.5908C117.008 65.6225 117.01 65.6555 117.005 65.688C117 65.7204 116.989 65.7516 116.971 65.7797C116.953 65.8078 116.93 65.8322 116.902 65.8516V65.8516C116.846 65.8904 116.778 65.8984 116.713 65.9183C116.114 66.1024 112.878 67.3554 111.468 72.2961C111.235 73.1157 111.2 73.9811 111.36 74.8182C111.684 76.5078 112.275 78.2516 112.973 79.9083C114.617 83.8058 119.858 83.4347 121.638 79.5976V79.5976C122.735 77.2323 121.961 74.4571 120.091 72.6409C118.469 71.0666 117.031 69.3235 115.806 67.4417C115.787 67.4136 115.775 67.3824 115.769 67.3498C115.764 67.3171 115.765 67.2837 115.772 67.2515C115.78 67.2192 115.795 67.1888 115.815 67.1619C115.835 67.135 115.861 67.1121 115.89 67.0947C115.95 67.0605 116.022 67.0498 116.09 67.0648C116.158 67.0798 116.217 67.1194 116.255 67.1751C118.279 70.301 120.908 73.032 124.003 75.2227C124.054 75.2563 124.091 75.3056 124.108 75.3625C124.126 75.4193 124.122 75.4801 124.098 75.5345L117.881 88.9287C117.863 88.97 117.833 89.0058 117.795 89.0323C117.757 89.0588 117.712 89.0752 117.665 89.0796V89.0796Z" fill="black" fill-opacity="0.44"/>
<path id="Vector_64" opacity="0.12" d="M140.435 77.5106C140.434 77.5194 140.433 77.5257 140.433 77.5347V77.5347C140.433 77.5589 140.427 77.5825 140.416 77.6038C139.732 78.8559 138.324 80.2821 136.646 81.6802C136.633 81.6904 136.615 81.6818 136.615 81.6658V81.6658C136.064 77.12 134.279 72.7021 133.214 70.3773C132.744 69.3532 132.895 68.131 133.651 67.2958L134.156 66.7383C134.336 66.5391 134.424 66.2733 134.399 66.0059V66.0059C134.316 65.1439 135.293 64.6702 135.845 65.338C139.841 70.178 140.553 76.7674 140.435 77.5106Z" fill="black"/>
<path id="Vector_65" d="M-nan -nanL116.553 68.2716H116.487C116.482 68.2716 116.476 68.2709 116.471 68.2693C116.407 68.2505 116.353 68.2095 116.32 68.1544C116.286 68.0969 116.276 68.0288 116.294 67.9648C116.718 66.2998 116.827 64.5762 116.616 62.8747C116.607 62.8087 116.626 62.742 116.669 62.6892C116.711 62.6364 116.774 62.6018 116.843 62.593C116.913 62.5845 116.983 62.6024 117.038 62.643C117.093 62.6835 117.13 62.7433 117.139 62.8093C117.364 64.5761 117.252 66.3671 116.806 68.0956C116.789 68.1469 116.756 68.1916 116.71 68.2233C116.664 68.255 116.609 68.2719 116.553 68.2716L-nan -nanL-nan -nanZ" fill="black" fill-opacity="0.44"/>
<path id="Vector_66" d="M134.265 66.9689C134.197 66.969 134.132 66.9446 134.083 66.9006C134.034 66.8567 134.005 66.7965 134.001 66.7325C133.414 55.1289 135.321 48.4394 135.342 48.374C135.363 48.3105 135.408 48.2569 135.469 48.2242C135.53 48.1915 135.602 48.1821 135.67 48.1979C135.737 48.2166 135.793 48.26 135.827 48.3184V48.3184C135.893 48.4323 135.834 48.5744 135.802 48.7018C135.512 49.8675 134.002 56.2804 134.523 66.7073C134.526 66.7401 134.521 66.773 134.509 66.804C134.498 66.835 134.48 66.8635 134.457 66.8879C134.434 66.9122 134.406 66.932 134.375 66.9459C134.344 66.9598 134.31 66.9676 134.275 66.9689H134.265Z" fill="black" fill-opacity="0.44"/>
<path id="Vector_67" d="M-nan -nanL114.349 49.9332C114.03 49.926 113.713 49.8838 113.404 49.8075C112.533 49.6113 111.487 49.2743 111.128 48.379C111.019 48.018 111.005 47.6369 111.087 47.2695C111.169 46.902 111.344 46.5593 111.598 46.2716C111.783 46.0251 111.989 45.7988 112.189 45.5775C112.449 45.3144 112.684 45.03 112.892 44.7275C113.731 43.4298 113.494 41.78 113.15 40.0649C113.138 39.9989 113.153 39.931 113.193 39.8755C113.232 39.8201 113.293 39.7815 113.362 39.7681C113.43 39.7564 113.501 39.7709 113.558 39.8086C113.616 39.8463 113.655 39.9041 113.668 39.9693C114.017 41.7146 114.281 43.5404 113.341 44.9991C113.118 45.3255 112.867 45.6334 112.591 45.9195C112.39 46.1276 112.201 46.3459 112.026 46.5734C111.832 46.7984 111.695 47.0628 111.625 47.3462V47.3462C111.487 47.9089 111.705 48.5372 112.196 48.8446C112.581 49.0857 113.079 49.2251 113.525 49.3246C113.962 49.4779 114.44 49.4792 114.876 49.3303C114.941 49.3081 115.001 49.2705 115.069 49.2597V49.2597C115.103 49.2543 115.138 49.2553 115.172 49.2628C115.206 49.2703 115.238 49.284 115.266 49.3033C115.295 49.3225 115.319 49.3468 115.337 49.3749C115.355 49.403 115.368 49.4342 115.373 49.4669C115.379 49.4995 115.378 49.5329 115.37 49.5651C115.362 49.5973 115.348 49.6278 115.328 49.6547C115.307 49.6816 115.282 49.7045 115.252 49.722C114.978 49.8704 114.665 49.9435 114.349 49.9332L-nan -nanL-nan -nanZ" fill="black" fill-opacity="0.44"/>
<path id="Vector_68" d="M110.927 40.9451C110.975 41.8857 110.579 42.6653 110.045 42.6854C109.512 42.7055 109.047 41.9662 108.989 41.0256C108.931 40.085 109.338 39.3054 109.871 39.2803C110.404 39.2551 110.885 40.0046 110.927 40.9451Z" fill="black" fill-opacity="0.44"/>
<path id="Vector_69" d="M121.787 40.6987C121.834 41.6392 121.438 42.4188 120.905 42.4389C120.371 42.4591 119.906 41.7197 119.848 40.7791C119.79 39.8386 120.197 39.059 120.73 39.0338C121.264 39.0087 121.744 39.7581 121.787 40.6987Z" fill="black" fill-opacity="0.44"/>
<path id="Vector_70" d="M-nan -nanL116.832 53.6451C115.891 53.6647 114.957 53.4894 114.095 53.1317C114.032 53.1057 113.966 53.0773 113.928 53.0213V53.0213C113.909 52.9935 113.896 52.9623 113.889 52.9295C113.883 52.8967 113.883 52.8631 113.891 52.8305C113.898 52.798 113.912 52.7671 113.932 52.7398C113.951 52.7123 113.976 52.6888 114.005 52.6706C114.034 52.6525 114.066 52.6399 114.1 52.6338C114.134 52.6278 114.169 52.6282 114.203 52.6352V52.6352C114.269 52.6489 114.329 52.687 114.393 52.7106C115.58 53.1488 116.875 53.257 118.126 53.0214C118.867 52.8749 119.568 52.585 120.187 52.1697C120.806 51.7544 121.328 51.2226 121.722 50.6072C121.762 50.5519 121.822 50.5133 121.891 50.4992C121.96 50.4852 122.032 50.4968 122.092 50.5317C122.15 50.5695 122.19 50.6276 122.204 50.6934C122.218 50.7592 122.204 50.8276 122.166 50.8838C121.733 51.558 121.159 52.1397 120.479 52.5924C119.8 53.0451 119.029 53.359 118.215 53.5144C117.76 53.6035 117.296 53.6473 116.832 53.6451L-nan -nanL-nan -nanZ" fill="black" fill-opacity="0.44"/>
<path id="Vector_71" d="M-nan -nanL117.021 35.6689C116.98 35.6685 116.94 35.6593 116.903 35.6418C116.866 35.6244 116.835 35.5993 116.81 35.5683C116.768 35.5149 116.75 35.4479 116.759 35.3818C116.769 35.3158 116.806 35.2562 116.862 35.2162C119.17 33.6017 120.75 33.5413 123.126 34.9698C123.185 35.0059 123.226 35.0623 123.242 35.127C123.258 35.1918 123.247 35.2598 123.211 35.3168C123.173 35.3728 123.113 35.4121 123.045 35.4263C122.977 35.4404 122.905 35.4282 122.846 35.3923C120.644 34.0695 119.318 34.1248 117.179 35.6186C117.134 35.6516 117.078 35.6693 117.021 35.6689L-nan -nanL-nan -nanZ" fill="black" fill-opacity="0.44"/>
<path id="Vector_72" d="M107.303 36.5692C107.24 36.5689 107.178 36.5476 107.129 36.5088C107.102 36.488 107.08 36.4622 107.064 36.433C107.048 36.4039 107.038 36.372 107.035 36.3392C107.032 36.3063 107.036 36.2733 107.047 36.2419C107.058 36.2106 107.075 36.1816 107.097 36.1567C107.698 35.5164 108.519 35.1023 109.413 34.9897C110.306 34.8771 111.212 35.0735 111.967 35.5431C112.023 35.5824 112.062 35.6412 112.073 35.7069C112.085 35.7726 112.07 35.8402 112.03 35.8952C111.99 35.9487 111.929 35.985 111.861 35.9963C111.793 36.0076 111.723 35.9929 111.666 35.9556C111.023 35.5523 110.25 35.3813 109.487 35.4735C108.764 35.561 108.094 35.8793 107.587 36.3748C107.531 36.4295 107.486 36.4987 107.417 36.5365V36.5365C107.383 36.5557 107.344 36.5669 107.303 36.5692Z" fill="black" fill-opacity="0.44"/>
<path id="Vector_73" d="M-nan -nanL115.276 62.9954C114.735 63.0024 114.195 62.9722 113.66 62.9049C113.616 62.8997 113.574 62.8842 113.538 62.8596C113.395 62.749 109.973 60.2039 107.237 54.9177C102.579 45.9295 103.472 32.9378 103.482 32.7869C103.487 32.7202 103.52 32.6581 103.573 32.6142C103.626 32.5703 103.695 32.5483 103.765 32.553C103.835 32.5577 103.9 32.5886 103.946 32.6391C103.992 32.6896 104.015 32.7554 104.01 32.8221C104.01 32.9528 103.118 45.8088 107.707 54.6763C108.356 55.9768 109.123 57.216 109.999 58.3802C112.17 61.2653 115.803 62.84 119.316 62.0046V62.0046C122.733 61.2149 125.97 58.6648 128.093 56.668C128.118 56.6446 128.146 56.626 128.178 56.6133C128.21 56.6006 128.244 56.5941 128.278 56.5941C128.313 56.5941 128.347 56.6006 128.379 56.6133C128.41 56.626 128.439 56.6446 128.463 56.668C128.488 56.6906 128.509 56.7179 128.522 56.7482C128.536 56.7784 128.543 56.8111 128.543 56.8441C128.543 56.8771 128.536 56.9097 128.522 56.94C128.509 56.9703 128.488 56.9975 128.463 57.0201C126.298 59.0622 122.976 61.6676 119.443 62.4925C118.079 62.8153 116.681 62.9841 115.276 62.9954L-nan -nanL-nan -nanZ" fill="black" fill-opacity="0.44"/>
<path id="Vector_74" d="M-nan -nanL128.276 57.1207C128.23 57.1209 128.185 57.1105 128.144 57.0905C128.084 57.0568 128.04 57.0024 128.022 56.9387C128.003 56.8749 128.011 56.8068 128.044 56.7485C130.268 52.952 131.001 50.321 131.187 49.6056C131.22 49.4773 131.239 49.3187 131.35 49.2455V49.2455C131.408 49.2068 131.48 49.1919 131.55 49.2039C131.621 49.2159 131.683 49.2539 131.723 49.3095C131.764 49.3652 131.78 49.4339 131.767 49.5006C131.741 49.6163 131.17 52.4531 128.508 56.9899C128.486 57.0299 128.453 57.0633 128.412 57.0864C128.371 57.1095 128.324 57.1213 128.276 57.1207L-nan -nanL-nan -nanZ" fill="black" fill-opacity="0.44"/>
<path id="Vector_75" d="M-nan -nanL135.3 48.7059C133.8 48.7059 133.288 47.8458 133.261 47.8006C133.228 47.7419 133.22 47.6729 133.24 47.6087C133.26 47.5446 133.305 47.4906 133.367 47.4585C133.429 47.4265 133.501 47.4191 133.568 47.438V47.438C133.697 47.474 133.755 47.6254 133.85 47.7189C134.114 47.9776 134.832 48.4219 136.319 48.0621C137.544 47.7704 138.986 44.5765 139.028 42.0616C139.028 41.0959 138.854 39.411 137.444 39.0438C134.17 38.1636 132.448 42.7507 132.432 42.796C132.408 42.8588 132.359 42.9102 132.296 42.9393C132.233 42.9684 132.161 42.9729 132.094 42.9519C132.028 42.9292 131.975 42.8825 131.945 42.8222V42.8222C131.887 42.7048 131.955 42.5688 132.004 42.4478C132.376 41.5481 134.249 37.665 137.587 38.5559C138.896 38.908 139.604 40.1604 139.578 42.0767C139.536 44.667 138.094 48.1677 136.467 48.555C136.086 48.6527 135.694 48.7034 135.3 48.7059L-nan -nanL-nan -nanZ" fill="black" fill-opacity="0.44"/>
<path id="Vector_76" d="M132.922 41.6895C132.521 42.4993 130.958 41.7851 130.382 41.0759C130.097 40.713 129.942 40.2718 129.942 39.8185V39.8185C129.942 39.1735 129.691 38.3789 129.097 38.1262C128.31 37.791 127.605 37.3184 127.261 36.5994C127.037 36.0404 126.959 35.4381 127.034 34.8441C127.144 33.2295 127.562 31.62 127.387 30.0105V30.0105C127.068 27.0612 123.513 28.1998 121.232 30.0966C119.64 31.42 117.477 32.6936 114.762 33.1228C110.232 33.8391 104.062 34.9423 101.105 31.4362C100.931 31.2303 100.768 30.999 100.616 30.7398C98.9643 27.9111 100.195 24.963 103.489 22.5926C104.356 21.9681 103.776 19.4239 103.838 18.3566V18.3566C103.904 17.2267 107.244 16.581 111.343 16.5326C115.422 16.4844 123.436 14.4629 127.488 14.9314V14.9314C133.032 15.5723 136.049 16.7851 137.735 19.1832C139.444 21.6144 141.422 24.4231 141.806 27.3699C142.023 29.0361 141.735 30.9651 141.256 32.791C140.33 36.3258 134.534 38.4104 132.922 41.6895V41.6895Z" fill="black" fill-opacity="0.44"/>
<path id="Vector_77" d="M103.527 31.5235C103.212 31.2159 102.692 31.2832 102.507 31.6827C102.128 32.5015 101.893 33.3759 101.812 34.2712C101.708 35.4183 101.86 36.573 102.258 37.6595C102.28 37.7205 102.311 37.7784 102.347 37.8323V37.8323C102.822 38.537 103.923 38.1819 103.897 37.3323L103.732 31.99C103.727 31.8139 103.653 31.6467 103.527 31.5235V31.5235Z" fill="black" fill-opacity="0.44"/>
<path id="Vector_78" d="M138.937 24.5639C138.886 24.5777 138.831 24.5828 138.779 24.5733V24.5733C138.713 24.5526 138.657 24.5076 138.626 24.4482C138.594 24.3888 138.588 24.3198 138.61 24.2564C140.849 17.7178 136.07 14.6999 135.864 14.5541C135.806 14.5163 135.765 14.4582 135.751 14.3924C135.738 14.3266 135.751 14.2582 135.79 14.202C135.829 14.1469 135.889 14.1085 135.957 14.0954C136.025 14.0822 136.096 14.0952 136.154 14.1316C136.207 14.1618 141.478 17.5216 139.112 24.4124C139.092 24.4608 139.057 24.5023 139.012 24.5312C138.989 24.5458 138.964 24.5568 138.937 24.5639Z" fill="black" fill-opacity="0.44"/>
<path id="Vector_79" d="M-nan -nanL105.856 29.6433C104.273 29.6832 102.722 29.2156 101.451 28.3155C101.419 28.2975 101.39 28.273 101.368 28.2437C101.346 28.2144 101.331 28.1809 101.324 28.1456C101.317 28.1103 101.318 28.0739 101.327 28.0389C101.335 28.0039 101.352 27.9711 101.375 27.9428C101.399 27.9144 101.428 27.8912 101.462 27.8746C101.495 27.858 101.532 27.8484 101.57 27.8465C101.608 27.8447 101.645 27.8506 101.68 27.8638C101.716 27.877 101.747 27.8972 101.774 27.9232C103.411 29.1404 105.877 29.4673 108.381 28.7983C110.546 28.2149 112.511 27.0228 114.407 25.871L114.66 25.7151C116.773 24.4325 118.885 23.2405 121.188 22.7627C122.603 22.4784 124.063 22.4655 125.483 22.7246C126.903 22.9836 128.254 23.5095 129.458 24.2716C130.636 25.016 131.259 25.8509 131.302 26.7462C131.303 26.7792 131.298 26.8122 131.286 26.8432C131.274 26.8743 131.255 26.9027 131.232 26.927C131.208 26.9513 131.18 26.971 131.148 26.9848C131.117 26.9987 131.083 27.0065 131.048 27.0078C131.013 27.0113 130.978 27.0078 130.945 26.9975C130.912 26.9872 130.881 26.9704 130.855 26.9481C130.829 26.9258 130.809 26.8985 130.795 26.868C130.78 26.8376 130.773 26.8046 130.773 26.7714C130.736 26.042 130.198 25.3429 129.189 24.689C126.865 23.2464 124.036 22.7382 121.32 23.2757C119.081 23.7334 117.095 24.855 114.982 26.1577L114.729 26.3137C112.796 27.4856 110.799 28.6977 108.56 29.3013C107.68 29.5338 106.77 29.6489 105.856 29.6433L-nan -nanL-nan -nanZ" fill="white"/>
<path id="Vector_80" d="M133.226 23.849C133.168 23.8487 133.112 23.8303 133.066 23.7967C133.02 23.7631 132.987 23.7161 132.972 23.6629C132.647 22.7365 132.099 21.8953 131.372 21.2063C130.645 20.5174 129.759 19.9996 128.784 19.6945C126.962 19.0758 124.765 18.9953 122.066 19.448C121.01 19.624 119.954 19.8655 118.94 20.0968C117.752 20.3634 116.521 20.6451 115.285 20.8261C113.447 21.1028 110.976 21.0927 109.682 19.4933C109.658 19.4674 109.64 19.4373 109.629 19.4046C109.618 19.3719 109.614 19.3374 109.617 19.3032C109.621 19.2691 109.632 19.2359 109.649 19.2059C109.667 19.1758 109.69 19.1495 109.719 19.1285C109.747 19.1076 109.78 19.0924 109.815 19.0839C109.85 19.0754 109.886 19.0738 109.922 19.0793C109.958 19.0847 109.992 19.097 110.022 19.1154C110.052 19.1339 110.079 19.158 110.099 19.1865C111.234 20.5897 113.505 20.5847 115.206 20.3282C116.415 20.1471 117.641 19.8705 118.818 19.6039C119.848 19.3726 120.931 19.1311 121.987 18.9551C124.781 18.4823 127.063 18.5728 128.969 19.2217C130.024 19.5529 130.982 20.1149 131.767 20.8626C132.552 21.6103 133.142 22.5229 133.49 23.5271C133.5 23.5591 133.502 23.5927 133.498 23.6258C133.494 23.6589 133.483 23.6908 133.466 23.7198C133.449 23.7489 133.426 23.7743 133.398 23.7948C133.371 23.8152 133.339 23.8302 133.305 23.839L133.226 23.849Z" fill="white"/>
</g>
</g>
<g id="progess-bar">
<g id="progress-bar">
<path id="Vector_81" d="M193.449 173.639H14.7597C14.2797 173.638 13.8198 173.456 13.4804 173.133C13.1409 172.809 12.9496 172.371 12.9482 171.914C12.9482 171.457 13.1391 171.018 13.4788 170.694C13.8185 170.371 14.2793 170.189 14.7597 170.189H193.449C193.93 170.189 194.39 170.371 194.73 170.694C195.07 171.018 195.261 171.457 195.261 171.914L-nan -nanL-nan -nanL195.261 171.914C195.259 172.371 195.068 172.809 194.729 173.133C194.389 173.456 193.929 173.638 193.449 173.639Z" fill="#0C0C0C"/>
<path id="Vector_82" d="M192.454 172.165H15.0004C14.9304 172.165 14.8632 172.139 14.8137 172.092C14.7641 172.045 14.7363 171.981 14.7363 171.914C14.7363 171.847 14.7641 171.784 14.8137 171.736C14.8632 171.689 14.9304 171.663 15.0004 171.663H192.454C192.524 171.663 192.591 171.689 192.641 171.736C192.69 171.784 192.718 171.847 192.718 171.914C192.718 171.981 192.69 172.045 192.641 172.092C192.591 172.139 192.524 172.165 192.454 172.165Z" fill="white"/>
<path id="Vector_83" d="M30.4492 175.607C33.0182 172.959 32.8463 168.828 30.0652 166.382C27.2842 163.935 22.9471 164.099 20.3781 166.747C17.8091 169.396 17.9811 173.526 20.7621 175.973C23.5432 178.419 27.8802 178.256 30.4492 175.607Z" fill="white"/>
<path id="Vector_84" d="M25.4171 177.955C24.0091 177.955 22.6326 177.557 21.4619 176.812C20.2911 176.067 19.3786 175.009 18.8398 173.77C18.3009 172.531 18.16 171.167 18.4346 169.852C18.7093 168.537 19.3874 167.329 20.383 166.381C21.3787 165.433 22.6472 164.787 24.0282 164.525C25.4092 164.264 26.8407 164.398 28.1415 164.911C29.4424 165.424 30.5543 166.293 31.3366 167.408C32.1189 168.523 32.5364 169.834 32.5364 171.175C32.535 172.973 31.7845 174.697 30.4497 175.968C29.1148 177.239 27.3048 177.954 25.4171 177.955ZM25.4171 164.878C24.1135 164.878 22.8392 165.246 21.7553 165.936C20.6714 166.625 19.8266 167.606 19.3277 168.753C18.8288 169.9 18.6983 171.162 18.9526 172.379C19.207 173.597 19.8347 174.716 20.7565 175.593C21.6783 176.471 22.8527 177.069 24.1313 177.311C25.4098 177.554 26.7351 177.429 27.9394 176.954C29.1438 176.479 30.1732 175.674 30.8974 174.642C31.6217 173.61 32.0083 172.396 32.0083 171.155C31.9999 169.494 31.3021 167.904 30.0672 166.732C28.8324 165.56 27.1607 164.901 25.4171 164.898V164.878Z" fill="#0C0C0C"/>
<path id="Vector_85" d="M29.039 171.175C29.039 171.857 28.8265 172.525 28.4284 173.092C28.0303 173.659 27.4645 174.102 26.8024 174.363C26.1404 174.624 25.412 174.692 24.7092 174.559C24.0064 174.426 23.3608 174.097 22.8541 173.615C22.3474 173.132 22.0024 172.517 21.8626 171.848C21.7228 171.179 21.7945 170.485 22.0688 169.855C22.343 169.224 22.8073 168.685 23.4031 168.306C23.9989 167.927 24.6994 167.725 25.416 167.725C26.3769 167.725 27.2984 168.088 27.9778 168.735C28.6573 169.382 29.039 170.26 29.039 171.175Z" fill="#494949" fill-opacity="0.68"/>
<path id="Vector_86" d="M25.4164 174.862C24.6476 174.862 23.8961 174.645 23.2568 174.238C22.6176 173.831 22.1194 173.253 21.8252 172.576C21.531 171.9 21.454 171.156 21.604 170.438C21.754 169.719 22.1242 169.06 22.6678 168.542C23.2114 168.024 23.904 167.672 24.658 167.529C25.4121 167.386 26.1936 167.459 26.9039 167.74C27.6142 168.02 28.2212 168.494 28.6484 169.103C29.0755 169.712 29.3035 170.428 29.3035 171.16C29.3021 172.141 28.8921 173.082 28.1634 173.776C27.4347 174.47 26.4469 174.86 25.4164 174.862ZM25.4164 167.968C25.4164 167.964 25.413 167.961 25.4088 167.961C24.7471 167.962 24.1005 168.15 23.5502 168.5C22.9979 168.851 22.5673 169.351 22.3131 169.936C22.0589 170.52 21.9924 171.163 22.122 171.784C22.2516 172.404 22.5715 172.974 23.0412 173.422C23.511 173.869 24.1095 174.174 24.7611 174.297C25.4127 174.421 26.088 174.357 26.7018 174.115C27.3156 173.873 27.8402 173.463 28.2092 172.937C28.5783 172.411 28.7753 171.792 28.7753 171.16C28.7697 170.314 28.4136 169.505 27.7844 168.909C27.157 168.314 26.3089 167.979 25.4239 167.976C25.4198 167.976 25.4164 167.973 25.4164 167.968V167.968Z" fill="#0C0C0C"/>
</g>
</g>
</g>
</svg>
