<svg width="183" height="190" viewBox="0 0 183 190" fill="none" xmlns="http://www.w3.org/2000/svg">
<path d="M167.648 128.636C165.367 128.643 163.18 129.554 161.567 131.169C159.953 132.785 159.044 134.974 159.037 137.258C159.037 146.233 176.26 146.233 176.26 137.258C176.253 134.974 175.344 132.785 173.73 131.169C172.117 129.554 169.93 128.643 167.648 128.636ZM-nan -nanL167.648 140.336C166.93 140.337 166.227 140.125 165.629 139.726C165.032 139.327 164.565 138.76 164.289 138.095C164.013 137.431 163.94 136.7 164.08 135.994C164.219 135.289 164.564 134.64 165.071 134.131C165.579 133.621 166.225 133.274 166.93 133.133C167.634 132.991 168.365 133.062 169.029 133.337C169.693 133.611 170.261 134.076 170.661 134.674C171.061 135.272 171.275 135.974 171.276 136.694L-nan -nanL171.276 136.694C171.277 137.171 171.183 137.645 171.001 138.086C170.819 138.528 170.552 138.929 170.216 139.267C169.879 139.605 169.479 139.874 169.038 140.057C168.598 140.241 168.125 140.335 167.648 140.336L-nan -nanZ" fill="black" fill-opacity="0.2"/>
<path d="M167.647 151.267C167.612 151.268 167.579 151.262 167.547 151.249C167.516 151.236 167.487 151.216 167.464 151.191C167.108 150.82 158.781 142.065 158.781 137.258C158.781 134.904 159.715 132.646 161.378 130.982C163.04 129.317 165.295 128.382 167.647 128.382C169.998 128.382 172.253 129.317 173.915 130.982C175.578 132.646 176.512 134.904 176.512 137.258C176.512 142.065 168.185 150.82 167.83 151.191C167.806 151.216 167.777 151.235 167.746 151.248C167.715 151.261 167.681 151.268 167.647 151.267ZM167.647 128.888C167.647 128.887 167.645 128.886 167.644 128.886C165.429 128.889 163.306 129.771 161.74 131.339C160.173 132.908 159.292 135.035 159.289 137.253C159.289 145.91 176.004 145.91 176.004 137.253C176.001 135.035 175.12 132.909 173.553 131.341C171.987 129.774 169.863 128.893 167.649 128.891C167.648 128.891 167.647 128.889 167.647 128.888ZM167.647 140.588C167.647 140.586 167.645 140.585 167.644 140.585C166.876 140.586 166.126 140.358 165.487 139.932C164.847 139.505 164.348 138.898 164.053 138.188C163.758 137.477 163.68 136.695 163.829 135.94C163.978 135.185 164.347 134.491 164.89 133.946C165.433 133.401 166.125 133.029 166.878 132.878C167.632 132.727 168.414 132.803 169.124 133.097C169.835 133.39 170.442 133.888 170.87 134.528C171.298 135.167 171.527 135.919 171.528 136.689L-nan -nanL171.528 136.689C171.529 137.2 171.43 137.707 171.236 138.18C171.041 138.653 170.756 139.083 170.395 139.445C170.035 139.807 169.606 140.095 169.135 140.292C168.664 140.488 168.159 140.589 167.649 140.59C167.648 140.59 167.647 140.589 167.647 140.588ZM167.647 133.326C167.647 133.321 167.642 133.316 167.636 133.316C166.972 133.317 166.322 133.514 165.769 133.883C165.213 134.254 164.779 134.782 164.522 135.4C164.266 136.017 164.198 136.697 164.327 137.354C164.456 138.01 164.777 138.613 165.249 139.087C165.721 139.561 166.322 139.884 166.977 140.016C167.633 140.147 168.312 140.081 168.93 139.826C169.547 139.571 170.076 139.138 170.448 138.582C170.82 138.027 171.019 137.373 171.02 136.704L-nan -nanL171.02 136.704C171.016 135.81 170.659 134.955 170.027 134.324C169.397 133.695 168.546 133.341 167.657 133.337C167.651 133.336 167.647 133.332 167.647 133.326Z" fill="black" fill-opacity="0.2"/>
<path d="M61.0516 13.0138C61.0503 13.0138 61.049 13.0135 61.0478 13.0129C57.0802 10.9179 51.8177 10.5164 46.9818 11.9456C42.1453 13.375 37.8371 16.6254 35.6728 20.5931C35.5455 20.8211 35.4894 21.0819 35.5116 21.3421C35.5337 21.6023 35.6332 21.8499 35.7972 22.053C35.9612 22.256 36.1822 22.4052 36.4317 22.4814C36.6811 22.5576 36.9477 22.5572 37.1969 22.4803C37.3608 22.4328 37.5135 22.353 37.6461 22.2455C37.7787 22.1381 37.8886 22.0052 37.9691 21.8546C39.8286 18.477 43.4763 15.7098 47.7287 14.4585C51.981 13.2071 56.4569 13.5428 59.8404 15.3283C60.147 15.4902 60.5052 15.5235 60.8363 15.421C61.1673 15.3184 61.4442 15.0884 61.6059 14.7815C61.7676 14.4746 61.8009 14.1159 61.6984 13.7844C61.596 13.4529 61.3663 13.1757 61.0597 13.0138L-nan -nanL61.0597 13.0138H61.0516Z" fill="black" fill-opacity="0.2"/>
<path d="M58.6923 17.6709C58.6923 17.6631 58.6875 17.6561 58.6803 17.6532C55.4349 16.324 51.8333 16.1443 48.4718 17.1443C45.1062 18.1454 42.1837 20.2688 40.1893 23.1619C40.0414 23.3859 39.9659 23.6501 39.9731 23.9185C39.9804 24.187 40.0701 24.4467 40.2299 24.6623C40.3898 24.8779 40.6121 25.039 40.8666 25.1237C41.1211 25.2084 41.3955 25.2126 41.6525 25.1356C41.9461 25.0582 42.2022 24.8777 42.3739 24.6269C44.0308 22.2502 46.4441 20.5067 49.2192 19.6816C51.9942 18.8564 54.9668 18.9984 57.6508 20.0844C57.8082 20.1529 57.9776 20.1897 58.1492 20.1926C58.3209 20.1955 58.4914 20.1646 58.6511 20.1015C58.8108 20.0384 58.9565 19.9445 59.0799 19.8251C59.2034 19.7056 59.3021 19.563 59.3705 19.4053C59.4389 19.2477 59.4756 19.0781 59.4785 18.9063C59.4814 18.7344 59.4505 18.5637 59.3875 18.4038C59.3246 18.2439 59.2307 18.098 59.1115 17.9744C58.9951 17.8538 58.8567 17.7568 58.7038 17.6885C58.6968 17.6854 58.6923 17.6785 58.6923 17.6709Z" fill="black" fill-opacity="0.2"/>
<path d="M56.2945 22.2667C56.2954 22.2667 56.2957 22.2654 56.2948 22.265C54.2339 21.4003 51.9349 21.2886 49.7999 21.9494C47.6636 22.6106 45.8277 24.0032 44.6137 25.8834C44.4219 26.1723 44.3521 26.5256 44.4197 26.8659C44.4873 27.2062 44.6868 27.5059 44.9744 27.6993C45.2617 27.8895 45.6117 27.9603 45.9502 27.8967C46.2887 27.833 46.5892 27.6401 46.7881 27.3585C47.665 25.9768 49.0025 24.9508 50.5632 24.4629C52.1239 23.9749 53.8068 24.0564 55.3131 24.6931C55.6345 24.8232 55.9943 24.8203 56.3135 24.6848C56.6327 24.5494 56.885 24.2925 57.0151 23.9707C57.1451 23.649 57.1421 23.2887 57.0068 22.9691C56.8715 22.6495 56.615 22.3968 56.2936 22.2667L-nan -nanL56.2936 22.2667H56.2945Z" fill="black" fill-opacity="0.2"/>
<path d="M51.2205 26.3412C50.6243 26.5144 50.0928 26.8608 49.6932 27.3364C49.2935 27.8121 49.0437 28.3957 48.9752 29.0135C48.9067 29.6312 49.0227 30.2555 49.3085 30.8073C49.5943 31.3591 50.037 31.8137 50.5807 32.1136C51.1245 32.4136 51.7448 32.5454 52.3634 32.4924C52.9819 32.4394 53.5709 32.204 54.0559 31.816C54.5408 31.4279 54.9 30.9046 55.088 30.3122C55.276 29.7198 55.2844 29.0849 55.1122 28.4878C54.9976 28.0908 54.8061 27.7204 54.5485 27.3976C54.2909 27.0749 53.9722 26.8061 53.6108 26.6068C53.2493 26.4074 52.8522 26.2813 52.4421 26.2357C52.0319 26.1902 51.6168 26.226 51.2205 26.3412Z" fill="black" fill-opacity="0.2"/>
<path d="M167.435 41.454H144.73C143.838 41.454 142.983 41.8088 142.352 42.4403C141.721 43.0718 141.367 43.9283 141.367 44.8214V56.9737C141.367 57.8668 141.721 58.7234 142.352 59.3549C142.983 59.9864 143.838 60.3412 144.73 60.3412C145.062 60.3412 145.282 60.6826 145.133 60.9787C144.956 61.3332 144.75 61.712 144.516 62.1002C143.831 63.2338 144.677 64.7283 145.835 64.0857C147.048 63.4126 148.411 62.4632 149.812 61.1254C150.322 60.638 150.993 60.3412 151.698 60.3412H167.425C168.317 60.3412 169.172 59.9864 169.803 59.3549C170.434 58.7234 170.788 57.8668 170.788 56.9737V44.8214C170.788 43.9301 170.435 43.0751 169.806 42.4439C169.178 41.8126 168.325 41.4567 167.435 41.454Z" fill="black" fill-opacity="0.2"/>
<path d="M141.205 65.9671C141.151 65.9678 141.099 65.9515 141.055 65.9204C141.011 65.8893 140.978 65.8451 140.961 65.7942C140.944 65.7406 140.944 65.6829 140.962 65.6297C140.981 65.5765 141.016 65.5306 141.062 65.4992C142.891 64.3107 144.133 62.4358 144.908 60.8786C144.973 60.7477 144.877 60.5955 144.731 60.5955C143.773 60.5915 142.857 60.2083 142.181 59.5297C141.505 58.851 141.125 57.9321 141.123 56.9737V44.8214C141.125 43.8635 141.505 42.9451 142.181 42.2673C142.857 41.5895 143.774 41.2074 144.731 41.2047H167.425C167.9 41.2047 168.37 41.2984 168.809 41.4804C169.248 41.6624 169.647 41.9292 169.983 42.2655C170.319 42.6018 170.585 43.0011 170.767 43.4405C170.949 43.8799 171.042 44.3509 171.042 44.8265V56.9737C171.042 57.9343 170.661 58.8555 169.983 59.5347C169.304 60.2139 168.384 60.5955 167.425 60.5955H161.828C154.729 60.5955 148.297 65.4078 141.22 65.9671H141.205ZM144.731 41.7134C143.906 41.7134 143.115 42.0414 142.532 42.6252C141.949 43.209 141.621 44.0008 141.621 44.8265V56.9737C141.621 57.7994 141.949 58.5912 142.532 59.175C143.115 59.7589 143.906 60.0868 144.731 60.0868H145.437C145.48 60.0858 145.522 60.0959 145.56 60.1161C145.598 60.1364 145.63 60.1662 145.653 60.2026C145.676 60.239 145.689 60.2807 145.692 60.3237C145.694 60.3667 145.685 60.4095 145.665 60.448C145.058 61.8717 146.308 63.5891 147.562 62.6816C148.48 62.0173 149.442 61.1952 150.41 60.1784C150.433 60.1527 150.462 60.1321 150.493 60.1181C150.525 60.104 150.559 60.0968 150.593 60.097H167.425C168.249 60.097 169.04 59.769 169.623 59.1852C170.206 58.6014 170.534 57.8096 170.534 56.9839V44.8214C170.534 43.9958 170.206 43.2039 169.623 42.6201C169.04 42.0363 168.249 41.7083 167.425 41.7083L144.731 41.7134Z" fill="black" fill-opacity="0.2"/>
<path d="M152.181 50.4653C152.183 50.4637 152.184 50.4614 152.184 50.4591C152.183 50.1173 152.081 49.7833 151.892 49.4991C151.701 49.2138 151.431 48.9915 151.114 48.8602C150.798 48.7289 150.449 48.6946 150.113 48.7615C149.777 48.8284 149.468 48.9936 149.226 49.2362C148.984 49.4788 148.819 49.7879 148.752 50.1243C148.685 50.4608 148.719 50.8096 148.851 51.1265C148.982 51.4435 149.204 51.7144 149.489 51.905C149.774 52.0956 150.109 52.1973 150.451 52.1973C150.678 52.1973 150.903 52.1526 151.112 52.0657C151.322 51.9788 151.512 51.8514 151.673 51.6908C151.833 51.5302 151.96 51.3395 152.047 51.1297C152.133 50.921 152.178 50.6973 152.179 50.4714C152.179 50.4691 152.179 50.4669 152.181 50.4653Z" fill="white"/>
<path d="M156.339 52.1973C157.296 52.1973 158.071 51.4207 158.071 50.4627C158.071 49.5048 157.296 48.7281 156.339 48.7281C155.382 48.7281 154.606 49.5048 154.606 50.4627C154.606 51.4207 155.382 52.1973 156.339 52.1973Z" fill="white"/>
<path d="M163.954 50.4627C163.954 50.1197 163.853 49.7843 163.662 49.4991C163.472 49.2138 163.201 48.9915 162.885 48.8602C162.568 48.7289 162.22 48.6946 161.884 48.7615C161.548 48.8284 161.239 48.9936 160.997 49.2362C160.754 49.4788 160.589 49.7879 160.523 50.1243C160.456 50.4608 160.49 50.8096 160.621 51.1265C160.752 51.4435 160.974 51.7144 161.259 51.905C161.544 52.0956 161.879 52.1973 162.222 52.1973C162.681 52.1973 163.122 52.0146 163.447 51.6893C163.772 51.364 163.954 50.9228 163.954 50.4627Z" fill="white"/>
<path d="M11.2411 116.512C16.1752 116.026 19.7814 111.627 19.2959 106.687C18.8104 101.747 14.4169 98.1358 9.48281 98.622C4.54871 99.1081 0.942429 103.507 1.42796 108.447C1.91349 113.388 6.30697 116.998 11.2411 116.512Z" fill="black" fill-opacity="0.2"/>
<path d="M-nan -nanL10.3728 116.804C8.54701 116.804 6.76226 116.262 5.2442 115.247C3.72615 114.231 2.54297 112.788 1.84428 111.099C1.1456 109.41 0.962794 107.552 1.31898 105.759C1.67517 103.966 2.55435 102.319 3.84535 101.026C5.13635 99.7336 6.78118 98.8533 8.57185 98.4967C10.3625 98.1401 12.2186 98.3231 13.9054 99.0227C15.5921 99.7222 17.0338 100.907 18.0482 102.427C19.0625 103.947 19.6039 105.734 19.6039 107.562C19.6046 108.776 19.3663 109.978 18.9026 111.1C18.4389 112.221 17.759 113.24 16.9017 114.099C16.0443 114.957 15.0264 115.638 13.9062 116.102C12.7859 116.567 11.5852 116.805 10.3728 116.804L-nan -nanZM10.3728 98.8278C8.64749 98.8278 6.96097 99.34 5.52646 100.3C4.09195 101.259 2.97389 102.623 2.31366 104.219C1.65342 105.815 1.48068 107.571 1.81726 109.266C2.15384 110.96 2.98464 112.516 4.20459 113.738C5.42454 114.959 6.97885 115.791 8.67096 116.128C10.3631 116.465 12.117 116.292 13.7109 115.631C15.3049 114.97 16.6672 113.85 17.6258 112.414C18.5843 110.978 19.0959 109.289 19.0959 107.562C19.0959 105.245 18.1768 103.024 16.5409 101.386C14.905 99.748 12.6863 98.8278 10.3728 98.8278Z" fill="black" fill-opacity="0.2"/>
<path d="M6.32324 107.562C6.32324 105.074 9.01757 103.52 11.1713 104.765C13.3222 106.009 13.3222 109.114 11.1713 110.358C9.01756 111.604 6.32324 110.05 6.32324 107.562Z" fill="white"/>
<path d="M-nan -nanL6.32437 113.437C6.27938 113.438 6.23502 113.426 6.19736 113.401C6.15826 113.38 6.12574 113.348 6.10335 113.31C6.08096 113.271 6.06955 113.227 6.07035 113.183V101.992C6.06955 101.947 6.08096 101.903 6.10335 101.865C6.12574 101.826 6.15826 101.794 6.19736 101.773C6.23598 101.751 6.27978 101.739 6.32437 101.739C6.36896 101.739 6.41277 101.751 6.45138 101.773L16.1347 107.368C16.1924 107.4 16.2354 107.452 16.2545 107.515C16.2735 107.578 16.267 107.646 16.2363 107.704C16.2134 107.748 16.178 107.783 16.1347 107.806L6.45138 113.401C6.41346 113.425 6.36929 113.438 6.32437 113.437L-nan -nanZM11.0438 105.006C9.05986 103.859 6.5784 105.29 6.5784 107.582C6.5784 109.874 9.05986 111.305 11.0438 110.158C13.0256 109.012 13.0256 106.152 11.0438 105.006Z" fill="black" fill-opacity="0.2"/>
<path d="M-nan -nanL31.7712 175.664C30.196 175.694 28.6443 175.278 27.2953 174.463C20.8736 170.607 17.0887 164.88 15.4884 157.636C15.0918 156.153 15.0466 154.597 15.3563 153.093C15.6097 151.853 16.2113 150.711 17.0905 149.801C17.9697 148.891 19.09 148.251 20.3199 147.956C20.7737 147.797 21.2715 147.821 21.7077 148.023C22.144 148.226 22.4844 148.59 22.6569 149.039C23.2555 150.706 23.7642 152.404 24.181 154.126C24.2525 154.503 24.1901 154.894 24.0046 155.23C23.8191 155.566 23.5221 155.827 23.1649 155.968C22.505 156.303 21.8291 156.606 21.1398 156.875C20.9496 156.949 20.7415 156.99 20.5738 157.107C20.4896 157.165 20.4178 157.24 20.3625 157.326C20.3073 157.413 20.2697 157.51 20.2519 157.611C20.2341 157.712 20.2365 157.816 20.2589 157.916C20.2903 158.076 20.3726 158.222 20.4288 158.376C21.8909 162.371 24.2441 165.98 27.3106 168.929C27.778 169.381 28.1133 169.305 28.54 168.837C29.0789 168.221 29.6761 167.659 30.3233 167.158C30.6497 166.878 31.0645 166.721 31.4948 166.717C31.925 166.712 32.3431 166.86 32.6755 167.133C33.8984 168.039 35.0688 169.014 36.181 170.053C37.4664 171.314 37.38 172.525 36.0896 173.781C34.9457 174.942 33.399 175.616 31.7712 175.664L-nan -nanZ" fill="black" fill-opacity="0.2"/>
<path d="M31.774 175.908C31.7725 175.914 31.7671 175.918 31.7609 175.918C30.1553 175.937 28.576 175.509 27.1991 174.682C20.9501 170.933 16.9366 165.215 15.2702 157.692C14.861 156.171 14.8157 154.574 15.1381 153.033C15.3987 151.75 16.0187 150.569 16.9257 149.626C17.8326 148.684 18.9889 148.02 20.2592 147.712C20.775 147.533 21.3398 147.563 21.834 147.795C22.3281 148.027 22.7127 148.442 22.9061 148.953C23.5101 150.634 24.0189 152.347 24.4302 154.085C24.5191 154.518 24.452 154.969 24.2409 155.357C24.0299 155.745 23.6884 156.046 23.277 156.207C22.5352 156.583 21.7528 156.934 20.9501 157.249C20.5031 157.422 20.4116 157.626 20.5793 158.084C22.0278 162.13 24.3907 165.785 27.4836 168.766C27.6903 169.006 28.065 168.978 28.2855 168.751C28.3056 168.73 28.3262 168.708 28.3472 168.685C28.8968 168.057 29.5059 167.485 30.166 166.975C30.5362 166.659 31.0058 166.483 31.4925 166.478C31.9792 166.474 32.4521 166.641 32.8282 166.95L33.2854 167.311C34.3528 168.108 35.3708 168.969 36.3337 169.89C36.6297 170.135 36.8726 170.437 37.0474 170.779C37.2221 171.121 37.3251 171.496 37.3498 171.879C37.3194 172.283 37.2074 172.677 37.0205 173.036C36.8336 173.396 36.5758 173.713 36.2626 173.97C35.0705 175.16 33.4695 175.849 31.787 175.897C31.7808 175.897 31.7755 175.902 31.774 175.908ZM20.9451 148.124C20.7562 148.124 20.5682 148.149 20.3862 148.2C19.2008 148.485 18.1211 149.103 17.2736 149.98C16.426 150.858 15.8456 151.959 15.6004 153.155C15.3019 154.62 15.3471 156.135 15.7325 157.58C17.3684 164.961 21.321 170.572 27.4175 174.244C28.724 175.037 30.2289 175.441 31.7562 175.409C33.3142 175.369 34.7969 174.729 35.8968 173.624C36.1597 173.41 36.3773 173.147 36.537 172.848C36.5481 172.827 36.5589 172.806 36.5694 172.785C36.8495 172.224 36.8604 171.54 36.5719 170.983C36.4269 170.704 36.2266 170.456 35.9831 170.256C35.0262 169.35 34.0168 168.501 32.9603 167.713L32.503 167.352C32.2148 167.117 31.8531 166.991 31.4814 166.996C31.1097 167.002 30.7519 167.139 30.4709 167.382C29.8356 167.873 29.2502 168.425 28.7232 169.03C28.628 169.162 28.5066 169.271 28.3666 169.353C28.2266 169.434 28.0712 169.486 27.9103 169.504C27.7607 169.503 27.6129 169.47 27.4777 169.405C27.3424 169.341 27.223 169.248 27.1279 169.132C24.0754 166.189 21.722 162.599 20.239 158.627C20.1459 158.378 20.0109 158.137 19.9815 157.873C19.9667 157.74 19.9783 157.605 20.0156 157.476C20.0529 157.348 20.1151 157.228 20.1988 157.124C20.2824 157.019 20.3858 156.932 20.5031 156.868C20.5852 156.825 20.6722 156.793 20.7622 156.771C21.5496 156.461 22.3218 156.12 23.0484 155.754C23.356 155.643 23.6142 155.425 23.777 155.141C23.9398 154.857 23.9966 154.525 23.9374 154.202C23.5213 152.481 23.0126 150.783 22.4133 149.116C22.3023 148.818 22.1011 148.562 21.8379 148.384C21.5746 148.206 21.2625 148.115 20.9451 148.124Z" fill="black" fill-opacity="0.2"/>
<path d="M-nan -nanL40.7843 160.78C40.6777 161.588 40.6167 162.407 40.4541 163.211C40.4383 163.367 40.3919 163.518 40.3177 163.656C40.2434 163.793 40.1428 163.915 40.0215 164.014C39.9002 164.113 39.7607 164.186 39.6109 164.231C39.4611 164.276 39.3039 164.29 39.1484 164.274C39.0747 164.264 39.0017 164.249 38.93 164.229C38.2645 164.071 37.9139 163.445 38.0663 162.621C38.5381 160.092 38.0308 157.478 36.6475 155.31C35.2642 153.141 33.1086 151.582 30.6184 150.947C30.3894 150.901 30.1649 150.835 29.9478 150.749C29.6816 150.646 29.4619 150.451 29.33 150.198C29.1981 149.945 29.163 149.652 29.2314 149.375C29.2466 149.231 29.29 149.092 29.359 148.965C29.428 148.838 29.5214 148.726 29.6337 148.636C29.746 148.545 29.8751 148.477 30.0135 148.437C30.152 148.396 30.2971 148.383 30.4406 148.398C30.5216 148.398 30.6025 148.407 30.6816 148.425C31.7577 148.668 32.8057 149.022 33.8089 149.482C35.8985 150.539 37.6559 152.153 38.8868 154.147C40.1178 156.14 40.7744 158.436 40.7843 160.78L-nan -nanZ" fill="black" fill-opacity="0.2"/>
<path d="M-nan -nanL39.281 164.539C39.1373 164.537 38.9943 164.52 38.8542 164.488C38.0566 164.295 37.6298 163.532 37.8026 162.585C38.2634 160.119 37.7694 157.57 36.421 155.456C35.0726 153.341 32.9708 151.82 30.5426 151.201L30.3648 151.161C30.177 151.126 29.9944 151.068 29.8212 150.988C29.5039 150.861 29.2428 150.624 29.086 150.321C28.9292 150.017 28.8872 149.667 28.9677 149.334C29.0006 149.13 29.0748 148.934 29.1857 148.759C29.2967 148.584 29.442 148.434 29.6129 148.317C29.7619 148.221 29.9295 148.158 30.1046 148.132C30.2797 148.106 30.4584 148.117 30.629 148.164C31.7638 148.413 32.869 148.781 33.9262 149.263C36.057 150.333 37.8499 151.973 39.1055 154.002C40.3612 156.03 41.0304 158.368 41.0388 160.754V160.79C41.0083 161.039 40.9778 161.298 40.9524 161.532C40.8915 162.092 40.8254 162.672 40.7086 163.242C40.6793 163.452 40.608 163.655 40.4989 163.838C40.3898 164.02 40.2451 164.179 40.0735 164.305C39.8395 164.462 39.5628 164.544 39.281 164.539L-nan -nanZM30.2835 148.665C30.2835 148.658 30.2782 148.653 30.2716 148.653C30.1356 148.653 30.0023 148.692 29.8872 148.765C29.7756 148.843 29.6808 148.942 29.6084 149.058C29.5359 149.173 29.4874 149.302 29.4656 149.436C29.4088 149.659 29.4367 149.894 29.5437 150.097C29.6508 150.3 29.8293 150.456 30.0447 150.535C30.1829 150.595 30.328 150.638 30.4766 150.662L30.6696 150.708C33.2188 151.364 35.424 152.965 36.8388 155.187C38.2536 157.409 38.7725 160.086 38.2903 162.677C38.1633 163.359 38.4224 163.862 38.9558 163.989C39.088 164.029 39.2269 164.042 39.364 164.026C39.5012 164.01 39.6337 163.967 39.7534 163.898C39.8715 163.81 39.971 163.7 40.046 163.573C40.121 163.446 40.1701 163.306 40.1904 163.16C40.3021 162.616 40.3631 162.046 40.4291 161.492C40.4806 161.007 40.5213 160.519 40.4898 160.032C40.3581 157.997 39.7262 156.021 38.6455 154.283C37.4356 152.337 35.7105 150.765 33.662 149.741C32.6396 149.273 31.57 148.917 30.4715 148.678C30.4135 148.671 30.355 148.671 30.297 148.677C30.2898 148.677 30.2835 148.672 30.2835 148.665Z" fill="black" fill-opacity="0.2"/>
<path d="M36.5723 161.41C36.5316 161.716 36.491 162.306 36.3741 162.875C36.3547 163.035 36.3038 163.19 36.2245 163.33C36.1452 163.47 36.0389 163.593 35.9119 163.692C35.7848 163.791 35.6395 163.863 35.4843 163.906C35.3291 163.948 35.1671 163.959 35.0075 163.939C34.9771 163.939 34.9467 163.936 34.917 163.929C34.766 163.895 34.6223 163.833 34.493 163.747C34.351 163.652 34.2292 163.531 34.1346 163.389C34.0401 163.247 33.9747 163.087 33.9422 162.92C33.9098 162.752 33.911 162.58 33.9457 162.413L-nan -nanL33.9457 162.413C34.0471 161.672 34.0624 160.923 33.9914 160.179C33.5139 157.366 31.8526 155.571 29.104 154.787C28.2099 154.533 27.7526 153.968 27.9152 153.261C28.0778 152.554 28.7586 152.168 29.6883 152.366C33.6053 153.231 36.5824 157.01 36.5723 161.41Z" fill="black" fill-opacity="0.2"/>
<path d="M35.1805 164.203C35.008 164.203 34.8335 164.196 34.6708 164.139C34.5639 164.101 34.4614 164.052 34.365 163.991C34.1953 163.885 34.0482 163.746 33.9321 163.583C33.816 163.419 33.7333 163.234 33.6886 163.039C33.68 163.001 33.6729 162.964 33.6672 162.926C33.619 162.607 33.6821 162.281 33.7122 161.96C33.7834 161.399 33.7834 160.832 33.7122 160.271C33.255 157.585 31.68 155.835 29.0077 155.077C27.9917 154.787 27.448 154.086 27.6411 153.251C27.8342 152.417 28.6572 151.929 29.7088 152.168C33.8342 153.068 36.8215 156.97 36.8215 161.456V161.487C36.8289 161.682 36.7776 161.875 36.7554 162.068C36.7244 162.34 36.6806 162.655 36.6182 162.967C36.5602 163.309 36.3847 163.619 36.1222 163.845C35.8596 164.071 35.5265 164.197 35.1805 164.203ZM-nan -nanL29.1652 152.57C28.9329 152.547 28.7006 152.612 28.513 152.751C28.3254 152.89 28.1958 153.094 28.1491 153.322C27.9662 154.121 28.7944 154.447 29.1652 154.548C32.0357 155.362 33.7376 157.244 34.2457 160.144C34.3219 160.748 34.3219 161.36 34.2457 161.965C34.2457 161.986 34.2451 162.006 34.2442 162.027C34.2318 162.302 34.1446 162.577 34.1899 162.848C34.2127 162.984 34.2629 163.114 34.3376 163.23C34.4122 163.346 34.5096 163.446 34.624 163.523C34.7383 163.6 34.8672 163.653 35.0027 163.679C35.1294 163.699 35.2588 163.693 35.3834 163.662C35.5079 163.632 35.6253 163.577 35.7286 163.501C35.832 163.425 35.9193 163.329 35.9857 163.219C36.0457 163.12 36.0875 163.01 36.1091 162.896C36.113 162.876 36.1153 162.846 36.1153 162.825C36.1153 162.822 36.1155 162.818 36.1161 162.815C36.1875 162.457 36.2314 162.083 36.2651 161.787C36.2736 161.712 36.2728 161.637 36.278 161.562C36.286 161.446 36.3088 161.331 36.3067 161.215C36.2302 157.051 33.44 153.453 29.6072 152.615C29.4619 152.585 29.3138 152.569 29.1652 152.57L-nan -nanZ" fill="black" fill-opacity="0.2"/>
<path d="M29.8561 161.833C29.9426 161.137 29.7694 160.434 29.37 159.859C28.9706 159.283 28.373 158.876 27.6919 158.714C26.8282 158.45 26.4268 157.84 26.6301 157.107C26.8333 156.375 27.5039 156.09 28.393 156.319C29.6706 156.662 30.776 157.467 31.4956 158.578C32.2153 159.689 32.4981 161.028 32.2897 162.336C32.1322 163.232 31.6648 163.644 30.8976 163.562C30.1305 163.481 29.7799 162.957 29.8358 162.036C29.8409 161.97 29.851 161.899 29.8561 161.833Z" fill="black" fill-opacity="0.2"/>
<path d="M31.0754 163.827H30.8722C29.9831 163.735 29.5157 163.084 29.5869 162.036V161.822C29.6676 161.185 29.5091 160.54 29.1421 160.013C28.7751 159.486 28.2257 159.114 27.6004 158.969C26.5843 158.658 26.1271 157.921 26.3659 157.046C26.6046 156.171 27.4175 155.82 28.4387 156.079C29.7763 156.442 30.9332 157.287 31.6878 158.45C32.4425 159.614 32.7418 161.016 32.5284 162.387C32.376 163.318 31.8578 163.827 31.0754 163.827ZM-nan -nanL27.8341 156.497C27.617 156.475 27.3995 156.533 27.2214 156.659C27.0433 156.785 26.9163 156.971 26.8637 157.183C26.6961 157.783 27.0212 158.257 27.7579 158.485C28.4923 158.664 29.136 159.106 29.5675 159.727C29.999 160.348 30.1884 161.106 30.1 161.858V162.061C30.0238 163.221 30.7096 163.292 30.9332 163.318C31.3294 163.359 31.8781 163.318 32.0509 162.301C32.2518 161.055 31.9829 159.778 31.2966 158.72C30.6103 157.661 29.5554 156.896 28.3371 156.573C28.1732 156.527 28.0043 156.501 27.8341 156.497L-nan -nanZ" fill="black" fill-opacity="0.2"/>
<path d="M-nan -nanL22.7324 156.232C22.6802 156.232 22.6293 156.216 22.5866 156.186C22.5438 156.156 22.5114 156.113 22.4936 156.064L22.199 155.235C22.1715 155.174 22.1694 155.104 22.1932 155.041C22.217 154.978 22.2648 154.927 22.326 154.899C22.3562 154.885 22.3891 154.877 22.4225 154.876C22.456 154.874 22.4893 154.88 22.5206 154.892C22.552 154.903 22.5805 154.921 22.6047 154.945C22.6236 154.963 22.6394 154.984 22.6518 155.007C22.6586 155.019 22.6613 155.034 22.6613 155.049C22.6613 155.061 22.6634 155.073 22.6676 155.085L22.956 155.891C22.9772 155.955 22.9726 156.025 22.9432 156.086C22.9138 156.147 22.8619 156.194 22.7985 156.217C22.7773 156.225 22.7551 156.23 22.7324 156.232L-nan -nanZ" fill="white"/>
<path d="M-nan -nanL22.1183 154.492C22.0657 154.494 22.0141 154.478 21.9711 154.448C21.928 154.418 21.8959 154.375 21.8795 154.325L19.8473 148.587C19.8363 148.553 19.832 148.518 19.8348 148.483C19.8375 148.448 19.8472 148.414 19.8633 148.382C19.8794 148.351 19.9015 148.323 19.9285 148.301C19.9554 148.278 19.9865 148.261 20.0201 148.251C20.053 148.239 20.0881 148.234 20.1231 148.236C20.1581 148.238 20.1923 148.247 20.2236 148.263C20.2549 148.279 20.2828 148.301 20.3054 148.327C20.3281 148.354 20.3451 148.385 20.3554 148.419L22.3876 154.157C22.4104 154.22 22.4072 154.29 22.3786 154.351C22.3501 154.412 22.2985 154.459 22.2351 154.482C22.1973 154.493 22.1575 154.497 22.1183 154.492L-nan -nanZ" fill="white"/>
<path d="M-nan -nanL36.4749 173.497C36.4135 173.497 36.354 173.475 36.3073 173.436L31.3742 169.122C31.3488 169.1 31.3281 169.073 31.3131 169.043C31.2981 169.013 31.2891 168.98 31.2868 168.947C31.2844 168.913 31.2887 168.879 31.2993 168.848C31.3099 168.816 31.3268 168.786 31.3488 168.761C31.3708 168.735 31.3976 168.715 31.4276 168.7C31.4577 168.685 31.4904 168.676 31.5239 168.673C31.5574 168.671 31.591 168.675 31.6228 168.686C31.6547 168.696 31.6841 168.713 31.7095 168.735L36.6426 173.054C36.6873 173.1 36.7123 173.162 36.7123 173.227C36.7123 173.291 36.6873 173.353 36.6426 173.4L-nan -nanL36.6426 173.4C36.6229 173.427 36.5978 173.449 36.569 173.466C36.5401 173.483 36.5081 173.493 36.4749 173.497L-nan -nanZ" fill="white"/>
<path d="M-nan -nanL31.0098 168.715C30.9483 168.716 30.8888 168.694 30.8421 168.654L30.0292 167.947C30.0054 167.923 29.9865 167.895 29.9736 167.864C29.9607 167.833 29.9541 167.8 29.9541 167.766C29.9541 167.733 29.9607 167.7 29.9736 167.669C29.9865 167.638 30.0054 167.609 30.0292 167.586L-nan -nanL30.0292 167.586C30.0717 167.535 30.1325 167.504 30.1982 167.498C30.2639 167.492 30.3292 167.513 30.3798 167.555L31.1927 168.262C31.2395 168.311 31.2657 168.376 31.2657 168.443C31.2657 168.51 31.2395 168.575 31.1927 168.623C31.1706 168.651 31.1428 168.674 31.1113 168.689C31.0797 168.705 31.0451 168.714 31.0098 168.715L-nan -nanZ" fill="white"/>
<path d="M129.098 14.7031C132.582 13.2944 131.257 8.07692 127.523 8.50146C124.616 8.83195 123.612 12.5484 125.957 14.2977C126.861 14.9723 128.052 15.126 129.098 14.7031Z" fill="white"/>
<path d="M-nan -nanL127.413 15.6385C127.359 15.6389 127.306 15.623 127.261 15.5927L119.275 9.62591C119.233 9.59588 119.202 9.5541 119.185 9.50601C119.168 9.45793 119.165 9.40576 119.178 9.35631C119.191 9.30671 119.219 9.26235 119.258 9.22949C119.297 9.19663 119.346 9.17693 119.397 9.17319L151.022 5.61244C151.084 5.60578 151.145 5.62173 151.196 5.6573C151.246 5.69288 151.282 5.74565 151.297 5.80574C151.313 5.86446 151.307 5.92732 151.28 5.98194C151.253 6.03655 151.206 6.07895 151.149 6.10078L127.528 15.6565C127.516 15.6614 127.503 15.6634 127.49 15.6614C127.464 15.6571 127.438 15.6494 127.413 15.6385L-nan -nanZM127.555 8.7563C124.876 9.06111 123.951 12.4852 126.112 14.0974C126.945 14.7194 128.043 14.8611 129.007 14.4711C132.217 13.1725 130.996 8.3647 127.555 8.7563Z" fill="black" fill-opacity="0.2"/>
<path d="M128.969 14.7553C128.027 15.1361 127.407 16.0462 127.398 17.0619C127.379 19.0875 129.641 20.3025 131.319 19.1679C133.818 17.4785 131.765 13.6247 128.969 14.7553Z" fill="white"/>
<path d="M127.354 22.1039C127.313 22.1042 127.272 22.0936 127.237 22.0734C127.196 22.0517 127.162 22.0195 127.138 21.9801C127.114 21.9408 127.101 21.8957 127.1 21.8496L127.161 15.3843C127.161 15.3341 127.176 15.285 127.204 15.2434C127.232 15.2018 127.272 15.1694 127.318 15.1503L150.957 5.5973C151.016 5.57241 151.081 5.57065 151.14 5.59239C151.2 5.61412 151.249 5.65771 151.277 5.7143C151.307 5.76973 151.315 5.83419 151.3 5.89525C151.285 5.95631 151.248 6.00964 151.196 6.04494L127.496 22.0632C127.454 22.0918 127.404 22.1061 127.354 22.1039ZM129.066 14.9923C128.22 15.3343 127.663 16.1518 127.654 17.0641C127.637 18.8842 129.669 19.9761 131.177 18.9568C133.422 17.4389 131.578 13.9763 129.066 14.9923Z" fill="black" fill-opacity="0.2"/>
<path d="M132.453 18.4013C131.419 19.1 130.189 17.8426 130.91 16.8245C131.009 16.6835 131.14 16.5675 131.292 16.4855L151.053 5.82617L132.453 18.4013Z" fill="white"/>
<path d="M-nan -nanL127.354 22.1038C127.321 22.1042 127.288 22.0977 127.257 22.0845C127.226 22.0714 127.199 22.052 127.176 22.0275C127.134 21.9849 127.109 21.9289 127.104 21.8694C127.1 21.8099 127.116 21.7506 127.151 21.702L130.854 16.4626C130.877 16.4309 130.906 16.4048 130.941 16.3863L150.932 5.59724C150.99 5.5667 151.057 5.55916 151.12 5.57615C151.183 5.59313 151.238 5.63337 151.273 5.6888C151.305 5.74569 151.315 5.81253 151.301 5.87641C151.287 5.94029 151.25 5.99669 151.196 6.03471L127.496 22.053C127.455 22.0846 127.405 22.1024 127.354 22.1038L-nan -nanZM131.417 16.6903C131.298 16.7547 131.195 16.8459 131.116 16.957C130.557 17.7517 131.517 18.7298 132.322 18.1853L146.695 8.46618L131.417 16.6903Z" fill="black" fill-opacity="0.2"/>
<path d="M137.584 13.0917C134.541 14.7335 134.226 18.9783 136.995 21.0502C139.34 22.8045 142.699 22.0314 144.041 19.4286C146.174 15.2908 141.681 10.8815 137.584 13.0917Z" fill="white"/>
<path d="M141.476 24.6574C141.421 24.6586 141.367 24.6406 141.323 24.6065L130.909 16.8136C130.873 16.7886 130.845 16.7547 130.828 16.7154C130.81 16.6761 130.803 16.6328 130.807 16.5898C130.81 16.5474 130.823 16.5065 130.847 16.4709C130.87 16.4353 130.901 16.4061 130.939 16.3863L150.931 5.59725C150.979 5.57249 151.033 5.56311 151.087 5.57039C151.14 5.57767 151.19 5.60125 151.23 5.63795C151.269 5.6764 151.295 5.72637 151.303 5.78043C151.311 5.83449 151.302 5.88977 151.276 5.93806L141.704 24.5201C141.687 24.5535 141.663 24.5828 141.633 24.6056C141.603 24.6285 141.568 24.6445 141.532 24.6523L141.476 24.6574ZM137.694 13.3148C134.813 14.8689 134.515 18.8876 137.137 20.8486C139.357 22.5088 142.536 21.7764 143.806 19.3125C145.824 15.396 141.572 11.2234 137.694 13.3148Z" fill="black" fill-opacity="0.2"/>
<path d="M-nan -nanL87.4008 80.7138C87.1775 80.7137 86.9604 80.6399 86.7831 80.5038C86.6059 80.3677 86.4784 80.1769 86.4203 79.961C86.3035 79.5235 74.6134 36.0723 72.5507 22.3125C71.2044 13.3191 73.8767 7.99832 76.356 5.1192C77.7652 3.48266 79.5162 2.17606 81.4853 1.29179C83.4545 0.407527 85.5936 -0.0328156 87.7514 0.00190469C96.7793 0.00190469 101.397 8.20179 102.576 12.5357C103.592 16.3101 105.33 22.8772 105.35 22.9433C105.406 23.2004 105.36 23.4692 105.223 23.6933C105.085 23.9174 104.866 24.0794 104.611 24.1452C104.357 24.211 104.087 24.1756 103.858 24.0463C103.408 23.7922 103.323 23.2001 103.192 22.7002C102.712 20.8632 101.435 16.0786 100.615 13.0597C99.5888 9.28019 95.5499 2.03662 87.7514 2.03662C85.8865 2.00629 84.0377 2.38544 82.3349 3.14738C80.6321 3.90932 79.1167 5.03555 77.8953 6.44685C75.6955 8.99024 73.3229 13.782 74.5626 22.0124C76.5947 35.6602 88.2797 78.9843 88.3864 79.432C88.4563 79.6923 88.4202 79.9698 88.2858 80.2035C88.1515 80.4372 87.9301 80.6079 87.6701 80.6782C87.5825 80.7029 87.4918 80.7149 87.4008 80.7138L-nan -nanZ" fill="black" fill-opacity="0.2"/>
<path d="M30.1401 129.486C25.8928 129.486 22.4382 128.016 20.6956 123.753C17.1951 115.212 28.0876 109.617 40.6972 103.131C44.7616 101.046 48.958 98.8838 52.9614 96.5185C68.1468 87.4589 67.0495 81.4209 67.0342 81.3599C66.9782 81.1028 67.0238 80.834 67.1615 80.6099C67.2992 80.3858 67.5183 80.2238 67.7727 80.158C68.0272 80.0921 68.2972 80.1276 68.5261 80.2568C68.755 80.3861 68.925 80.5991 69.0003 80.8512C69.1985 81.604 70.4533 88.4814 54.0029 98.2734C49.9385 100.695 45.7116 102.852 41.627 104.973C29.9064 110.995 19.7811 116.199 22.5753 123.01C25.6846 130.605 36.3179 126.998 46.6058 123.519C52.9767 121.362 58.9919 119.323 62.7463 120.345C66.0893 121.261 66.7751 123.58 67.1409 124.826C67.2417 125.22 67.5369 125.555 67.584 125.959C67.5907 126.016 67.5926 126.074 67.5894 126.133C67.5748 126.398 67.4568 126.648 67.2608 126.827C67.0649 127.007 66.8064 127.102 66.5409 127.094C66.2754 127.085 66.0239 126.972 65.8403 126.78C65.5173 126.379 65.2959 125.906 65.1951 125.401C64.8699 124.297 64.4635 122.924 62.2129 122.308C59.0579 121.444 53.3272 123.392 47.2561 125.447C41.4542 127.375 35.2256 129.486 30.1401 129.486Z" fill="black" fill-opacity="0.2"/>
<path d="M136.905 109.48C136.728 109.482 136.553 109.438 136.397 109.352C136.28 109.288 136.178 109.2 136.094 109.096C136.011 108.991 135.95 108.871 135.913 108.743C135.876 108.614 135.865 108.48 135.88 108.347C135.895 108.214 135.936 108.086 136.001 107.969C141.305 98.4158 150.866 95.5926 159.31 93.1052C162.256 92.2962 165.154 91.3249 167.992 90.1956C171.229 88.8272 173.073 85.47 172.194 82.5654C170.695 77.6007 161.774 73.6839 141.234 77.5804C132.028 79.3251 124.976 78.5977 120.267 75.3473C116.203 72.5648 115.496 68.9481 115.466 68.7955C115.422 68.5331 115.483 68.264 115.635 68.046C115.788 67.828 116.019 67.6784 116.28 67.6291C116.541 67.5799 116.811 67.635 117.032 67.7827C117.253 67.9304 117.408 68.1588 117.462 68.4191C117.559 68.8972 119.932 79.5489 140.832 75.5813C168.348 70.3622 173.271 79.142 174.119 81.9753C175.313 85.9328 173.012 90.277 168.765 92.0726C165.857 93.2379 162.885 94.2349 159.864 95.0585C151.4 97.5561 142.656 100.145 137.759 108.961C137.673 109.113 137.55 109.241 137.4 109.332C137.251 109.423 137.08 109.474 136.905 109.48Z" fill="black" fill-opacity="0.2"/>
<path d="M-nan -nanL105.402 29.3934C104.957 29.3926 104.525 29.2459 104.172 28.9758C103.819 28.7057 103.564 28.3271 103.446 27.8979L101.368 20.2677C101.297 20.0099 101.278 19.7407 101.312 19.4755C101.346 19.2103 101.431 18.9543 101.563 18.7221C101.696 18.49 101.872 18.2862 102.083 18.1224C102.294 17.9586 102.535 17.838 102.793 17.7676C103.05 17.6971 103.319 17.6781 103.584 17.7117C103.849 17.7452 104.105 17.8307 104.337 17.9632C104.568 18.0957 104.772 18.2726 104.936 18.4839C105.099 18.6951 105.22 18.9366 105.29 19.1944L107.368 26.8246C107.438 27.0824 107.457 27.3516 107.423 27.6166C107.389 27.8817 107.303 28.1375 107.171 28.3694C107.038 28.6014 106.861 28.8049 106.65 28.9684C106.439 29.1318 106.198 29.2521 105.94 29.3222C105.765 29.3712 105.584 29.3951 105.402 29.3934L-nan -nanZ" fill="black" fill-opacity="0.2"/>
<path d="M133.375 110.879C133.724 108.998 134.518 107.116 136.038 105.954C136.895 105.3 137.954 104.932 139.013 105.69C141.437 107.425 136.244 110.889 138.322 111.58C140.4 112.272 144.551 110.563 145.943 115.05C147.335 119.536 143.169 121.632 139.018 120.594C135.425 119.696 132.341 116.456 133.375 110.879Z" fill="white"/>
<path d="M-nan -nanL141.091 121.108C140.37 121.107 139.651 121.017 138.952 120.838C137.867 120.592 136.848 120.114 135.964 119.438C135.079 118.763 134.35 117.904 133.826 116.921C132.583 114.544 132.622 111.472 133.923 108.038C133.926 108.029 133.928 108.02 133.928 108.01C133.928 107.996 133.931 107.983 133.938 107.971C134.083 107.725 135.477 105.433 137.25 105.064C137.577 104.994 137.915 104.995 138.241 105.067C138.567 105.139 138.874 105.28 139.14 105.481C140.665 106.565 139.582 108.233 138.805 109.454C138.519 109.904 138.227 110.364 138.107 110.711C138.019 110.965 138.124 111.256 138.378 111.341C139.043 111.5 139.728 111.564 140.41 111.53C142.493 111.53 145.084 111.529 146.136 114.973C146.847 117.288 146.101 118.722 145.344 119.521C144.776 120.056 144.108 120.471 143.377 120.744C142.647 121.016 141.87 121.14 141.091 121.108L-nan -nanZM-nan -nanL134.395 108.228C133.145 111.519 133.105 114.444 134.273 116.688C134.766 117.605 135.45 118.406 136.278 119.037C137.106 119.668 138.06 120.114 139.074 120.345C141.447 120.94 143.779 120.477 145.018 119.17C145.963 118.152 146.197 116.769 145.694 115.1C144.749 112.048 142.468 112.048 140.451 112.018C139.708 112.054 138.964 111.982 138.241 111.804C138.1 111.769 137.97 111.7 137.861 111.605C137.751 111.509 137.666 111.389 137.611 111.255C137.413 110.7 137.87 109.988 138.399 109.159C139.323 107.704 139.923 106.616 138.866 105.878C138.658 105.716 138.416 105.602 138.159 105.544C137.902 105.486 137.635 105.486 137.377 105.542C135.853 105.893 134.522 108.015 134.395 108.228L-nan -nanZ" fill="black" fill-opacity="0.2"/>
<path d="M-nan -nanL144.176 120.36C144.126 120.36 144.076 120.346 144.034 120.32C143.978 120.282 143.939 120.224 143.926 120.159C143.913 120.093 143.926 120.025 143.963 119.969C146.874 115.523 142.174 112.211 141.971 112.074C141.916 112.035 141.878 111.976 141.866 111.909C141.853 111.843 141.867 111.774 141.905 111.718C141.923 111.69 141.947 111.666 141.975 111.648C142.003 111.629 142.034 111.617 142.066 111.611C142.099 111.604 142.133 111.605 142.165 111.612C142.198 111.619 142.228 111.632 142.256 111.652L-nan -nanL142.256 111.652C142.306 111.687 147.57 115.385 144.379 120.243C144.357 120.278 144.328 120.307 144.292 120.327C144.257 120.348 144.217 120.359 144.176 120.36L-nan -nanZ" fill="black" fill-opacity="0.2"/>
<path d="M135.992 164.086L85.3755 171.996C82.0021 172.505 78.5626 169.697 77.6989 165.678L51.4128 43.5651C49.8886 37.8068 55.0656 34.7395 58.439 34.2105L106.571 27.4247C109.944 26.9161 113.379 29.724 114.248 33.7425L143.912 155.657C144.776 159.681 142.698 163.084 135.992 164.086Z" fill="white"/>
<path d="M-nan -nanL84.5616 172.317C81.3559 172.317 78.2721 169.539 77.449 165.734L51.1629 43.616C50.8761 42.6626 50.8002 41.6582 50.9406 40.6725C51.081 39.6868 51.4342 38.7437 51.9757 37.9086C53.5608 35.4873 56.4262 34.2665 58.4025 33.9612L106.535 27.1704C110.03 26.6261 113.601 29.551 114.49 33.6916L144.155 155.601C144.384 156.459 144.428 157.356 144.287 158.233C144.145 159.109 143.819 159.946 143.332 160.688C142.032 162.57 139.578 163.791 136.026 164.325L85.4151 172.235C85.1333 172.285 84.8479 172.312 84.5616 172.317L-nan -nanZM-nan -nanL107.383 27.6129C107.123 27.613 106.863 27.6335 106.606 27.674L58.4736 34.4648C56.6091 34.7548 53.9012 35.9044 52.4025 38.1884C51.8988 38.9655 51.571 39.8435 51.442 40.7609C51.313 41.6783 51.3859 42.6128 51.6557 43.499L77.9469 165.622C78.7852 169.509 82.0976 172.235 85.3339 171.726L135.95 163.796C139.359 163.288 141.701 162.133 142.91 160.373C143.36 159.687 143.66 158.913 143.789 158.103C143.919 157.293 143.876 156.465 143.662 155.673L113.998 33.8036C113.231 30.2276 110.36 27.6129 107.383 27.6129L-nan -nanZ" fill="black" fill-opacity="0.2"/>
<path d="M139.451 162.703L88.8444 170.613C85.471 171.121 82.0366 168.308 81.1729 164.29L54.8715 42.1764C54.0079 38.1579 56.04 34.4751 59.4134 33.946L110.03 26.0361C113.403 25.5274 116.843 28.3404 117.706 32.359L143.993 154.472C144.861 158.491 142.824 162.174 139.451 162.703Z" fill="black" fill-opacity="0.2"/>
<path d="M-nan -nanL88.0256 170.918C84.8148 170.918 81.731 168.14 80.913 164.335L54.6218 42.2222C54.3755 41.187 54.3408 40.1126 54.5198 39.0637C54.6988 38.0147 55.0877 37.0128 55.6633 36.1181C56.0837 35.4849 56.6301 34.9453 57.2682 34.5331C57.9063 34.1208 58.6225 33.8448 59.372 33.7222L109.988 25.8123C113.489 25.2629 117.06 28.1878 117.954 32.3285L144.22 154.411C144.475 155.45 144.516 156.53 144.341 157.585C144.167 158.641 143.78 159.65 143.204 160.551C142.782 161.184 142.235 161.723 141.596 162.135C140.957 162.547 140.24 162.824 139.49 162.947L88.8741 170.857C88.5934 170.9 88.3096 170.92 88.0256 170.918L-nan -nanZM110.85 26.2243C110.848 26.2212 110.845 26.2192 110.841 26.2192C110.583 26.2196 110.325 26.24 110.07 26.2803L59.4533 34.1902C58.7712 34.3018 58.1196 34.5533 57.5391 34.9288C56.9586 35.3043 56.4618 35.7958 56.0799 36.3724C55.5411 37.2153 55.1783 38.1586 55.0133 39.1456C54.8483 40.1326 54.8845 41.1428 55.1197 42.1154L81.4058 164.229C82.2441 168.11 85.5566 170.841 88.7979 170.333L139.414 162.418C140.096 162.306 140.747 162.055 141.326 161.679C141.906 161.303 142.402 160.812 142.783 160.236C143.324 159.394 143.688 158.45 143.854 157.463C144.02 156.476 143.984 155.465 143.748 154.493L117.457 32.4098C116.69 28.8514 113.823 26.2328 110.858 26.2294C110.854 26.2294 110.851 26.2274 110.85 26.2243Z" fill="black" fill-opacity="0.2"/>
<path d="M133.267 118.314C136.759 134.534 125.893 150.352 109.501 152.913C94.3801 155.276 80.0431 145.427 76.8224 130.465L65.0677 75.8572C61.5768 59.6396 72.4402 43.8233 88.8301 41.2609C103.951 38.8969 118.289 48.7446 121.51 63.7066L133.267 118.314Z" fill="black" fill-opacity="0.15"/>
<path d="M82.5599 157.377C82.5027 157.377 82.4472 157.357 82.4028 157.321C82.3584 157.285 82.3277 157.234 82.316 157.178L58.3872 46.0322C58.3735 45.9639 58.3862 45.893 58.4228 45.8338C58.4429 45.8053 58.4686 45.7811 58.4982 45.7627C58.5279 45.7444 58.561 45.7322 58.5955 45.727L115.73 36.7997C115.794 36.7904 115.86 36.8056 115.914 36.8423C115.967 36.8791 116.005 36.9347 116.02 36.9981L139.949 148.139C139.956 148.173 139.956 148.208 139.949 148.243C139.942 148.277 139.928 148.309 139.908 148.337C139.868 148.394 139.808 148.432 139.74 148.444L82.6407 157.37C82.614 157.375 82.587 157.377 82.5599 157.377ZM88.8675 41.5126C72.6222 44.0516 61.8537 59.7274 65.3123 75.802L77.062 130.411C80.2532 145.243 94.4655 155.006 109.455 152.664C125.702 150.125 136.471 134.447 133.011 118.372L121.259 63.7632C118.068 48.9323 103.856 39.1701 88.8675 41.5126Z" fill="black" fill-opacity="0.2"/>
<path d="M91.1155 71.5017C91.6998 74.3045 91.339 76.7309 90.323 76.9191C89.3069 77.1073 88.0114 74.9861 87.4322 72.1833C86.853 69.3805 87.2087 66.9541 88.2247 66.7659C89.2408 66.5777 90.5363 68.6734 91.1155 71.5017Z" fill="black" fill-opacity="0.2"/>
<path d="M103.664 69.1516C104.243 71.9545 103.887 74.3809 102.866 74.5742C101.845 74.7675 100.554 72.6412 99.9752 69.8384C99.396 67.0355 99.7516 64.6092 100.768 64.4209C101.784 64.2327 103.069 66.3488 103.664 69.1516Z" fill="black" fill-opacity="0.2"/>
<path d="M97.248 94.0107C91.243 94.0107 85.3243 90.3227 81.641 84.0813C81.5374 83.8518 81.5225 83.5919 81.5992 83.3521C81.6759 83.1122 81.8387 82.9094 82.0562 82.7828C82.2736 82.6562 82.5302 82.6149 82.7764 82.6668C83.0225 82.7187 83.2407 82.8602 83.3886 83.0639C87.1786 89.4834 93.5038 92.9068 99.5241 91.7877C105.382 90.7043 109.853 85.4293 110.904 78.3586C110.924 78.225 110.97 78.0966 111.039 77.9807C111.108 77.8649 111.2 77.7638 111.308 77.6832C111.416 77.6027 111.539 77.5443 111.67 77.5114C111.801 77.4784 111.937 77.4716 112.07 77.4914C112.204 77.5111 112.332 77.5569 112.448 77.6262C112.563 77.6956 112.664 77.787 112.745 77.8954C112.825 78.0038 112.884 78.127 112.916 78.258C112.949 78.389 112.956 78.5252 112.936 78.6588C111.753 86.6043 106.642 92.5406 99.9153 93.7919C99.0347 93.9462 98.1419 94.0194 97.248 94.0107Z" fill="black" fill-opacity="0.2"/>
<path d="M72.5495 87.347L70.1701 92.2186C70.1085 92.3447 70.1608 92.4969 70.2868 92.5586C70.4128 92.6203 70.5649 92.5682 70.6265 92.4421L73.0059 87.5705C73.0675 87.4444 73.0152 87.2922 72.8892 87.2304C72.7632 87.1687 72.6111 87.2209 72.5495 87.347Z" fill="white"/>
<path d="M94.3734 42.6971L75.1164 82.1242C75.0548 82.2503 75.107 82.4026 75.2331 82.4643C75.3591 82.526 75.5112 82.4738 75.5728 82.3477L94.8298 42.9206C94.8913 42.7945 94.8391 42.6423 94.7131 42.5806C94.587 42.5189 94.4349 42.571 94.3734 42.6971Z" fill="white"/>
<path d="M88.2828 43.0552L80.3655 58.2378C80.3006 58.3623 80.3489 58.5158 80.4732 58.5809C80.5976 58.6459 80.751 58.5977 80.8159 58.4733L88.7332 43.2906C88.7981 43.1662 88.7498 43.0126 88.6255 42.9476C88.5011 42.8826 88.3477 42.9308 88.2828 43.0552Z" fill="white"/>
<path d="M126.534 131.567L117.72 149.022C117.657 149.147 117.707 149.3 117.832 149.364C117.957 149.427 118.11 149.377 118.173 149.252L126.987 131.797C127.05 131.671 127 131.518 126.875 131.455C126.75 131.392 126.597 131.442 126.534 131.567Z" fill="white"/>
<path d="M130.728 123.292L128.147 128.404C128.084 128.529 128.134 128.682 128.259 128.745C128.384 128.809 128.537 128.758 128.6 128.633L131.181 123.521C131.245 123.396 131.194 123.243 131.069 123.18C130.944 123.116 130.791 123.166 130.728 123.292Z" fill="white"/>
<path d="M94.0475 35.1821C94.0171 35.1923 93.9858 35.1998 93.9541 35.2048L78.2168 37.6441C77.8811 37.6627 77.5507 37.5543 77.291 37.3404C77.0313 37.1266 76.8613 36.8228 76.8147 36.4894L-nan -nanL76.8147 36.4894C76.7642 36.3435 76.7429 36.189 76.7521 36.0348C76.7613 35.8806 76.8007 35.7297 76.8682 35.5908C76.9357 35.4519 77.0299 35.3277 77.1453 35.2253C77.2608 35.1229 77.3953 35.0442 77.5412 34.9939L77.6428 34.9634L93.4175 32.5573C93.7533 32.5388 94.0837 32.6472 94.3434 32.861C94.6031 33.0749 94.7731 33.3786 94.8197 33.712L-nan -nanL94.8197 33.712C94.9119 34.0095 94.8823 34.3315 94.7375 34.6071C94.5927 34.8828 94.3445 35.0896 94.0475 35.1821Z" fill="white"/>
<path d="M-nan -nanL78.0683 37.929C77.7773 37.8958 77.4994 37.7895 77.2603 37.6199C77.0213 37.4504 76.829 37.2231 76.7013 36.9591C76.5735 36.6952 76.5145 36.4032 76.5297 36.1103C76.5449 35.8174 76.6337 35.5331 76.7881 35.2838C76.8809 35.1472 77.0011 35.0314 77.141 34.9438C77.281 34.8563 77.4376 34.7988 77.6009 34.7752L93.4163 32.2877C93.8153 32.2626 94.2092 32.3873 94.5212 32.6375C94.8331 32.8878 95.0406 33.2455 95.1031 33.6408C95.1551 33.8582 95.1625 34.0838 95.125 34.3042C95.0874 34.5245 95.0057 34.7349 94.8846 34.9227C94.7908 35.0595 94.6696 35.1753 94.5288 35.2628C94.3881 35.3504 94.2307 35.4078 94.0666 35.4314L-nan -nanL94.0666 35.4314L78.2766 37.8984C78.2081 37.9139 78.1385 37.9242 78.0683 37.929L-nan -nanZM93.584 32.7862C93.5096 32.7862 93.4353 32.792 93.3618 32.8035L77.667 35.2584C77.4731 35.2947 77.3015 35.4062 77.1894 35.5687C77.1065 35.6996 77.0511 35.846 77.0266 35.9991C77.0022 36.1522 77.0092 36.3086 77.0472 36.4589C77.0833 36.7272 77.2165 36.9728 77.4217 37.1491C77.6268 37.3254 77.8895 37.4201 78.1598 37.4152L93.9498 34.9481C94.0459 34.9309 94.1375 34.8939 94.2188 34.8397C94.3001 34.7854 94.3694 34.715 94.4223 34.6327C94.59 34.3528 94.6398 34.0176 94.5607 33.7009C94.4816 33.3842 94.2802 33.1119 94.0006 32.9439C93.8716 32.8686 93.7305 32.8161 93.5837 32.7889C93.5822 32.7886 93.5824 32.7862 93.584 32.7862Z" fill="black" fill-opacity="0.2"/>
<path d="M114.247 157.331C113.957 155.993 112.814 155.047 111.706 155.225C110.599 155.403 109.908 156.629 110.182 157.967C110.457 159.304 111.615 160.251 112.722 160.073C113.83 159.895 114.531 158.669 114.247 157.331Z" fill="white"/>
<path d="M112.459 160.347C111.311 160.347 110.208 159.366 109.919 158.023C109.831 157.653 109.819 157.27 109.884 156.896C109.948 156.521 110.088 156.164 110.295 155.846C110.447 155.614 110.646 155.418 110.879 155.268C111.111 155.118 111.373 155.018 111.646 154.976C112.901 154.777 114.186 155.81 114.491 157.28C114.58 157.648 114.592 158.031 114.529 158.404C114.465 158.778 114.326 159.134 114.12 159.452C113.966 159.683 113.766 159.88 113.532 160.03C113.299 160.181 113.037 160.282 112.764 160.327C112.663 160.341 112.561 160.348 112.459 160.347ZM111.951 155.459C111.789 155.459 111.624 155.466 111.471 155.518C111.351 155.558 111.237 155.613 111.131 155.682C110.956 155.795 110.807 155.942 110.691 156.115C110.525 156.378 110.413 156.671 110.362 156.978C110.312 157.285 110.323 157.598 110.396 157.901C110.655 159.106 111.676 159.966 112.667 159.808C112.873 159.776 113.07 159.701 113.244 159.588C113.419 159.475 113.569 159.326 113.683 159.152C113.852 158.891 113.965 158.599 114.015 158.292C114.066 157.986 114.053 157.673 113.978 157.372L-nan -nanL113.978 157.372C113.897 156.873 113.654 156.415 113.287 156.069C112.919 155.723 112.448 155.509 111.946 155.459H111.951Z" fill="black" fill-opacity="0.2"/>
<path d="M107.45 116.861L84.1206 120.884C82.5964 121.149 81.5803 122.41 81.8242 123.692L84.8318 138.195L84.9131 138.571L85.177 139.845C85.6738 142.243 88.7912 142.896 90.2081 140.898C90.6368 140.294 91.2875 139.884 92.0178 139.758L111.514 136.394C113.038 136.129 114.054 134.868 113.806 133.591L110.691 118.707C110.442 117.425 108.984 116.596 107.45 116.861Z" fill="white"/>
<path d="M90.3084 141.18C88.8047 143.306 85.4884 142.615 84.9597 140.065L81.5756 123.743C81.5126 123.432 81.5139 123.111 81.5794 122.8C81.645 122.49 81.7733 122.196 81.9566 121.937C82.2054 121.59 82.5209 121.296 82.8847 121.072C83.2485 120.848 83.6532 120.7 84.0752 120.635L107.41 116.611C109.071 116.326 110.666 117.242 110.966 118.646L114.05 133.53C114.112 133.84 114.111 134.159 114.046 134.469C113.982 134.778 113.855 135.071 113.674 135.331C113.424 135.679 113.108 135.973 112.743 136.198C112.379 136.422 111.973 136.572 111.55 136.638L92.2349 139.964C91.457 140.098 90.7641 140.535 90.3084 141.18ZM-nan -nanL108.024 117.069C107.854 117.069 107.684 117.084 107.516 117.115L84.1819 121.138C83.8264 121.191 83.4851 121.315 83.178 121.502C82.8709 121.689 82.6042 121.935 82.3935 122.227C82.2505 122.429 82.1501 122.658 82.0986 122.901C82.047 123.143 82.0454 123.393 82.0938 123.636L85.4109 139.611C85.8764 141.853 88.7921 142.46 90.1143 140.591C90.5154 140.024 91.1252 139.639 91.8097 139.522L111.479 136.144C112.184 136.028 112.814 135.636 113.232 135.056C113.375 134.853 113.476 134.623 113.529 134.38C113.581 134.137 113.584 133.886 113.537 133.642L110.448 118.763C110.255 117.761 109.213 117.069 108.024 117.069L-nan -nanZ" fill="black" fill-opacity="0.2"/>
<path d="M-nan -nanL105.777 125.574C105.791 125.393 105.78 125.21 105.744 125.032C105.736 124.993 105.731 124.954 105.731 124.915C105.731 124.88 105.728 124.844 105.72 124.81C105.296 122.917 103.13 121.712 100.859 122.1C100.029 122.243 99.2987 122.577 98.7237 123.04C97.9727 123.643 96.3732 123.972 95.4704 123.635C94.6941 123.345 93.8519 123.28 93.0405 123.448C92.4158 123.556 91.8473 123.774 91.3589 124.073C88.9596 125.543 89.9421 129.191 92.2144 130.85C92.5721 131.111 92.979 131.384 93.4418 131.668C93.4743 131.688 93.5068 131.708 93.5393 131.728C96.8728 133.775 101.263 132.989 103.674 129.908C104.564 128.864 105.239 127.654 105.66 126.347C105.713 126.177 105.75 126.002 105.77 125.825C105.771 125.814 105.772 125.803 105.771 125.791C105.769 125.719 105.771 125.646 105.777 125.574L-nan -nanZ" fill="black" fill-opacity="0.15"/>
<path d="M99.36 135.402C99.3503 135.408 99.3387 135.412 99.3272 135.41C99.2994 135.406 99.2726 135.396 99.2485 135.381L-nan -nanL99.2485 135.381C98.776 135.224 97.4653 134.466 93.2841 131.897C89.5855 129.623 89.3467 127.955 89.3315 127.68C89.2466 127.235 89.2518 126.777 89.347 126.334C89.4421 125.891 89.6251 125.472 89.8853 125.101C90.2502 124.597 90.7109 124.171 91.241 123.846C91.7711 123.521 92.3602 123.305 92.9742 123.209C93.7496 123.061 94.5494 123.106 95.3033 123.34C95.3197 123.345 95.3362 123.35 95.3526 123.356C96.3973 123.692 97.8185 123.415 98.6878 122.745C99.2996 122.273 100.023 121.969 100.788 121.861C103.196 121.446 105.499 122.755 105.946 124.783C105.952 124.808 105.955 124.834 105.955 124.86C105.955 124.889 105.958 124.917 105.964 124.944C106.008 125.159 106.024 125.38 106.011 125.6C106.017 125.76 105.979 125.919 105.951 126.077C105.929 126.194 105.902 126.31 105.868 126.424C105.434 127.758 104.743 128.995 103.836 130.066C101.033 133.657 100.018 134.884 99.5945 135.264C99.551 135.303 99.5143 135.352 99.4613 135.377C99.4402 135.386 99.4173 135.392 99.3942 135.392C99.3821 135.393 99.37 135.395 99.36 135.402ZM93.8785 123.611C93.6076 123.609 93.3371 123.633 93.0707 123.682C92.5228 123.763 91.9966 123.953 91.5236 124.241C91.0505 124.529 90.6402 124.91 90.3171 125.361C90.0941 125.678 89.9373 126.037 89.8561 126.416C89.7787 126.778 89.7716 127.152 89.8351 127.516C89.8411 127.551 89.8446 127.586 89.8446 127.621C89.8446 127.627 89.8447 127.631 89.8451 127.636C89.8539 127.753 90.0355 129.27 93.5533 131.434C93.5864 131.454 93.6194 131.475 93.6523 131.495C96.975 133.531 101.051 132.801 103.45 129.73C104.318 128.709 104.978 127.529 105.396 126.256C105.445 126.09 105.479 125.919 105.497 125.747V125.539C105.511 125.368 105.499 125.197 105.462 125.03C105.452 124.977 105.457 124.921 105.444 124.868C105.026 123.089 103.002 121.978 100.889 122.349C99.2434 122.629 97.9479 123.748 97.6685 125.132C97.6619 125.164 97.6488 125.195 97.6301 125.223C97.6113 125.25 97.5873 125.274 97.5593 125.292C97.5314 125.31 97.5001 125.322 97.4674 125.328C97.4347 125.333 97.4011 125.332 97.3687 125.325C97.337 125.319 97.3067 125.308 97.2796 125.29C97.2525 125.273 97.2293 125.25 97.2113 125.223C96.8252 124.707 96.321 124.291 95.741 124.01C95.1611 123.73 94.5224 123.593 93.8785 123.611Z" fill="black" fill-opacity="0.2"/>
<path d="M69.9596 129.402C70.0296 127.481 69.6614 125.461 68.4188 123.994C67.7258 123.176 66.7763 122.595 65.5858 123.097C62.8474 124.252 67.1556 128.774 64.9812 128.998C62.8068 129.221 59.1234 126.627 56.7915 130.722C54.4596 134.817 58.0667 137.752 62.3444 137.645C66.0451 137.553 69.7533 135.062 69.9596 129.402Z" fill="white"/>
<path d="M62.1155 137.899C59.5753 137.899 57.345 136.882 56.3594 135.209C55.7955 134.267 55.3738 132.701 56.5728 130.6C58.3408 127.487 60.8759 128.056 62.9081 128.484C63.57 128.666 64.2539 128.755 64.9403 128.748C65.2095 128.718 65.2705 128.616 65.2908 128.586C65.4737 128.296 65.1994 127.568 64.9352 126.81C64.4271 125.452 63.7616 123.59 65.4686 122.863C65.7726 122.725 66.1026 122.653 66.4365 122.653C66.7703 122.653 67.1003 122.725 67.4043 122.863C69.0331 123.613 69.8988 126.1 70.0058 126.397C70.0125 126.416 70.0156 126.434 70.0156 126.454C70.0156 126.461 70.0162 126.468 70.0172 126.475C70.5478 130.112 69.9123 133.12 68.1867 135.173C67.4607 136.018 66.562 136.696 65.5514 137.163C64.5408 137.63 63.4419 137.874 62.3289 137.879L62.1155 137.899ZM-nan -nanL60.5101 128.647C59.24 128.647 58.0004 129.115 57.0148 130.849C56.1613 132.345 56.0851 133.764 56.7912 134.949C57.7159 136.475 59.8903 137.452 62.3391 137.391C63.3808 137.385 64.409 137.155 65.354 136.716C66.299 136.277 67.1386 135.64 67.8158 134.847C68.91 133.55 69.5376 131.835 69.6803 129.793C69.8304 127.646 69.4772 125.277 67.9084 123.803C67.694 123.601 67.4597 123.432 67.2061 123.316C66.9673 123.205 66.7073 123.148 66.4441 123.148C66.1809 123.148 65.9208 123.205 65.682 123.316C64.5084 123.824 64.8387 124.999 65.428 126.622C65.7633 127.543 66.0529 128.341 65.7379 128.84C65.6551 128.958 65.5459 129.056 65.4189 129.125C65.2919 129.194 65.1507 129.232 65.0063 129.237C64.2621 129.257 63.519 129.166 62.8014 128.967C62.0511 128.779 61.2831 128.672 60.5101 128.647L-nan -nanZ" fill="black" fill-opacity="0.2"/>
<path d="M60.2 130.859C60.0526 131.409 59.6919 131.785 59.3668 131.699C59.0416 131.612 58.9146 131.103 59.067 130.554C59.2194 130.005 59.5751 129.623 59.9002 129.71C60.2254 129.796 60.3473 130.31 60.2 130.859Z" fill="black" fill-opacity="0.2"/>
<path d="M58.1638 131.75C58.0164 132.299 57.6557 132.675 57.3306 132.594C57.0054 132.513 56.8784 131.994 57.0258 131.444C57.1731 130.895 57.5338 130.519 57.864 130.605C58.1943 130.691 58.3111 131.185 58.1638 131.75Z" fill="black" fill-opacity="0.2"/>
<path d="M59.4399 133.983C59.2926 134.532 58.9319 134.913 58.6067 134.827C58.2816 134.74 58.1597 134.227 58.307 133.677C58.4543 133.128 58.815 132.752 59.1402 132.838C59.4653 132.925 59.5873 133.433 59.4399 133.983Z" fill="black" fill-opacity="0.2"/>
<path d="M-nan -nanL59.6531 137.116C59.6028 137.117 59.5535 137.102 59.5118 137.074C59.4701 137.045 59.4378 137.005 59.4194 136.958C59.4061 136.928 59.399 136.896 59.3985 136.863C59.398 136.83 59.404 136.798 59.4164 136.768C59.4287 136.737 59.447 136.71 59.4702 136.686C59.4934 136.663 59.5211 136.645 59.5515 136.633L-nan -nanL59.5515 136.633C59.9755 136.455 60.3657 136.206 60.7047 135.895C60.7552 135.855 60.8193 135.835 60.8839 135.84C60.9484 135.845 61.0086 135.875 61.0521 135.923C61.0955 135.971 61.119 136.034 61.1177 136.099C61.1164 136.164 61.0905 136.225 61.0451 136.272C60.6636 136.624 60.2234 136.906 59.7445 137.106C59.7147 137.114 59.6839 137.117 59.6531 137.116L-nan -nanZ" fill="black" fill-opacity="0.2"/>
<path d="M-nan -nanL61.507 135.641C61.4518 135.642 61.398 135.624 61.3545 135.59C61.3279 135.57 61.3054 135.545 61.2884 135.516C61.2714 135.487 61.2602 135.456 61.2555 135.423C61.2508 135.389 61.2526 135.356 61.2609 135.323C61.2692 135.291 61.2837 135.261 61.3037 135.234L-nan -nanL61.3037 135.234C61.6924 134.717 61.9865 134.135 62.1725 133.515C62.3908 132.88 62.4763 132.207 62.4239 131.537C62.3715 130.868 62.1821 130.216 61.8677 129.623C61.8341 129.564 61.8248 129.495 61.8419 129.429C61.859 129.363 61.9011 129.307 61.9591 129.272C62.0184 129.241 62.0872 129.233 62.1521 129.25C62.2169 129.267 62.2731 129.308 62.3097 129.364C62.6566 130.019 62.8666 130.738 62.9269 131.477C62.9872 132.216 62.8964 132.959 62.6602 133.662C62.4575 134.339 62.1358 134.975 61.7102 135.539C61.686 135.57 61.6552 135.595 61.62 135.613C61.5849 135.631 61.5463 135.64 61.507 135.641L-nan -nanZ" fill="black" fill-opacity="0.2"/>
</svg>
