<svg width="258" height="210" viewBox="0 0 258 210" fill="none" xmlns="http://www.w3.org/2000/svg">
<path d="M146.66 92.6956C141.141 89.1636 134.526 87.5258 127.902 88.051C121.278 88.5761 115.038 91.2331 110.206 95.5858C105.374 99.9386 102.237 105.729 101.309 112.006C100.382 118.283 101.719 124.674 105.101 130.131" stroke="#0C0C0C" stroke-width="0.969642" stroke-linecap="round" stroke-linejoin="round"/>
<path d="M157.081 104.552C156.51 103.328 155.85 102.143 155.105 101.008" stroke="#0C0C0C" stroke-width="0.969642" stroke-linecap="round" stroke-linejoin="round"/>
<path d="M154.581 131.493C156.766 128.392 158.279 124.907 159.032 121.242C159.785 117.576 159.762 113.804 158.966 110.147" stroke="#0C0C0C" stroke-width="0.969642" stroke-linecap="round" stroke-linejoin="round"/>
<path d="M101.194 88.123C99.201 90.03 97.4151 92.1239 95.8633 94.3729" stroke="#0C0C0C" stroke-width="0.969642" stroke-linecap="round" stroke-linejoin="round"/>
<path d="M162.814 139.885C168.711 132.615 171.745 123.602 171.387 114.417C171.029 105.232 167.302 96.4584 160.855 89.6262C154.408 82.7941 145.652 78.3371 136.112 77.0326C126.572 75.728 116.855 77.6588 108.655 82.488" stroke="#0C0C0C" stroke-width="0.969642" stroke-linecap="round" stroke-linejoin="round"/>
<path d="M97.6827 139.885C93.6147 134.863 90.8809 128.978 89.7147 122.73C88.5484 116.482 88.9843 110.058 90.9851 104.006" stroke="#0C0C0C" stroke-width="0.969642" stroke-linecap="round" stroke-linejoin="round"/>
<path d="M84.7871 149.805C87.3468 152.923 90.2505 155.77 93.4482 158.296" stroke="#0C0C0C" stroke-width="0.969642" stroke-linecap="round" stroke-linejoin="round"/>
<path d="M162.959 70.4363C152.648 63.702 140.326 60.3377 127.84 60.8479C115.355 61.3582 103.379 65.7155 93.7097 73.2663C84.0405 80.8171 77.1988 91.1544 74.2109 102.728C71.223 114.301 72.25 126.486 77.1378 137.455" stroke="#0C0C0C" stroke-width="0.969642" stroke-linecap="round" stroke-linejoin="round"/>
<path d="M184.16 95.9699C182.607 92.1533 180.613 88.5138 178.215 85.1189" stroke="#0C0C0C" stroke-width="0.969642" stroke-linecap="round" stroke-linejoin="round"/>
<path d="M170.211 155.67C175.856 150.534 180.347 144.358 183.413 137.516C186.479 130.674 188.055 123.309 188.045 115.868" stroke="#0C0C0C" stroke-width="0.969642" stroke-linecap="round" stroke-linejoin="round"/>
<path d="M49.5703 115.868C49.5704 134.147 56.357 151.836 68.7268 165.799C81.0967 179.761 98.2509 189.096 117.148 192.147" stroke="#0C0C0C" stroke-width="0.969642" stroke-linecap="round" stroke-linejoin="round"/>
<path d="M195.447 161.897C205.328 149.146 210.863 133.808 211.304 117.958C211.745 102.108 207.07 86.5117 197.912 73.2789C188.754 60.0461 175.554 49.8157 160.1 43.9721C144.646 38.1284 127.682 36.9534 111.505 40.6062" stroke="#0C0C0C" stroke-width="0.969642" stroke-linecap="round" stroke-linejoin="round"/>
<path d="M49.5703 115.868C49.571 98.5274 55.6791 81.6897 66.9147 68.0563C78.1502 54.4229 93.8618 44.7842 111.529 40.6865" stroke="#0C0C0C" stroke-width="0.969642" stroke-linecap="round" stroke-linejoin="round"/>
<path d="M178.215 178.24C180.275 176.796 182.256 175.264 184.16 173.644" stroke="#0C0C0C" stroke-width="0.969642" stroke-linecap="round" stroke-linejoin="round"/>
<path d="M143.775 192.147C152.999 190.674 161.883 187.681 170.03 183.301" stroke="#0C0C0C" stroke-width="0.969642" stroke-linecap="round" stroke-linejoin="round"/>
<path d="M130.284 185.219C122.07 185.21 114.195 182.094 108.387 176.554C102.579 171.015 99.3113 163.504 99.3018 155.67V145.721C99.3018 145.295 99.4794 144.886 99.7957 144.584C100.112 144.282 100.541 144.113 100.988 144.113H105.204C105.652 144.113 106.081 144.282 106.397 144.584C106.713 144.886 106.891 145.295 106.891 145.721C106.891 146.148 106.713 146.557 106.397 146.859C106.081 147.16 105.652 147.33 105.204 147.33H102.693V155.67C102.693 162.654 105.602 169.352 110.779 174.29C115.957 179.228 122.98 182.002 130.302 182.002C137.624 182.002 144.647 179.228 149.825 174.29C155.003 169.352 157.911 162.654 157.911 155.67V147.33H155.382C154.934 147.33 154.506 147.16 154.189 146.859C153.873 146.557 153.695 146.148 153.695 145.721C153.695 145.295 153.873 144.886 154.189 144.584C154.506 144.282 154.934 144.113 155.382 144.113H159.598C160.045 144.113 160.474 144.282 160.79 144.584C161.107 144.886 161.284 145.295 161.284 145.721V155.67C161.275 163.507 158.005 171.02 152.193 176.56C146.381 182.1 138.501 185.215 130.284 185.219Z" fill="#263238"/>
<path d="M162.953 209.943V206.726C162.953 206.303 162.867 205.885 162.697 205.494C162.528 205.103 162.28 204.748 161.966 204.45C161.653 204.151 161.281 203.914 160.871 203.752C160.462 203.591 160.023 203.508 159.58 203.509H100.988C100.545 203.508 100.106 203.591 99.6964 203.752C99.2869 203.914 98.9147 204.151 98.6014 204.45C98.288 204.748 98.0396 205.103 97.8704 205.494C97.7011 205.885 97.6144 206.303 97.6152 206.726V209.943H162.953Z" fill="#263238"/>
<path d="M133.573 207.427C133.628 207.197 133.657 206.962 133.657 206.726V183.611H126.911V206.726C126.911 206.962 126.94 207.197 126.995 207.427H133.573Z" fill="#263238"/>
<path d="M151.148 115.868C151.195 113.226 150.69 110.602 149.663 108.148C148.635 105.694 147.106 103.46 145.164 101.576C143.221 99.6916 140.905 98.1951 138.35 97.1736C135.795 96.1521 133.052 95.626 130.282 95.626C127.511 95.626 124.769 96.1521 122.213 97.1736C119.658 98.1951 117.342 99.6916 115.4 101.576C113.458 103.46 111.928 105.694 110.901 108.148C109.873 110.602 109.368 113.226 109.415 115.868V155.67C109.508 160.89 111.747 165.866 115.651 169.526C119.554 173.185 124.808 175.236 130.282 175.236C135.755 175.236 141.01 173.185 144.913 169.526C148.816 165.866 151.055 160.89 151.148 155.67V115.868Z" stroke="#0C0C0C" stroke-width="0.969642" stroke-linecap="round" stroke-linejoin="round"/>
<path d="M151.148 115.868C151.195 113.226 150.69 110.602 149.663 108.148C148.635 105.694 147.106 103.46 145.164 101.576C143.221 99.6916 140.905 98.1951 138.35 97.1736C135.795 96.1521 133.052 95.626 130.282 95.626C127.511 95.626 124.769 96.1521 122.213 97.1736C119.658 98.1951 117.342 99.6916 115.4 101.576C113.458 103.46 111.928 105.694 110.901 108.148C109.873 110.602 109.368 113.226 109.415 115.868V155.67C109.508 160.89 111.747 165.866 115.651 169.526C119.554 173.185 124.808 175.236 130.282 175.236C135.755 175.236 141.01 173.185 144.913 169.526C148.816 165.866 151.055 160.89 151.148 155.67V115.868Z" fill="#A6A6A6"/>
<path d="M121.641 117.965H109.414V122.79H121.641C122.312 122.79 122.955 122.536 123.429 122.083C123.904 121.631 124.17 121.017 124.17 120.377C124.17 119.737 123.904 119.124 123.429 118.671C122.955 118.219 122.312 117.965 121.641 117.965Z" fill="white"/>
<path d="M151.148 117.965H138.927C138.256 117.965 137.613 118.219 137.138 118.671C136.664 119.124 136.397 119.737 136.397 120.377C136.397 121.017 136.664 121.631 137.138 122.083C137.613 122.536 138.256 122.79 138.927 122.79H151.148V117.965Z" fill="white"/>
<path d="M130.284 117.965C129.783 117.965 129.294 118.106 128.878 118.371C128.462 118.636 128.138 119.013 127.946 119.454C127.755 119.895 127.705 120.38 127.803 120.848C127.9 121.316 128.141 121.746 128.495 122.083C128.849 122.421 129.299 122.65 129.79 122.744C130.281 122.837 130.789 122.789 131.252 122.606C131.714 122.424 132.109 122.114 132.387 121.718C132.665 121.321 132.813 120.854 132.813 120.377C132.813 119.737 132.547 119.124 132.072 118.671C131.598 118.219 130.954 117.965 130.284 117.965Z" fill="white"/>
<path d="M130.284 127.719C129.783 127.719 129.294 127.86 128.878 128.125C128.462 128.39 128.138 128.767 127.946 129.208C127.755 129.649 127.705 130.134 127.803 130.602C127.9 131.07 128.141 131.5 128.495 131.837C128.849 132.175 129.299 132.404 129.79 132.497C130.281 132.59 130.789 132.543 131.252 132.36C131.714 132.177 132.109 131.868 132.387 131.472C132.665 131.075 132.813 130.608 132.813 130.131C132.813 129.491 132.547 128.878 132.072 128.425C131.598 127.973 130.954 127.719 130.284 127.719Z" fill="white"/>
<path d="M130.284 137.455C129.783 137.455 129.294 137.597 128.878 137.862C128.462 138.127 128.138 138.504 127.946 138.944C127.755 139.385 127.705 139.87 127.803 140.338C127.9 140.806 128.141 141.236 128.495 141.574C128.849 141.911 129.299 142.141 129.79 142.234C130.281 142.327 130.789 142.279 131.252 142.097C131.714 141.914 132.109 141.605 132.387 141.208C132.665 140.811 132.813 140.345 132.813 139.868C132.813 139.228 132.547 138.614 132.072 138.162C131.598 137.709 130.954 137.455 130.284 137.455Z" fill="white"/>
<path d="M121.641 127.719H109.414V132.544H121.641C122.312 132.544 122.955 132.29 123.429 131.837C123.904 131.385 124.17 130.771 124.17 130.131C124.17 129.491 123.904 128.878 123.429 128.425C122.955 127.973 122.312 127.719 121.641 127.719Z" fill="white"/>
<path d="M151.148 127.719H138.927C138.256 127.719 137.613 127.973 137.138 128.425C136.664 128.878 136.397 129.491 136.397 130.131C136.397 130.771 136.664 131.385 137.138 131.837C137.613 132.29 138.256 132.544 138.927 132.544H151.148V127.719Z" fill="white"/>
<path d="M121.641 137.455H109.414V142.28H121.641C122.312 142.28 122.955 142.026 123.429 141.574C123.904 141.121 124.17 140.508 124.17 139.868C124.17 139.228 123.904 138.614 123.429 138.162C122.955 137.709 122.312 137.455 121.641 137.455Z" fill="white"/>
<path d="M151.148 137.455H138.927C138.256 137.455 137.613 137.709 137.138 138.162C136.664 138.614 136.397 139.228 136.397 139.868C136.397 140.508 136.664 141.121 137.138 141.574C137.613 142.026 138.256 142.28 138.927 142.28H151.148V137.455Z" fill="white"/>
<path d="M151.148 115.868C151.195 113.226 150.69 110.602 149.663 108.148C148.635 105.694 147.106 103.46 145.164 101.576C143.221 99.6916 140.905 98.1951 138.35 97.1736C135.795 96.1521 133.052 95.626 130.282 95.626C127.511 95.626 124.769 96.1521 122.213 97.1736C119.658 98.1951 117.342 99.6916 115.4 101.576C113.458 103.46 111.928 105.694 110.901 108.148C109.873 110.602 109.368 113.226 109.415 115.868V155.67C109.508 160.89 111.747 165.866 115.651 169.526C119.554 173.185 124.808 175.236 130.282 175.236C135.755 175.236 141.01 173.185 144.913 169.526C148.816 165.866 151.055 160.89 151.148 155.67V115.868Z" stroke="#0C0C0C" stroke-width="0.969642" stroke-miterlimit="10"/>
<path d="M109.414 155.67C109.507 160.89 111.746 165.866 115.65 169.526C119.553 173.185 124.807 175.236 130.281 175.236C135.754 175.236 141.009 173.185 144.912 169.526C148.815 165.866 151.054 160.89 151.147 155.67H109.414Z" fill="#263238" stroke="#0C0C0C" stroke-width="0.969642" stroke-miterlimit="10"/>
<path d="M124.659 1.02539L113.173 22.9342H121.725V38.1451L133.205 16.2363H124.659V1.02539Z" fill="#A6A6A6" stroke="#0C0C0C" stroke-width="1.02547" stroke-linecap="round" stroke-linejoin="round"/>
<path d="M227.658 135.581L252.015 143.325L245.974 149.092L257.249 159.845L232.892 152.102L238.933 146.335L227.658 135.581Z" fill="#A6A6A6" stroke="#0C0C0C" stroke-width="1.02547" stroke-linecap="round" stroke-linejoin="round"/>
<path d="M30.5909 147.714L6.23396 155.457L12.275 161.224L1 171.977L25.3569 164.234L19.3159 158.467L30.5909 147.714Z" fill="#A6A6A6" stroke="#0C0C0C" stroke-width="1.02547" stroke-linecap="round" stroke-linejoin="round"/>
</svg>
