<svg width="476" height="572" viewBox="0 0 476 572" fill="none" xmlns="http://www.w3.org/2000/svg">
<g clip-path="url(#clip0_329_5111)">
<path opacity="0.25" d="M236.547 30.6783C207.477 19.8406 175.362 23.4899 145.443 31.2598C121.078 37.5959 96.6759 46.9699 77.8743 64.6249C54.0847 86.9619 41.61 120.999 40.4785 154.725C39.347 188.451 48.7101 221.896 63.0046 251.973C68.2472 263.001 74.3195 274.41 74.0461 286.802C73.4897 311.936 48.7761 327.065 32.9257 345.733C15.4724 366.285 7.80661 394.086 2.92233 421.285C0.640503 433.978 -1.15106 447.031 0.90451 459.764C3.09204 473.268 9.54153 485.66 17.5751 496.377C39.9976 526.253 74.4704 543.738 109.66 551.588C144.849 559.438 181.17 558.606 217.152 557.694L332.573 554.826C370.761 553.874 412.051 551.819 441.677 526.143C466.825 504.388 478.809 467.924 475.424 433.637C472.039 399.349 454.529 367.608 430.4 344.59C422.932 337.461 414.672 330.885 409.562 321.701C401.377 306.994 402.792 288.617 404.253 271.643C407.667 232.002 407.865 186.426 380.379 159.427C357.853 137.29 332.29 129.35 313.847 102.431C293.442 72.6654 270.303 43.2303 236.547 30.6783Z" fill="#1DD3B0" fill-opacity="0.39"/>
<path d="M172.543 53.0152C172.354 52.4438 170.374 48.0024 170.733 55.2409C170.733 55.4915 171.609 56.073 171.675 56.2434C171.763 56.3878 171.875 56.5136 172.006 56.6144C172.307 56.8751 172.798 57.7172 173.118 57.8175C173.599 57.9779 173.599 57.1257 173.59 56.6746C173.571 55.2409 172.986 54.3586 172.543 53.0152Z" fill="url(#paint0_linear_329_5111)"/>
<path d="M147.236 47.1604C148.65 48.9349 158.211 89.9395 172.081 80.4553C174.267 79.1329 176.357 77.6383 178.333 75.9839C177.663 75.8335 178.729 73.648 178.333 73.0665C176.947 71.0614 173.807 70.7004 172.421 68.6953C172.26 68.4547 172.27 68.174 172.015 68.0537C169.366 69.1465 168.451 70.0588 166.697 69.1264C164.943 68.194 161.983 61.4769 160.955 59.6723C156.288 51.2909 156.344 52.6042 153.214 45.3958C152.837 44.5236 153.035 40.7941 153.138 39.8417C153.242 38.8892 154.6 36.6235 154.477 35.5908C154.383 34.7988 153.063 34.7687 152.752 35.4906C152.505 35.9263 152.169 36.2975 151.769 36.5769C151.369 36.8562 150.916 37.0366 150.442 37.1047C150.28 37.1018 150.124 37.0419 149.998 36.9343C147.518 34.6885 148.235 31.6808 146.764 28.7634C146.741 28.7136 146.712 28.6666 146.679 28.623C146.104 27.7909 144.096 26.5277 142.908 29.8762C140.833 35.6911 142.634 41.3756 147.236 47.1604Z" fill="url(#paint1_linear_329_5111)"/>
<path d="M182.019 22.6578C183.188 31.4703 186.894 40.5234 184.065 48.8848L186.771 48.2131L186.828 50.5089C190.675 49.5064 194.673 51.2207 198.643 51.1405C204.602 51.0202 210.099 46.5588 212.456 40.734C214.814 34.9091 214.22 28.0015 211.598 22.3069C208.043 14.6374 200.547 7.03796 192.278 7.01791C189.261 7.01791 187.158 6.91765 184.914 9.37392C181.642 12.9531 181.397 17.9959 182.019 22.6578Z" fill="#161528"/>
<path d="M158.739 116.818H307.719C335.647 116.818 358.287 140.891 358.287 170.585V518.233C358.287 547.928 335.647 572 307.719 572H158.739C130.811 572 108.171 547.928 108.171 518.233V170.585C108.171 140.891 130.811 116.818 158.739 116.818Z" fill="#1DD3B0" fill-opacity="0.39"/>
<path d="M162.851 127.876H303.609C326.355 127.876 344.795 147.483 344.795 171.668V513.36C344.795 537.546 326.355 557.152 303.609 557.152H162.851C140.104 557.152 121.665 537.546 121.665 513.36V171.668C121.665 147.483 140.104 127.876 162.851 127.876Z" fill="url(#paint2_linear_329_5111)"/>
<path d="M171.299 127.876H295.424C317.098 127.876 334.668 146.558 334.668 169.603V515.426C334.668 538.471 317.098 557.152 295.424 557.152H171.299C149.625 557.152 132.055 538.471 132.055 515.426V169.603C132.055 146.558 149.625 127.876 171.299 127.876Z" fill="url(#paint3_linear_329_5111)"/>
<path opacity="0.33" d="M139.446 175.047C142.615 175.107 151.12 178.716 154.222 178.055C155.064 177.928 155.872 177.61 156.588 177.122C157.409 176.481 158.116 170.235 158.559 169.262C162.211 161.355 165.854 153.442 169.488 145.522C168.754 155.436 168.684 165.393 169.28 175.318C169.488 178.786 169.554 182.847 166.998 185.002C166.498 185.423 162.397 186.165 161.812 186.436C159.295 187.559 158.248 190.557 158.691 191.228C159.832 192.953 171.015 194.316 171.279 194.126C175.616 190.968 178.153 185.714 180.058 180.511C182.596 173.551 184.316 166.284 185.178 158.876C185.423 156.78 185.668 154.515 187.063 152.981C188.012 152.074 189.13 151.391 190.345 150.976C193.103 149.68 195.974 148.672 198.916 147.968C204.045 146.965 209.288 147.838 214.521 147.276C236.642 144.87 235.35 119.585 233.426 116.838H184.197C180.522 118.997 176.632 120.712 172.599 121.951C167.639 123.355 161.991 123.796 158.455 127.736C155.966 130.493 155.052 134.423 154.363 138.173C152.8 146.587 151.854 155.118 151.535 163.688C151.44 166.124 151.233 168.921 149.375 170.355C147.829 171.498 140.861 168.881 139.446 175.047Z" fill="#25233A"/>
<path d="M181.435 104.366L158.74 116.818L133.819 161.603L140.013 166.886L161.955 137.601L205.951 117.67C205.951 117.67 196.098 104.868 181.435 104.366Z" fill="#161528"/>
<path d="M202.811 240.805V312.397C202.811 320.887 205.983 329.03 211.629 335.033C217.275 341.036 224.933 344.409 232.918 344.409C240.903 344.409 248.561 341.036 254.207 335.033C259.853 329.03 263.025 320.887 263.025 312.397V240.805C263.025 232.315 259.853 224.172 254.207 218.169C248.561 212.166 240.903 208.793 232.918 208.793C224.933 208.793 217.275 212.166 211.629 218.169C205.983 224.172 202.811 232.315 202.811 240.805Z" fill="white" fill-opacity="0.32"/>
<path d="M192.901 312.097C192.819 317.728 193.792 323.32 195.763 328.548C197.733 333.776 200.662 338.534 204.378 342.547C208.095 346.56 212.525 349.747 217.411 351.922C222.297 354.097 227.541 355.218 232.838 355.218C238.134 355.218 243.378 354.097 248.264 351.922C253.15 349.747 257.58 346.56 261.297 342.547C265.013 338.534 267.942 333.776 269.913 328.548C271.883 323.32 272.856 317.728 272.775 312.097" stroke="white" stroke-opacity="0.32" stroke-width="7" stroke-miterlimit="10" stroke-linecap="round"/>
<path d="M232.832 354.565V407.109" stroke="white" stroke-opacity="0.32" stroke-width="7" stroke-miterlimit="10" stroke-linecap="round"/>
<path d="M237.547 501.751C224.918 501.751 214.681 490.866 214.681 477.439C214.681 464.011 224.918 453.126 237.547 453.126C250.175 453.126 260.412 464.011 260.412 477.439C260.412 490.866 250.175 501.751 237.547 501.751Z" stroke="white" stroke-opacity="0.32" stroke-miterlimit="10"/>
<path d="M237.547 492.808C229.564 492.808 223.092 485.927 223.092 477.439C223.092 468.95 229.564 462.069 237.547 462.069C245.53 462.069 252.002 468.95 252.002 477.439C252.002 485.927 245.53 492.808 237.547 492.808Z" fill="#CC1D1D" fill-opacity="0.42"/>
<path d="M188.036 47.9324C183.491 50.529 180.342 55.1609 177.353 59.6423L172.374 67.0913C172.142 67.3668 172.015 67.724 172.016 68.0939C172.071 68.3722 172.202 68.6269 172.393 68.8257L177.853 75.9038C178.164 76.3149 178.56 76.766 179.059 76.7459C179.387 76.6924 179.69 76.5312 179.927 76.2848C182.115 74.394 183.907 72.0377 185.188 69.3671L181.417 101.289C181.233 102.319 181.233 103.376 181.417 104.407C182.02 106.843 184.491 108.156 186.782 108.768C189.617 109.403 192.503 109.738 195.4 109.77L211.58 110.502C212.303 110.592 213.034 110.506 213.721 110.251C215.154 109.59 215.607 107.725 215.89 106.101C217.304 97.7195 218.153 89.2479 219.011 80.7863C219.516 76.911 219.683 72.9944 219.51 69.0864C219.266 66.3495 218.818 63.6374 218.171 60.9757C216.917 55.3614 214.607 46.9399 208.507 45.416C202.406 43.8921 193.448 44.8445 188.036 47.9324Z" fill="#1DD3B0" fill-opacity="0.39"/>
<path d="M172.016 68.0537C172.07 68.332 172.202 68.5867 172.393 68.7855L177.852 75.8636C178.163 76.2746 178.559 76.7258 179.059 76.7057C179.387 76.6522 179.69 76.4909 179.927 76.2446C182.115 74.3538 183.907 71.9975 185.188 69.3269C183.931 79.9674 182.674 90.6079 181.416 101.248C181.233 102.279 181.233 103.336 181.416 104.366C182.02 106.803 184.49 108.116 186.782 108.727C189.616 109.362 192.503 109.698 195.4 109.73L211.58 110.462C212.302 110.552 213.034 110.466 213.721 110.211C214.148 110.012 214.518 109.698 214.795 109.299C215.381 108.327 215.751 107.227 215.88 106.081C217.294 97.6993 218.143 89.2277 219.001 80.7661C219.506 76.8908 219.673 72.9742 219.501 69.0662C219.256 66.3293 218.809 63.6173 218.162 60.9555C217.519 57.6941 216.486 54.5336 215.088 51.5515C213.598 48.604 211.514 46.1678 208.487 45.3958C202.462 43.8419 193.401 44.8645 187.998 47.9524C183.453 50.549 180.304 55.1808 177.315 59.6622L172.336 67.1112C172.13 67.3768 172.017 67.7096 172.016 68.0537Z" fill="url(#paint4_linear_329_5111)"/>
<path d="M185.187 69.327L185.771 58.2988C185.771 58.2988 177.794 70.7506 173.353 70.0889C173.353 70.0889 176.588 75.7333 179.058 76.7559C181.002 75.4483 182.658 73.7114 183.914 71.6629C185.507 68.6553 185.187 69.327 185.187 69.327Z" fill="url(#paint5_linear_329_5111)"/>
<path d="M202.866 109.73L213.738 110.211L214.813 109.299C215.398 108.327 215.769 107.227 215.897 106.081C217.312 97.6993 218.16 89.2277 219.018 80.7661C219.524 76.8908 219.691 72.9742 219.518 69.0662C219.274 66.3293 218.826 63.6172 218.179 60.9555C217.537 57.694 216.504 54.5336 215.105 51.5515L214.483 62.5797L209.938 76.1242C209.938 76.1242 208.411 108.878 202.866 109.73Z" fill="url(#paint6_linear_329_5111)"/>
<path d="M196.323 39.0899C196.35 38.95 196.334 38.8046 196.278 38.6748C196.222 38.545 196.129 38.4376 196.012 38.368C196.589 39.9653 196.72 41.7062 196.389 43.3808C196.109 44.2731 195.966 45.2073 195.965 46.1479C196.153 48.153 198.435 49.4363 200.255 48.8949C202.075 48.3535 204.696 47.2808 205.375 45.3659C205.809 44.1227 206.318 33.4856 206.233 33.1547C205.893 32.2624 203.696 35.4506 202.933 35.9518C202.169 36.4531 201.631 37.2853 200.849 37.7565C199.331 38.6688 197.077 38.1074 196.049 39.5911" fill="url(#paint7_linear_329_5111)"/>
<path d="M204.678 46.1078C204.678 46.1078 198.624 49.3059 197.323 47.381C196.022 45.4561 196.154 44.6541 196.154 44.6541L195.211 45.3659C195.211 45.3659 193.768 49.2157 197.153 50.2684C200.538 51.3211 203.923 49.0653 203.923 49.0653L204.678 46.1078Z" fill="#1DD3B0" fill-opacity="0.39"/>
<path d="M204.678 46.1078C204.678 46.1078 198.624 49.3059 197.323 47.381C196.022 45.4561 196.154 44.6541 196.154 44.6541L195.211 45.3659C195.211 45.3659 193.768 49.2157 197.153 50.2684C200.538 51.3211 203.923 49.0653 203.923 49.0653L204.678 46.1078Z" fill="url(#paint8_linear_329_5111)"/>
<path d="M200.407 79.5932C192.553 71.9036 184.066 64.9859 175.58 58.0783C172.195 55.3212 168.603 52.4639 164.388 51.8424C163.369 51.692 160.352 51.7722 160.503 52.8449C160.654 53.9177 163.558 53.4164 163.954 53.5467C166.783 54.4691 166.566 55.0906 165.84 57.4968C165.114 59.9029 165.472 61.9782 166.953 63.4219C168.093 64.5348 173.496 66.59 174.873 67.3419C178.645 69.4072 181.719 72.6555 184.736 75.8436L189.252 80.6058C190.723 82.1798 192.204 83.7438 193.552 85.4481C194.657 86.9966 195.901 88.427 197.267 89.719C197.95 90.3632 198.757 90.8399 199.632 91.1154C200.507 91.3909 201.428 91.4584 202.331 91.3131C204.113 90.9121 205.018 90.9823 207.931 88.4458C209.796 86.7771 211.502 84.9167 213.023 82.8916C213.221 82.6009 206.357 77.3174 204.405 77.177C202.453 77.0367 202.397 81.5381 200.407 79.5932Z" fill="url(#paint9_linear_329_5111)"/>
<path d="M213.739 110.211C213.739 110.211 214.578 127.816 208.251 132.328C201.924 136.839 180.209 134.864 180.209 134.864C180.209 134.864 157.286 180.41 157.437 179.979C157.588 179.548 150.837 175.969 150.837 175.969L166.64 121.269L195.38 109.73L213.739 110.211Z" fill="#25233A"/>
<path d="M125.869 24.0012V42.0472C125.872 42.6651 125.989 43.2764 126.214 43.8459C126.44 44.4155 126.768 44.9321 127.182 45.3662C127.595 45.8003 128.085 46.1433 128.624 46.3755C129.163 46.6076 129.739 46.7244 130.32 46.7192H133.677C134.845 46.7192 135.965 46.2259 136.79 45.3478C137.616 44.4698 138.08 43.2789 138.08 42.0372V23.9911C138.08 22.7485 137.616 21.5566 136.791 20.677C135.965 19.7973 134.845 19.3018 133.677 19.2992H130.32C129.737 19.2952 129.159 19.4139 128.619 19.6484C128.079 19.8829 127.588 20.2287 127.175 20.6657C126.761 21.1027 126.433 21.6224 126.209 22.1948C125.985 22.7673 125.869 23.3812 125.869 24.0012Z" fill="#1DD3B0" fill-opacity="0.39"/>
<path d="M125.869 24.0012V38.0971C125.871 38.7158 125.987 39.3282 126.212 39.8989C126.436 40.4696 126.765 40.9875 127.179 41.4226C127.592 41.8578 128.083 42.2017 128.622 42.4344C129.161 42.6672 129.738 42.7844 130.32 42.7791H133.677C134.845 42.7791 135.965 42.2858 136.79 41.4078C137.616 40.5297 138.08 39.3389 138.08 38.0971V24.0012C138.08 22.7585 137.616 21.5666 136.791 20.687C135.965 19.8073 134.845 19.3118 133.677 19.3092H130.32C129.738 19.3052 129.16 19.4236 128.621 19.6575C128.082 19.8914 127.591 20.2362 127.178 20.6721C126.764 21.1081 126.436 21.6266 126.211 22.1979C125.987 22.7692 125.871 23.382 125.869 24.0012Z" fill="url(#paint10_linear_329_5111)"/>
<path d="M141.832 38.0071V43.5813C141.832 45.2857 141.195 46.9203 140.062 48.1255C138.928 49.3306 137.391 50.0077 135.788 50.0077H128.301C127.508 50.0077 126.722 49.8415 125.988 49.5185C125.255 49.1956 124.589 48.7222 124.027 48.1255C123.466 47.5287 123.021 46.8203 122.717 46.0406C122.414 45.2609 122.257 44.4252 122.257 43.5813V38.0071" stroke="black" stroke-width="3" stroke-miterlimit="10" stroke-linecap="round"/>
<path d="M132.045 50.0076V133.942" stroke="black" stroke-width="3" stroke-miterlimit="10" stroke-linecap="round"/>
<path d="M152.544 188.551C152.513 188.68 152.454 188.798 152.372 188.899C152.291 188.999 152.188 189.078 152.073 189.129C151.958 189.181 151.834 189.203 151.709 189.195C151.585 189.187 151.464 189.148 151.356 189.083C148.744 188.27 146.17 187.318 143.596 186.376C141.182 185.493 138.674 184.541 136.939 182.546C136.766 182.384 136.649 182.165 136.609 181.924C136.621 181.763 136.666 181.607 136.741 181.467C136.816 181.327 136.919 181.206 137.042 181.112C138.461 179.778 140.231 178.939 142.113 178.708C143.994 178.476 145.897 178.864 147.565 179.819C148.386 180.31 149.347 180.962 150.187 180.511C150.614 180.205 150.943 179.768 151.13 179.257L152.393 176.681C152.393 176.681 155.127 178.506 155.354 178.776C156.033 179.608 155.995 179.929 155.769 180.982C155.212 183.538 153.657 186.215 152.544 188.551Z" fill="#25233A"/>
<path d="M134.76 174.145C134.619 174.495 134.449 174.896 134.1 174.997C133.844 175.045 133.58 174.995 133.355 174.856C128.926 172.621 124.692 169.974 120.701 166.946C122.417 165.39 124.551 164.448 126.799 164.255C129.047 164.063 131.295 164.629 133.223 165.873C133.855 164.57 134.308 162.304 135.797 162.806C137.016 163.538 137.919 164.746 138.315 166.174C138.645 168.66 135.599 171.909 134.76 174.145Z" fill="#25233A"/>
<path d="M186.782 29.3749C187.084 32.2222 187.725 35.1496 189.366 37.3954C191.911 40.784 196.617 41.8568 200.473 40.403C202.378 39.6207 204.101 38.4092 205.523 36.8516C206.946 35.294 208.035 33.4274 208.714 31.38C210.028 27.2638 210.308 22.8539 209.525 18.5874C209.304 16.5461 208.622 14.5922 207.536 12.8928C205.716 10.3664 202.614 9.31369 199.653 8.82244C196.051 8.2209 190.422 8.43144 188.215 12.171C185.698 16.472 186.273 24.5827 186.782 29.3749Z" fill="url(#paint11_linear_329_5111)"/>
<path d="M186.895 12.532C188.564 16.5422 192.826 18.2566 196.635 19.8306C200.445 21.4046 204.631 23.6704 205.64 27.8511C205.93 27.441 206.142 26.9738 206.261 26.4765C206.381 25.9793 206.407 25.4617 206.338 24.9537C206.96 25.2745 206.856 32.3225 206.178 35.7613C205.602 38.6887 205.584 41.7265 204.999 44.654C204.414 47.5814 203.113 50.549 200.728 52.113C203.241 52.9297 205.946 52.7655 208.356 51.6498C210.766 50.5341 212.722 48.5403 213.872 46.0275L213.061 50.5089C217.19 46.8589 219.835 41.6548 220.444 35.9818C221.017 30.3382 220.209 24.6327 218.096 19.4196C217.342 17.4846 216.842 15.4093 216.031 13.5345C209.185 -2.65679 195.777 -0.701801 191.666 1.32337C187.838 3.20818 185.085 8.17085 186.895 12.532Z" fill="#25233A"/>
<path d="M205.168 65.7678C203.932 71.2719 203.989 73.1567 203.225 76.796C205.555 80.3427 208.898 82.9969 212.758 84.3653C213.253 84.5832 213.799 84.6357 214.323 84.5157C214.962 84.2109 215.484 83.6841 215.804 83.0219C218.599 78.4616 220.107 73.1457 220.15 67.7028C220.15 63.472 217.897 50.3284 212.692 51.2608C210.335 51.6819 209.213 53.8675 208.421 55.8626C207.01 59.033 205.92 62.3533 205.168 65.7678Z" fill="#1DD3B0" fill-opacity="0.39"/>
<path d="M205.168 65.7678C203.932 71.2719 203.989 73.1567 203.225 76.796C205.555 80.3427 208.898 82.9969 212.758 84.3653C213.253 84.5832 213.799 84.6357 214.323 84.5157C214.962 84.2109 215.484 83.6841 215.804 83.0219C218.599 78.4616 220.107 73.1457 220.15 67.7028C220.15 63.472 217.897 50.3284 212.692 51.2608C210.335 51.6819 209.213 53.8675 208.421 55.8626C207.01 59.033 205.92 62.3533 205.168 65.7678Z" fill="url(#paint12_linear_329_5111)"/>
<path d="M144.152 33.6258C144.209 34.2775 144.435 34.8991 144.539 35.5407C144.746 36.7337 144.539 37.9669 144.765 39.1399C144.991 40.3129 145.906 41.526 147.028 41.3656C147.971 41.2352 148.603 40.1826 149.046 39.2401C149.395 38.5083 150.102 37.8466 150.441 37.1047C150.28 37.1019 150.124 37.0419 149.998 36.9343C147.518 34.6885 148.235 31.6809 146.764 28.7634C146.74 28.7136 146.712 28.6666 146.679 28.623C146.432 28.6499 146.193 28.7284 145.974 28.854C145.756 28.9796 145.563 29.1498 145.406 29.3549C145.074 29.8167 144.819 30.3355 144.652 30.8888C144.301 31.752 144.131 32.6858 144.152 33.6258Z" fill="url(#paint13_linear_329_5111)"/>
<path d="M203.564 249.637C203.311 249.635 203.059 249.659 202.81 249.707V240.805C202.803 238.444 203.047 236.09 203.536 233.787C204.503 233.788 205.447 233.477 206.243 232.895C207.04 232.313 207.651 231.487 207.997 230.527C208.342 229.568 208.405 228.519 208.178 227.52C207.951 226.521 207.443 225.62 206.723 224.934C207.581 223.32 208.572 221.79 209.684 220.362C210.528 220.761 211.463 220.891 212.375 220.737C213.288 220.583 214.139 220.151 214.825 219.493C215.511 218.836 216.003 217.981 216.242 217.032C216.481 216.083 216.457 215.081 216.171 214.147C221.191 210.581 227.102 208.703 233.138 208.754C239.175 208.806 245.057 210.786 250.022 214.437C249.916 214.856 249.862 215.287 249.861 215.721C249.861 217.069 250.365 218.362 251.262 219.315C252.158 220.268 253.374 220.804 254.642 220.804C255.176 220.805 255.705 220.707 256.207 220.513C257.106 221.679 257.925 222.912 258.659 224.202C257.712 224.73 256.96 225.58 256.521 226.615C256.082 227.651 255.982 228.814 256.237 229.917C256.492 231.02 257.087 232.001 257.928 232.703C258.769 233.404 259.806 233.786 260.875 233.787C261.334 233.788 261.792 233.718 262.232 233.576C262.741 235.934 262.997 238.345 262.996 240.765V250.128C262.338 249.778 261.611 249.596 260.875 249.597C260.23 249.567 259.585 249.675 258.981 249.917C258.377 250.158 257.824 250.527 257.358 251.002C256.891 251.476 256.52 252.047 256.266 252.678C256.013 253.309 255.882 253.989 255.882 254.675C255.882 255.362 256.013 256.041 256.266 256.672C256.52 257.304 256.891 257.874 257.358 258.348C257.824 258.823 258.377 259.192 258.981 259.433C259.585 259.675 260.23 259.783 260.875 259.753C261.611 259.754 262.338 259.573 262.996 259.222V276.095C262.338 275.744 261.611 275.562 260.875 275.563C259.607 275.563 258.391 276.099 257.494 277.052C256.598 278.005 256.094 279.298 256.094 280.646C256.094 281.994 256.598 283.287 257.494 284.241C258.391 285.194 259.607 285.729 260.875 285.729C261.611 285.731 262.338 285.549 262.996 285.198V301.57H202.782V285.699C203.031 285.748 203.283 285.771 203.536 285.769C204.804 285.769 206.02 285.234 206.917 284.281C207.813 283.327 208.317 282.035 208.317 280.686C208.317 279.338 207.813 278.045 206.917 277.092C206.02 276.139 204.804 275.603 203.536 275.603C203.283 275.601 203.031 275.625 202.782 275.674V259.723C203.031 259.772 203.283 259.795 203.536 259.793C204.766 259.735 205.928 259.175 206.779 258.229C207.63 257.283 208.104 256.024 208.104 254.715C208.104 253.406 207.63 252.148 206.779 251.202C205.928 250.256 204.766 249.695 203.536 249.637H203.564ZM213.116 228.744C213.116 229.749 213.397 230.732 213.922 231.568C214.447 232.404 215.194 233.055 216.067 233.44C216.941 233.825 217.902 233.925 218.829 233.729C219.757 233.533 220.608 233.049 221.277 232.338C221.946 231.627 222.401 230.721 222.585 229.735C222.77 228.749 222.675 227.727 222.313 226.799C221.952 225.87 221.339 225.076 220.553 224.518C219.766 223.959 218.842 223.661 217.897 223.661C216.629 223.661 215.413 224.196 214.516 225.15C213.62 226.103 213.116 227.396 213.116 228.744ZM241.79 254.71C241.788 255.716 242.067 256.7 242.591 257.537C243.115 258.374 243.861 259.027 244.735 259.413C245.608 259.8 246.569 259.902 247.497 259.707C248.425 259.512 249.278 259.028 249.948 258.318C250.617 257.607 251.073 256.702 251.259 255.715C251.444 254.729 251.35 253.707 250.988 252.777C250.627 251.848 250.014 251.053 249.228 250.495C248.441 249.936 247.517 249.637 246.571 249.637C245.304 249.637 244.09 250.171 243.194 251.122C242.297 252.073 241.793 253.364 241.79 254.71ZM245.109 241.727C245.109 240.722 244.829 239.739 244.303 238.903C243.778 238.067 243.031 237.416 242.158 237.031C241.284 236.646 240.323 236.546 239.396 236.742C238.469 236.938 237.617 237.422 236.948 238.133C236.28 238.844 235.824 239.749 235.64 240.735C235.455 241.721 235.55 242.743 235.912 243.672C236.274 244.601 236.886 245.395 237.673 245.953C238.459 246.512 239.383 246.81 240.329 246.81C241.596 246.81 242.812 246.274 243.709 245.321C244.605 244.368 245.109 243.075 245.109 241.727ZM240.329 262.62C239.383 262.62 238.459 262.918 237.673 263.477C236.886 264.035 236.274 264.829 235.912 265.758C235.55 266.687 235.455 267.709 235.64 268.695C235.824 269.681 236.28 270.587 236.948 271.297C237.617 272.008 238.469 272.492 239.396 272.689C240.323 272.885 241.284 272.784 242.158 272.399C243.031 272.015 243.778 271.363 244.303 270.527C244.829 269.691 245.109 268.709 245.109 267.703C245.109 266.355 244.605 265.062 243.709 264.109C242.812 263.156 241.596 262.62 240.329 262.62ZM237.009 254.71C237.009 253.705 236.729 252.722 236.204 251.886C235.679 251.05 234.932 250.399 234.058 250.014C233.185 249.629 232.224 249.529 231.296 249.725C230.369 249.921 229.517 250.405 228.849 251.116C228.18 251.827 227.725 252.732 227.54 253.718C227.356 254.704 227.45 255.727 227.812 256.655C228.174 257.584 228.787 258.378 229.573 258.936C230.359 259.495 231.283 259.793 232.229 259.793C232.857 259.794 233.479 259.664 234.06 259.409C234.64 259.154 235.168 258.78 235.612 258.307C236.056 257.835 236.408 257.274 236.648 256.657C236.888 256.04 237.011 255.378 237.009 254.71ZM230.777 241.727C230.777 240.722 230.496 239.739 229.971 238.903C229.446 238.067 228.699 237.416 227.826 237.031C226.952 236.646 225.991 236.546 225.064 236.742C224.136 236.938 223.285 237.422 222.616 238.133C221.947 238.844 221.492 239.749 221.308 240.735C221.123 241.721 221.218 242.743 221.58 243.672C221.941 244.601 222.554 245.395 223.34 245.953C224.127 246.512 225.051 246.81 225.996 246.81C227.264 246.81 228.48 246.274 229.377 245.321C230.273 244.368 230.777 243.075 230.777 241.727ZM225.996 262.62C225.051 262.62 224.127 262.918 223.34 263.477C222.554 264.035 221.941 264.829 221.58 265.758C221.218 266.687 221.123 267.709 221.308 268.695C221.492 269.681 221.947 270.587 222.616 271.297C223.285 272.008 224.136 272.492 225.064 272.689C225.991 272.885 226.952 272.784 227.826 272.399C228.699 272.015 229.446 271.363 229.971 270.527C230.496 269.691 230.777 268.709 230.777 267.703C230.777 266.355 230.273 265.062 229.377 264.109C228.48 263.156 227.264 262.62 225.996 262.62ZM222.677 254.71C222.677 253.705 222.397 252.722 221.872 251.886C221.346 251.05 220.6 250.399 219.726 250.014C218.853 249.629 217.891 249.529 216.964 249.725C216.037 249.921 215.185 250.405 214.516 251.116C213.848 251.827 213.392 252.732 213.208 253.718C213.024 254.704 213.118 255.727 213.48 256.655C213.842 257.584 214.455 258.378 215.241 258.936C216.027 259.495 216.951 259.793 217.897 259.793C218.525 259.794 219.147 259.664 219.728 259.409C220.308 259.154 220.836 258.78 221.28 258.307C221.724 257.835 222.076 257.274 222.316 256.657C222.556 256.04 222.679 255.378 222.677 254.71ZM225.996 210.678C225.051 210.678 224.127 210.976 223.34 211.534C222.554 212.093 221.941 212.887 221.58 213.816C221.218 214.744 221.123 215.766 221.308 216.752C221.492 217.738 221.947 218.644 222.616 219.355C223.285 220.066 224.136 220.55 225.064 220.746C225.991 220.942 226.952 220.841 227.826 220.457C228.699 220.072 229.446 219.421 229.971 218.585C230.496 217.749 230.777 216.766 230.777 215.761C230.777 214.413 230.273 213.12 229.377 212.166C228.48 211.213 227.264 210.678 225.996 210.678ZM232.229 223.711C231.283 223.711 230.359 224.009 229.573 224.568C228.787 225.126 228.174 225.92 227.812 226.849C227.45 227.778 227.356 228.8 227.54 229.786C227.725 230.772 228.18 231.677 228.849 232.388C229.517 233.099 230.369 233.583 231.296 233.779C232.224 233.975 233.185 233.875 234.058 233.49C234.932 233.105 235.679 232.454 236.204 231.618C236.729 230.782 237.009 229.799 237.009 228.794C237.017 228.122 236.899 227.455 236.662 226.832C236.425 226.209 236.074 225.642 235.629 225.164C235.184 224.687 234.654 224.308 234.071 224.05C233.487 223.792 232.861 223.659 232.229 223.661V223.711ZM240.329 210.678C239.383 210.678 238.459 210.976 237.673 211.534C236.886 212.093 236.274 212.887 235.912 213.816C235.55 214.744 235.455 215.766 235.64 216.752C235.824 217.738 236.28 218.644 236.948 219.355C237.617 220.066 238.469 220.55 239.396 220.746C240.323 220.942 241.284 220.841 242.158 220.457C243.031 220.072 243.778 219.421 244.303 218.585C244.829 217.749 245.109 216.766 245.109 215.761C245.109 214.413 244.605 213.12 243.709 212.166C242.812 211.213 241.596 210.678 240.329 210.678ZM246.571 223.711C245.625 223.711 244.701 224.009 243.915 224.568C243.129 225.126 242.516 225.92 242.154 226.849C241.792 227.778 241.697 228.8 241.882 229.786C242.066 230.772 242.522 231.677 243.19 232.388C243.859 233.099 244.711 233.583 245.638 233.779C246.565 233.975 247.526 233.875 248.4 233.49C249.274 233.105 250.02 232.454 250.545 231.618C251.071 230.782 251.351 229.799 251.351 228.794C251.357 228.122 251.238 227.456 251.001 226.833C250.763 226.211 250.412 225.645 249.968 225.167C249.523 224.69 248.994 224.311 248.411 224.053C247.828 223.794 247.202 223.661 246.571 223.661V223.711ZM259.441 241.757C259.441 240.751 259.161 239.768 258.635 238.932C258.109 238.096 257.362 237.444 256.488 237.06C255.614 236.676 254.652 236.576 253.725 236.772C252.797 236.969 251.945 237.455 251.277 238.166C250.609 238.878 250.154 239.785 249.971 240.772C249.788 241.758 249.884 242.781 250.247 243.709C250.61 244.638 251.224 245.431 252.012 245.988C252.799 246.546 253.724 246.842 254.67 246.84C255.3 246.839 255.923 246.705 256.503 246.447C257.084 246.189 257.611 245.812 258.055 245.337C258.498 244.862 258.848 244.299 259.086 243.679C259.324 243.06 259.445 242.396 259.441 241.727V241.757ZM259.441 267.733C259.443 266.727 259.164 265.743 258.64 264.906C258.115 264.068 257.368 263.415 256.495 263.029C255.621 262.643 254.659 262.542 253.73 262.738C252.802 262.933 251.95 263.418 251.28 264.129C250.611 264.841 250.156 265.747 249.972 266.734C249.787 267.721 249.883 268.744 250.246 269.673C250.609 270.602 251.223 271.396 252.011 271.954C252.798 272.512 253.724 272.808 254.67 272.806C255.299 272.805 255.921 272.672 256.501 272.415C257.081 272.157 257.608 271.781 258.051 271.307C258.494 270.833 258.845 270.271 259.084 269.652C259.322 269.034 259.444 268.372 259.441 267.703V267.733ZM254.67 298.813C255.616 298.813 256.54 298.515 257.326 297.956C258.112 297.398 258.725 296.604 259.087 295.675C259.449 294.746 259.543 293.724 259.359 292.738C259.174 291.752 258.719 290.846 258.051 290.136C257.382 289.425 256.53 288.941 255.603 288.744C254.676 288.548 253.714 288.649 252.841 289.034C251.967 289.418 251.221 290.07 250.695 290.906C250.17 291.742 249.89 292.724 249.89 293.73C249.905 295.067 250.415 296.345 251.31 297.285C252.205 298.225 253.412 298.753 254.67 298.753V298.813ZM251.351 280.767C251.351 279.761 251.071 278.779 250.545 277.943C250.02 277.107 249.274 276.455 248.4 276.071C247.526 275.686 246.565 275.585 245.638 275.781C244.711 275.977 243.859 276.462 243.19 277.172C242.522 277.883 242.066 278.789 241.882 279.775C241.697 280.761 241.792 281.783 242.154 282.712C242.516 283.641 243.129 284.434 243.915 284.993C244.701 285.552 245.625 285.85 246.571 285.85C247.205 285.85 247.833 285.716 248.418 285.455C249.003 285.195 249.533 284.813 249.978 284.333C250.423 283.852 250.773 283.282 251.009 282.656C251.245 282.03 251.361 281.361 251.351 280.686V280.767ZM240.329 298.813C241.274 298.813 242.198 298.515 242.984 297.956C243.771 297.398 244.383 296.604 244.745 295.675C245.107 294.746 245.202 293.724 245.017 292.738C244.833 291.752 244.377 290.846 243.709 290.136C243.04 289.425 242.189 288.941 241.261 288.744C240.334 288.548 239.373 288.649 238.499 289.034C237.626 289.418 236.879 290.07 236.354 290.906C235.828 291.742 235.548 292.724 235.548 293.73C235.563 295.067 236.073 296.345 236.968 297.285C237.863 298.225 239.07 298.753 240.329 298.753V298.813ZM237.009 280.767C237.009 279.761 236.729 278.779 236.204 277.943C235.679 277.107 234.932 276.455 234.058 276.071C233.185 275.686 232.224 275.585 231.296 275.781C230.369 275.977 229.517 276.462 228.849 277.172C228.18 277.883 227.725 278.789 227.54 279.775C227.356 280.761 227.45 281.783 227.812 282.712C228.174 283.641 228.787 284.434 229.573 284.993C230.359 285.552 231.283 285.85 232.229 285.85C232.863 285.85 233.491 285.716 234.076 285.455C234.661 285.195 235.191 284.813 235.636 284.333C236.081 283.852 236.432 283.282 236.667 282.656C236.903 282.03 237.019 281.361 237.009 280.686V280.767ZM225.996 298.813C226.942 298.813 227.866 298.515 228.652 297.956C229.438 297.398 230.051 296.604 230.413 295.675C230.775 294.746 230.869 293.724 230.685 292.738C230.501 291.752 230.045 290.846 229.377 290.136C228.708 289.425 227.856 288.941 226.929 288.744C226.002 288.548 225.04 288.649 224.167 289.034C223.293 289.418 222.547 290.07 222.021 290.906C221.496 291.742 221.216 292.724 221.216 293.73C221.231 295.067 221.741 296.345 222.636 297.285C223.531 298.225 224.738 298.753 225.996 298.753V298.813ZM222.677 280.767C222.677 279.761 222.397 278.779 221.872 277.943C221.346 277.107 220.6 276.455 219.726 276.071C218.853 275.686 217.891 275.585 216.964 275.781C216.037 275.977 215.185 276.462 214.516 277.172C213.848 277.883 213.392 278.789 213.208 279.775C213.024 280.761 213.118 281.783 213.48 282.712C213.842 283.641 214.455 284.434 215.241 284.993C216.027 285.552 216.951 285.85 217.897 285.85C218.531 285.85 219.159 285.716 219.744 285.455C220.329 285.195 220.859 284.813 221.304 284.333C221.749 283.852 222.099 283.282 222.335 282.656C222.571 282.03 222.687 281.361 222.677 280.686V280.767ZM206.874 293.75C206.874 294.755 207.154 295.738 207.68 296.574C208.205 297.41 208.952 298.061 209.825 298.446C210.699 298.831 211.66 298.931 212.587 298.735C213.515 298.539 214.366 298.055 215.035 297.344C215.704 296.633 216.159 295.727 216.343 294.741C216.528 293.755 216.433 292.733 216.071 291.805C215.709 290.876 215.097 290.082 214.311 289.523C213.524 288.965 212.6 288.667 211.655 288.667C210.4 288.667 209.195 289.191 208.301 290.127C207.406 291.063 206.894 292.335 206.874 293.67V293.75ZM206.874 267.783C206.874 268.789 207.154 269.772 207.68 270.607C208.205 271.443 208.952 272.095 209.825 272.48C210.699 272.864 211.66 272.965 212.587 272.769C213.515 272.573 214.366 272.089 215.035 271.378C215.704 270.667 216.159 269.761 216.343 268.775C216.528 267.789 216.433 266.767 216.071 265.838C215.709 264.91 215.097 264.116 214.311 263.557C213.524 262.999 212.6 262.701 211.655 262.701C210.4 262.7 209.195 263.225 208.301 264.161C207.406 265.097 206.894 266.369 206.874 267.703V267.783ZM211.655 246.89C212.6 246.89 213.524 246.592 214.311 246.034C215.097 245.475 215.709 244.681 216.071 243.752C216.433 242.824 216.528 241.802 216.343 240.816C216.159 239.83 215.704 238.924 215.035 238.213C214.366 237.502 213.515 237.018 212.587 236.822C211.66 236.626 210.699 236.726 209.825 237.111C208.952 237.496 208.205 238.147 207.68 238.983C207.154 239.819 206.874 240.802 206.874 241.807C206.894 243.141 207.406 244.414 208.301 245.35C209.195 246.286 210.4 246.81 211.655 246.81V246.89Z" fill="url(#paint14_linear_329_5111)"/>
</g>
<defs>
<linearGradient id="paint0_linear_329_5111" x1="169.488" y1="54.509" x2="168.809" y2="54.509" gradientUnits="userSpaceOnUse">
<stop stop-color="#ECC4D7"/>
<stop offset="0.42" stop-color="#EFD4D1"/>
<stop offset="1" stop-color="#F2EAC9"/>
</linearGradient>
<linearGradient id="paint1_linear_329_5111" x1="178.427" y1="54.7798" x2="142.05" y2="54.7798" gradientUnits="userSpaceOnUse">
<stop stop-color="#ECC4D7"/>
<stop offset="0.42" stop-color="#EFD4D1"/>
<stop offset="1" stop-color="#F2EAC9"/>
</linearGradient>
<linearGradient id="paint2_linear_329_5111" x1="229.637" y1="-14.9381" x2="238.634" y2="777.693" gradientUnits="userSpaceOnUse">
<stop stop-opacity="0"/>
<stop offset="0.97"/>
</linearGradient>
<linearGradient id="paint3_linear_329_5111" x1="229.769" y1="-14.7877" x2="238.766" y2="777.493" gradientUnits="userSpaceOnUse">
<stop stop-opacity="0"/>
<stop offset="0.97"/>
</linearGradient>
<linearGradient id="paint4_linear_329_5111" x1="193.637" y1="76.3649" x2="235.315" y2="82.7512" gradientUnits="userSpaceOnUse">
<stop stop-opacity="0"/>
<stop offset="0.97"/>
</linearGradient>
<linearGradient id="paint5_linear_329_5111" x1="174.843" y1="64.4646" x2="218.112" y2="79.6666" gradientUnits="userSpaceOnUse">
<stop stop-opacity="0"/>
<stop offset="0.97"/>
</linearGradient>
<linearGradient id="paint6_linear_329_5111" x1="229.117" y1="87.8442" x2="149.168" y2="62.493" gradientUnits="userSpaceOnUse">
<stop stop-opacity="0"/>
<stop offset="0.97"/>
</linearGradient>
<linearGradient id="paint7_linear_329_5111" x1="202.904" y1="40.3631" x2="196.144" y2="45.4129" gradientUnits="userSpaceOnUse">
<stop stop-color="#ECC4D7"/>
<stop offset="0.42" stop-color="#EFD4D1"/>
<stop offset="1" stop-color="#F2EAC9"/>
</linearGradient>
<linearGradient id="paint8_linear_329_5111" x1="196.899" y1="44.644" x2="214.174" y2="59.0508" gradientUnits="userSpaceOnUse">
<stop stop-opacity="0.03"/>
<stop offset="0.97"/>
</linearGradient>
<linearGradient id="paint9_linear_329_5111" x1="212.995" y1="71.6028" x2="160.55" y2="71.6028" gradientUnits="userSpaceOnUse">
<stop stop-color="#ECC4D7"/>
<stop offset="0.42" stop-color="#EFD4D1"/>
<stop offset="1" stop-color="#F2EAC9"/>
</linearGradient>
<linearGradient id="paint10_linear_329_5111" x1="137.062" y1="30.7183" x2="106.499" y2="32.4394" gradientUnits="userSpaceOnUse">
<stop stop-opacity="0"/>
<stop offset="0.97"/>
</linearGradient>
<linearGradient id="paint11_linear_329_5111" x1="199.247" y1="17.8655" x2="193.886" y2="37.4672" gradientUnits="userSpaceOnUse">
<stop stop-color="#ECC4D7"/>
<stop offset="0.42" stop-color="#EFD4D1"/>
<stop offset="1" stop-color="#F2EAC9"/>
</linearGradient>
<linearGradient id="paint12_linear_329_5111" x1="207.412" y1="67.5424" x2="227.594" y2="68.3762" gradientUnits="userSpaceOnUse">
<stop stop-opacity="0"/>
<stop offset="0.97"/>
</linearGradient>
<linearGradient id="paint13_linear_329_5111" x1="154.486" y1="39.8918" x2="134.657" y2="29.0874" gradientUnits="userSpaceOnUse">
<stop stop-color="#ECC4D7"/>
<stop offset="0.42" stop-color="#EFD4D1"/>
<stop offset="1" stop-color="#F2EAC9"/>
</linearGradient>
<linearGradient id="paint14_linear_329_5111" x1="233.606" y1="404.202" x2="230.003" y2="-210.605" gradientUnits="userSpaceOnUse">
<stop stop-opacity="0"/>
<stop offset="0.97"/>
</linearGradient>
<clipPath id="clip0_329_5111">
<rect width="476" height="572" fill="white" transform="matrix(-1 0 0 1 476 0)"/>
</clipPath>
</defs>
</svg>
