<svg xmlns="http://www.w3.org/2000/svg" viewBox="0 0 278.52 106.75"><defs><style>.cls-1{font-size:13.97px;font-family:CenturyGothic-Bold, Century Gothic;letter-spacing:0.2em;}.cls-1,.cls-6,.cls-7{fill:#00a99d;}.cls-2{font-weight:700;}.cls-3{font-family:CenturyGothic, Century Gothic;letter-spacing:0.2em;}.cls-4,.cls-5{fill:#1b1b1b;}.cls-4{stroke:#1b1b1b;}.cls-4,.cls-6,.cls-9{stroke-miterlimit:10;}.cls-6{stroke:#00a99d;stroke-width:0.25px;}.cls-10,.cls-6{fill-rule:evenodd;}.cls-10,.cls-8{fill:#fff;}.cls-9{fill:none;stroke:#fff;}</style></defs><title>1LOGO 1</title><g id="Capa_2" data-name="Capa 2"><g id="Capa_1-2" data-name="Capa 1"><text class="cls-1" transform="translate(128.06 85.62)"><tspan class="cls-2">COMUNICACIÓN</tspan><tspan class="cls-3"><tspan x="0" y="16.76">| DIGITAL</tspan></tspan></text><path class="cls-4" d="M237.45.5l-7.92,5.85a1.5,1.5,0,0,1-.5.26,1.75,1.75,0,0,1-.55.07h-1.9l6.15-5.58a2.22,2.22,0,0,1,.71-.48,3,3,0,0,1,1-.12Z"/><path class="cls-4" d="M131.82,39.43V63h-3.75V10.89h13.29q9,0,13.48,3.48t4.45,10.22a13.93,13.93,0,0,1-1,5.45,12.61,12.61,0,0,1-3,4.33,15.84,15.84,0,0,1-4.66,3.06A20.55,20.55,0,0,1,144.49,39a5.8,5.8,0,0,1,1.58,1.48L164,63h-3.28a2.12,2.12,0,0,1-1-.22,2.61,2.61,0,0,1-.83-.73L142.21,40.91a3.71,3.71,0,0,0-1.35-1.14,5.61,5.61,0,0,0-2.23-.34Zm0-2.79h9.06a21.56,21.56,0,0,0,6.21-.83,13.56,13.56,0,0,0,4.64-2.38,10.36,10.36,0,0,0,2.89-3.72,11.69,11.69,0,0,0,1-4.9q0-5.55-3.64-8.24t-10.61-2.69h-9.54Z"/><path class="cls-4" d="M216.79,63h-2.91a1.28,1.28,0,0,1-.84-.27,1.81,1.81,0,0,1-.52-.72l-6.15-15.14h-25.6L174.66,62a1.65,1.65,0,0,1-.51.7,1.36,1.36,0,0,1-.89.29h-2.87l21.32-52.11h3.76ZM181.92,44.07h23.35L194.62,17.74c-.17-.41-.34-.89-.51-1.41s-.35-1.09-.52-1.68q-.26.88-.51,1.68c-.18.52-.35,1-.52,1.45Z"/><path class="cls-4" d="M229.33,63h-3.79V10.89h3.79Z"/><path class="cls-4" d="M278,10.89v1.29a2.61,2.61,0,0,1-.51,1.51L244.44,59.87h33.29V63h-38.3V61.64a2.27,2.27,0,0,1,.44-1.32L273,14H240.39V10.89Z"/><circle class="cls-5" cx="53.17" cy="53.58" r="53.17"/><path class="cls-6" d="M68,60.75l0,0a17.86,17.86,0,0,1,3.34-2.1,3.07,3.07,0,0,1,1.38-1.47c.55-.41.94-.68,1-1.36a7.1,7.1,0,0,0-1.87.88c-.59.36-1.18.73-1.77,1.12-1,.68-2,1.43-3,2.21a21.51,21.51,0,0,0-1.8-1.18A6.15,6.15,0,0,1,63,58.75c-.72-.07-1.43.08-1.63.74a7.57,7.57,0,0,1,3.78.84c.29.14.57.3.85.46a30.8,30.8,0,0,0-5.12,5.46A56.44,56.44,0,0,0,67,61.46,13,13,0,0,1,68.3,62.6c1.86,1.85,3.34,4.2,5.07,6.16a17.83,17.83,0,0,0-3.1-5.66A17.09,17.09,0,0,0,68,60.75Z"/><path class="cls-7" d="M16.56,45c3.85-.16,7.74-.29,11.6-.19a25.57,25.57,0,0,1,4.32.19c3.15.66,4,2.28,4.08,5.35,0,3.38-.45,6.61-.67,10-.15,2.46-.55,5.06.41,7.47a.25.25,0,0,0,.42,0c2.82-3.38,5.28-6.54,7.87-10.21C46,55.82,46.78,54.43,48.4,52s5.83-8.68,7.87-10.61c5.06-4.76,11.84-2.62,17.56-2.78,3-.08,5.17,0,8,0,1.16,0,2.16,0,3.28,0,.74,0,1.43.11,2.15.16,2.41.17,2.52,1.26,1.3,3.15a.27.27,0,1,0-.54,0c.13,1.84,1.91,3.82,3.55,2,2-2.13-1-4.75-3-5.42s-4-.5-6-.5c-3.47,0-6.69,0-10.13,0s-6.58-.11-10.14.08c-1.73.09-3.09-.58-5.05,1-2.58,2-6.6,8.18-8.25,10.83-2.34,3.78-2.95,4.68-5.47,8.42-.5.74-4.59,8.11-6.1,7.88-2.56-.39-.77-7-.7-8.68.16-3.43.62-6.63.33-10.06-.07-.78.11-2-.76-2.57-2.05-1.37-5.87-.64-8-.65-4.22,0-7.7,0-11.71.22a.27.27,0,1,0,0,.54Z"/><path class="cls-8" d="M12.44,45.13h.15c.75,0,3.64-.18,5-.21,2.15,0,5-.06,7.34,0,.4,0,.88,0,1.29,0a18.28,18.28,0,0,1,3.41.2c3.57.89,4.44,3,4.5,6.44.06,2.59-.22,5.16-.4,7.74-.09,1.36-.22,2.7-.29,4.09,0,.49-.07,1-.11,1.5a17.11,17.11,0,0,0,.54,7.26c0,.08.07.08.13.09a.13.13,0,0,0,.14-.05c.61-.8,1.21-1.59,1.79-2.38A24.57,24.57,0,0,0,39,65.56c1.21-1.72,2.39-3.48,3.6-5.35,1.51-2.32,2.29-3.84,4.11-6.78s6.07-10.07,8.5-12.5C60,36.22,65,37.62,70.58,37.53c1.41,0,2.34.16,3.76.14,2.75,0,5.76,0,8.51,0H84c.89,0,1.53,0,2.47,0,.68,0,1.54.11,2.31.19s1.88,0,2.3.9-.29,2.12-.83,3c0,0-.15.22-.19.28,0-.1,0-.25,0-.35a.19.19,0,0,0-.09-.17.18.18,0,0,0-.2,0,.17.17,0,0,0-.08.18,3.54,3.54,0,0,0,1.84,3.09c.79.32,1.35-.07,1.9-.66A2.45,2.45,0,0,0,94,41.79a6.84,6.84,0,0,0-3.85-4c-1.95-.76-3.46-.54-5.36-.61-.4,0-.75,0-1.12,0-2.49,0-4.76,0-7.31,0H72.78c-1.33,0-2.45,0-3.71,0-2.43,0-4.79,0-7.23,0a4.16,4.16,0,0,0-.87,0c-1.85.35-2.66-.57-4.55,1.14-2.93,2.63-7,9.54-8.87,12.77-2.35,4.11-3.46,6-5.71,9.57l-.36.62c-.52.85-1.41,2.51-2.44,4.2-1,1.44-2,2.85-3.07,4.27a4.27,4.27,0,0,1-1.17.9h0c-.27-.15-.41,0-.61-.37-1.25-2.55-.5-6.29-.2-9,.06-.57.1-.94.14-1.34s0-.75.07-1a81.12,81.12,0,0,0,.29-10.79,2.5,2.5,0,0,0,0-.38c-.17-.86.09-2-.77-2.59-1.77-1.31-4.56-.92-6.63-.83-.73,0-1.48.09-2.07.07-4.27-.08-8.35,0-12.55.22a.18.18,0,0,0-.17.23c0,.11,0,.18.24.19Zm81.77-3.4a2.88,2.88,0,0,1-.61,2.51,1.94,1.94,0,0,1-2.13.78c-1.49-.62-1.8-2-2-3.32a.39.39,0,0,1,.19-.38.43.43,0,0,1,.41,0c.1,0,.08.07.15.12.42-.72,1.09-1.76.68-2.56s-1.38-.7-2.13-.79-1.63-.15-2.3-.19c-.91-.05-1.58,0-2.45,0l-1.13,0c-2.75,0-5.77,0-8.5,0-1.43,0-2.37-.17-3.77-.15-5.49.1-10.52-1.31-15.16,3.33-2.43,2.44-6.66,9.51-8.48,12.46s-2.6,4.47-4.11,6.8c-2.78,4.28-5.43,8-8.47,12a.4.4,0,0,1-.29.13.08.08,0,0,1-.07,0,.38.38,0,0,1-.3-.22,17.36,17.36,0,0,1-.56-7.38c0-.53.08-1,.11-1.5.08-1.38.2-2.74.3-4.09.17-2.56.45-5.17.4-7.71-.07-3.41-.85-5.35-4.32-6.22a17.85,17.85,0,0,0-3.37-.21c-.42,0-.86,0-1.3,0-4.17-.09-8.34,0-12.51.21h0a.4.4,0,0,1-.4-.41.42.42,0,0,1,.38-.47c4.21-.23,8.31-.3,12.58-.21.57,0,1.33,0,2-.07,2.16-.11,5-.49,6.81.87.92.7.66,1.83.84,2.76a1.67,1.67,0,0,1,0,.38A85.37,85.37,0,0,1,34.4,59c0,.25,0,.6-.08,1s-.07.77-.13,1.34c-.3,2.65-1.06,6.33.15,8.84.16.32.24.16.44.29h0c1.89-.84,5.46-7.56,6.47-9.27l.37-.61C44,56.94,44.89,55.38,47.4,51c1.62-2.86,6-10.26,8.89-12.77,1.85-1.61,2.84-.89,4.68-1.17a6,6,0,0,1,.86,0c2.45,0,4.81,0,7.24,0,1.26,0,2.38,0,3.7,0H83.65c.37,0,.71,0,1.11,0,1.95.06,3.45-.16,5.45.62A7.23,7.23,0,0,1,94.21,41.73Z"/><path class="cls-8" d="M94,41.79a2.45,2.45,0,0,1-.58,2.33c-.55.59-1.11,1-1.9.66a3.54,3.54,0,0,1-1.84-3.09.17.17,0,0,1,.08-.18.18.18,0,0,1,.2,0,.19.19,0,0,1,.09.17c0,.1,0,.25,0,.35,0-.06.17-.24.19-.28.54-.88,1.31-2,.83-3s-1.53-.83-2.3-.9-1.63-.16-2.31-.19c-.94-.06-1.58,0-2.47,0H82.85c-2.75,0-5.76,0-8.51,0-1.42,0-2.35-.17-3.76-.14C65,37.62,60,36.22,55.25,40.93c-2.43,2.43-6.68,9.55-8.5,12.5s-2.6,4.46-4.11,6.78c-1.21,1.87-2.39,3.63-3.6,5.35,1-1.69,1.92-3.35,2.44-4.2l.36-.62c2.25-3.56,3.36-5.46,5.71-9.57C49.38,47.94,53.49,41,56.42,38.4c1.89-1.71,2.7-.79,4.55-1.14a4.16,4.16,0,0,1,.87,0c2.44,0,4.8,0,7.23,0,1.26,0,2.38,0,3.71,0h3.56c2.55,0,4.82,0,7.31,0,.37,0,.72,0,1.12,0,1.9.07,3.41-.15,5.36.61A6.84,6.84,0,0,1,94,41.79Z"/><path class="cls-8" d="M39,65.56A24.57,24.57,0,0,1,36,69.83C37,68.41,38.05,67,39,65.56Z"/><path class="cls-8" d="M36,69.83c-.58.79-1.18,1.58-1.79,2.38a.13.13,0,0,1-.14.05c-.06,0-.11,0-.13-.09a17.11,17.11,0,0,1-.54-7.26c0-.53.08-1,.11-1.5.07-1.39.2-2.73.29-4.09.18-2.58.46-5.15.4-7.74-.06-3.48-.93-5.55-4.5-6.44a18.28,18.28,0,0,0-3.41-.2c-.41,0-.89,0-1.29,0-2.3-.07-5.19-.05-7.34,0-1.4,0-4.29.17-5,.21H12.5c-.28,0-.22-.08-.24-.19a.18.18,0,0,1,.17-.23c4.2-.22,8.28-.3,12.55-.22.59,0,1.34,0,2.07-.07,2.07-.09,4.86-.48,6.63.83.86.63.6,1.73.77,2.59a2.5,2.5,0,0,1,0,.38A81.12,81.12,0,0,1,34.17,59c0,.27,0,.62-.07,1s-.08.77-.14,1.34c-.3,2.71-1.05,6.45.2,9,.2.39.34.22.61.37h0A4.27,4.27,0,0,0,36,69.83Z"/><path class="cls-9" d="M34.07,72.49a.08.08,0,0,1-.07,0,.38.38,0,0,1-.3-.22,17.36,17.36,0,0,1-.56-7.38c0-.53.08-1,.11-1.5.08-1.38.2-2.74.3-4.09.17-2.56.45-5.17.4-7.71-.07-3.41-.85-5.35-4.32-6.22a17.85,17.85,0,0,0-3.37-.21c-.42,0-.86,0-1.3,0-4.17-.09-8.34,0-12.51.21h0a.4.4,0,0,1-.4-.41.42.42,0,0,1,.38-.47c4.21-.23,8.31-.3,12.58-.21.57,0,1.33,0,2-.07,2.16-.11,5-.49,6.81.87.92.7.66,1.83.84,2.76a1.67,1.67,0,0,1,0,.38A85.37,85.37,0,0,1,34.4,59c0,.25,0,.6-.08,1s-.07.77-.13,1.34c-.3,2.65-1.06,6.33.15,8.84.16.32.24.16.44.29h0c1.89-.84,5.46-7.56,6.47-9.27l.37-.61C44,56.94,44.89,55.38,47.4,51c1.62-2.86,6-10.26,8.89-12.77,1.85-1.61,2.84-.89,4.68-1.17a6,6,0,0,1,.86,0c2.45,0,4.81,0,7.24,0,1.26,0,2.38,0,3.7,0H83.65c.37,0,.71,0,1.11,0,1.95.06,3.45-.16,5.45.62a7.23,7.23,0,0,1,4,4.13,2.88,2.88,0,0,1-.61,2.51,1.94,1.94,0,0,1-2.13.78c-1.49-.62-1.8-2-2-3.32a.39.39,0,0,1,.19-.38.43.43,0,0,1,.41,0c.1,0,.08.07.15.12.42-.72,1.09-1.76.68-2.56s-1.38-.7-2.13-.79-1.63-.15-2.3-.19c-.91-.05-1.58,0-2.45,0l-1.13,0c-2.75,0-5.77,0-8.5,0-1.43,0-2.37-.17-3.77-.15-5.49.1-10.52-1.31-15.16,3.33-2.43,2.44-6.66,9.51-8.48,12.46s-2.6,4.47-4.11,6.8c-2.78,4.28-5.43,8-8.47,12A.4.4,0,0,1,34.07,72.49Z"/><line class="cls-9" x1="12.5" y1="45.12" x2="12.59" y2="45.12"/><path class="cls-9" d="M12.44,45.13h.15"/><path class="cls-9" d="M12.44,45.13h-.21"/><line class="cls-9" x1="12.44" y1="45.13" x2="12.5" y2="45.12"/><path class="cls-9" d="M39,65.56A24.57,24.57,0,0,1,36,69.83a4.27,4.27,0,0,1-1.17.9h0c-.27-.15-.41,0-.61-.37-1.25-2.55-.5-6.29-.2-9,.06-.57.1-.94.14-1.34s0-.75.07-1a81.12,81.12,0,0,0,.29-10.79,2.5,2.5,0,0,0,0-.38c-.17-.86.09-2-.77-2.59-1.77-1.31-4.56-.92-6.63-.83-.73,0-1.48.09-2.07.07-4.27-.08-8.35,0-12.55.22a.18.18,0,0,0-.17.23c0,.11,0,.18.24.19"/><path class="cls-9" d="M39,65.56c1.21-1.72,2.39-3.48,3.6-5.35,1.51-2.32,2.29-3.84,4.11-6.78s6.07-10.07,8.5-12.5C60,36.22,65,37.62,70.58,37.53c1.41,0,2.34.16,3.76.14,2.75,0,5.76,0,8.51,0H84c.89,0,1.53,0,2.47,0,.68,0,1.54.11,2.31.19s1.88,0,2.3.9-.29,2.12-.83,3c0,0-.15.22-.19.28,0-.1,0-.25,0-.35a.19.19,0,0,0-.09-.17.18.18,0,0,0-.2,0,.17.17,0,0,0-.08.18,3.54,3.54,0,0,0,1.84,3.09c.79.32,1.35-.07,1.9-.66A2.45,2.45,0,0,0,94,41.79a6.84,6.84,0,0,0-3.85-4c-1.95-.76-3.46-.54-5.36-.61-.4,0-.75,0-1.12,0-2.49,0-4.76,0-7.31,0H72.78c-1.33,0-2.45,0-3.71,0-2.43,0-4.79,0-7.23,0a4.16,4.16,0,0,0-.87,0c-1.85.35-2.66-.57-4.55,1.14-2.93,2.63-7,9.54-8.87,12.77-2.35,4.11-3.46,6-5.71,9.57l-.36.62C41,62.21,40.07,63.87,39,65.56Z"/><path class="cls-9" d="M12.59,45.12c.75,0,3.64-.18,5-.21,2.15,0,5-.06,7.34,0,.4,0,.88,0,1.29,0a18.28,18.28,0,0,1,3.41.2c3.57.89,4.44,3,4.5,6.44.06,2.59-.22,5.16-.4,7.74-.09,1.36-.22,2.7-.29,4.09,0,.49-.07,1-.11,1.5a17.11,17.11,0,0,0,.54,7.26c0,.08.07.08.13.09a.13.13,0,0,0,.14-.05c.61-.8,1.21-1.59,1.79-2.38C37,68.41,38.05,67,39,65.56"/><path class="cls-10" d="M68.33,60s0,0,0,0a18.34,18.34,0,0,1,3.34-2.09A3.09,3.09,0,0,1,73,56.35c.55-.4.94-.67,1-1.35a6.79,6.79,0,0,0-1.87.88c-.59.35-1.18.73-1.77,1.11-1,.69-2,1.44-3,2.22A18.2,18.2,0,0,0,65.55,58,6.17,6.17,0,0,1,63.37,58c-.72-.06-1.43.08-1.63.74a7.65,7.65,0,0,1,3.78.84,8.92,8.92,0,0,1,.86.47,30.55,30.55,0,0,0-5.13,5.46,55.59,55.59,0,0,0,6.1-4.79,14.18,14.18,0,0,1,1.32,1.14C70.53,63.65,72,66,73.74,68a18,18,0,0,0-3.1-5.66A16.48,16.48,0,0,0,68.33,60Z"/></g></g></svg>