<svg width="90" height="90" viewBox="0 0 90 90" fill="none" xmlns="http://www.w3.org/2000/svg">
<g clip-path="url(#clip0_329_5727)">
<path d="M23.7873 77.0814L25.2586 77.8087C31.3899 81.4445 38.2562 83.1413 45.123 83.1413C66.7036 83.1413 84.3605 65.6889 84.3605 44.3582C84.3605 34.1778 80.1913 24.2396 72.8345 16.9677C65.4774 9.69573 55.6677 5.5752 45.123 5.5752C23.5423 5.5752 5.88507 23.0275 6.13046 44.6008C6.13046 51.8724 8.33757 58.9021 12.016 64.9616L12.9968 66.4162L9.07339 80.7175L23.7873 77.0814Z" fill="#00E676"/>
<path d="M77.0038 13.0893C68.6658 4.60564 57.1398 0 45.3684 0C20.3548 0 0.245391 20.1187 0.49043 44.6004C0.49043 52.3571 2.69754 59.8715 6.37629 66.6584L0 89.6859L23.7878 83.626C30.4091 87.2621 37.7659 88.9589 45.1234 88.9589C69.892 88.9589 90.0014 68.8399 90.0014 44.3585C90.0014 32.481 85.3418 21.3307 77.0041 13.0893H77.0038ZM45.3684 81.4448C38.7471 81.4448 32.1258 79.7483 26.4853 76.3548L25.014 75.6275L10.7905 79.2633L14.4689 65.447L13.488 63.9924C2.69754 46.7826 7.84758 23.997 25.5045 13.3315C43.1613 2.66629 65.9682 7.75668 76.7588 25.209C87.5489 42.6614 82.3989 65.2041 64.7423 75.8697C59.1015 79.5054 52.2352 81.4444 45.3684 81.4444V81.4448ZM66.9491 54.5393L64.2516 53.3273C64.2516 53.3273 60.3281 51.6305 57.8756 50.4184C57.6302 50.4184 57.3852 50.1759 57.1398 50.1759C56.404 50.1759 55.9136 50.4184 55.4231 50.661C55.4231 50.661 55.1781 50.9032 51.7447 54.7815C51.4993 55.2663 51.0089 55.5088 50.5185 55.5088H50.2731C50.028 55.5088 49.5376 55.2663 49.2922 55.0241L48.066 54.5393C45.3684 53.3273 42.9163 51.8727 40.9542 49.9337C40.4638 49.4489 39.728 48.9642 39.2375 48.4794C37.5209 46.7826 35.8042 44.8433 34.5783 42.6617L34.3329 42.177C34.0878 41.9344 34.0879 41.6922 33.8425 41.2075C33.8425 40.7227 33.8425 40.238 34.0879 39.9954C34.0879 39.9954 35.0687 38.7834 35.8042 38.0564C36.295 37.5714 36.54 36.8444 37.0304 36.3597C37.5209 35.6324 37.7663 34.6629 37.5209 33.9356C37.2758 32.7235 34.3329 26.1789 33.5974 24.7246C33.1066 23.9973 32.6166 23.7551 31.8807 23.5126H29.1832C28.6924 23.5126 28.2023 23.7551 27.7116 23.7551L27.4662 23.9973C26.9757 24.2399 26.4853 24.7246 25.9949 24.9668C25.5045 25.4519 25.2591 25.9363 24.7686 26.4214C23.052 28.603 22.0711 31.2693 22.0711 33.9356C22.0711 35.8746 22.5615 37.8139 23.2973 39.5107L23.5427 40.238C25.7498 44.8433 28.6924 48.9642 32.6166 52.6L33.5974 53.5695C34.3329 54.2968 35.0687 54.7815 35.5591 55.5085C40.7092 59.8719 46.5947 63.0229 53.216 64.7197C53.9518 64.9619 54.9327 64.9619 55.6685 65.2045H58.1207C59.3469 65.2045 60.8182 64.7197 61.7994 64.235C62.5349 63.7502 63.0253 63.7502 63.5157 63.2655L64.0065 62.7804C64.497 62.2956 64.9874 62.0534 65.4778 61.5687C65.9682 61.0839 66.4587 60.5992 66.7041 60.1141C67.1945 59.1446 67.4395 57.9326 67.6849 56.7209V55.0241C67.6849 55.0241 67.4395 54.7815 66.9491 54.5393Z" fill="white"/>
</g>
<defs>
<clipPath id="clip0_329_5727">
<rect width="90" height="90" fill="white"/>
</clipPath>
</defs>
</svg>
